<?xml version="1.0" encoding="iso-8859-1"?>
<!-- Generator: Adobe Illustrator 16.0.0, SVG Export Plug-In . SVG Version: 6.00 Build 0)  -->
<!DOCTYPE svg PUBLIC "-//W3C//DTD SVG 1.1//EN" "http://www.w3.org/Graphics/SVG/1.1/DTD/svg11.dtd">
<svg xmlns="http://www.w3.org/2000/svg" xmlns:xlink="http://www.w3.org/1999/xlink" version="1.1" id="Capa_1" x="0px" y="0px" width="512px" height="512px" viewBox="0 0 108.582 108.582" style="enable-background:new 0 0 108.582 108.582;" xml:space="preserve">
<g>
	<g>
		<path d="M78.119,73.246c-6.566-3.363-13.357-6.156-20.227-8.791c-0.513-0.193-1.123-0.588-1.336-1.035    c-0.562-1.24-0.947-2.555-1.354-3.85c-0.248-0.836-0.471-1.615-1.379-2.021c-0.248-0.106-0.471-0.584-0.471-0.895    c0.055-3.016-0.648-6.182,1.592-8.813c0.068-0.082,0.098-0.197,0.145-0.295c1.209-2.639,1.414-5.66,3.104-8.121    c0.043-0.053,0.053-0.135,0.061-0.205c0.197-1.883,0.396-3.748,0.559-5.623c0.017-0.23-0.186-0.645-0.387-0.717    c-0.928-0.324-0.879-1.076-0.873-1.82c0-3.664,0-4.195-0.006-7.859c0-2.131-0.627-4.021-2.234-5.473    c-1.835-1.646-3.718-3.24-5.604-4.83c-0.904-0.77-0.99-1.363-0.135-2.207c0.379-0.375,0.857-0.645,1.297-0.957    c-0.098-0.145-0.193-0.287-0.287-0.432c-0.57,0-1.143-0.074-1.693,0.008c-2.086,0.338-4.18,0.633-6.223,1.113    c-3.908,0.922-7.703,2.143-10.871,4.76c-2.164,1.785-3.895,3.867-4.115,6.813c-0.109,1.543-0.096,3.098-0.109,4.637    c-0.012,2.521,0.023,1.908-0.031,4.418c-0.014,0.41-0.238,1.084-0.525,1.174c-1.016,0.332-1.049,0.982-0.908,1.83    c0.1,0.584,0.025,1.191,0.152,1.762c0.35,1.574,0.725,3.148,1.178,4.695c0.334,1.154,0.988,2.244,1.176,3.416    c0.359,2.344,1.234,4.381,2.818,6.152c0.256,0.295,0.453,0.783,0.424,1.174c-0.125,1.797-0.311,3.604-0.555,5.396    c-0.051,0.348-0.416,0.871-0.713,0.938c-1.201,0.244-1.383,1.166-1.672,2.104c-0.373,1.232-0.777,2.461-1.254,3.652    c-0.148,0.373-0.521,0.758-0.889,0.926c-2.127,0.922-4.299,1.777-6.445,2.679c-2.281,0.959-4.588,1.877-6.818,2.936    c-2.299,1.103-4.531,2.337-6.779,3.546c-1.326,0.707-2.563,1.493-3.598,2.467L0,89.236c15.256,0,23.221,11.031,39.098,12.391    l-5.85-8.072l9.07-24.811l-2.805-6.025h5.619l-2.814,6.025l9.072,24.811l-5.695,7.877c11.559-1.936,30.006-12.195,38.956-12.195    L81.52,75.73C80.559,74.746,79.428,73.918,78.119,73.246z" fill="#FFFFFF"/>
		<path d="M89.391,6.955c-10.582,0-19.19,8.609-19.19,19.191c0,0.418,0.016,0.84,0.045,1.273l-8.81,5.725    c-0.526,0.344-0.801,0.967-0.692,1.586c0.104,0.621,0.569,1.117,1.182,1.266l13.445,3.246c3.627,3.879,8.707,6.094,14.021,6.094    c10.582,0,19.191-8.607,19.191-19.189S99.973,6.955,89.391,6.955z M89.391,42.187c-4.582,0-8.957-1.971-12.004-5.406    c-0.213-0.24-0.496-0.41-0.809-0.486l-10.361-2.502l6.541-4.25c0.502-0.326,0.775-0.908,0.707-1.502    c-0.078-0.67-0.117-1.289-0.117-1.895c0-8.846,7.197-16.043,16.043-16.043s16.043,7.197,16.043,16.043    S98.236,42.187,89.391,42.187z" fill="#FFFFFF"/>
		<path d="M83.561,25.6h-2.664c-0.184,0-0.334,0.15-0.334,0.334v8.883c0,0.184,0.15,0.332,0.334,0.332h2.664    c0.187,0,0.334-0.148,0.334-0.332v-8.883C83.895,25.75,83.746,25.6,83.561,25.6z" fill="#FFFFFF"/>
		<path d="M90.473,21.936h-2.664c-0.186,0-0.334,0.15-0.334,0.334v12.547c0,0.184,0.148,0.332,0.334,0.332h2.664    c0.185,0,0.334-0.148,0.334-0.332V22.27C90.807,22.086,90.656,21.936,90.473,21.936z" fill="#FFFFFF"/>
		<path d="M97.08,14.816h-2.666c-0.184,0-0.332,0.148-0.332,0.332v19.668c0,0.184,0.148,0.332,0.332,0.332h2.666    c0.184,0,0.332-0.148,0.332-0.332V15.148C97.412,14.965,97.264,14.816,97.08,14.816z" fill="#FFFFFF"/>
	</g>
</g>
<g>
</g>
<g>
</g>
<g>
</g>
<g>
</g>
<g>
</g>
<g>
</g>
<g>
</g>
<g>
</g>
<g>
</g>
<g>
</g>
<g>
</g>
<g>
</g>
<g>
</g>
<g>
</g>
<g>
</g>
</svg>
