<?xml version="1.0" encoding="iso-8859-1"?>
<!-- Generator: Adobe Illustrator 18.0.0, SVG Export Plug-In . SVG Version: 6.00 Build 0)  -->
<!DOCTYPE svg PUBLIC "-//W3C//DTD SVG 1.1//EN" "http://www.w3.org/Graphics/SVG/1.1/DTD/svg11.dtd">
<svg xmlns="http://www.w3.org/2000/svg" xmlns:xlink="http://www.w3.org/1999/xlink" version="1.1" id="Capa_1" x="0px" y="0px" viewBox="0 0 445.48 445.48" style="enable-background:new 0 0 445.48 445.48;" xml:space="preserve" width="512px" height="512px">
<g>
	<path d="M402.836,99.843l-95.45-95.45C304.573,1.581,300.758,0,296.78,0H53.25c-8.284,0-15,6.716-15,15v415.48   c0,8.284,6.716,15,15,15h338.98c8.284,0,15-6.716,15-15V110.45C407.23,106.471,405.649,102.656,402.836,99.843z M311.78,51.213   l44.237,44.236H311.78V51.213z M68.25,415.48V30h213.53v80.45c0,8.284,6.716,15,15,15h80.45v290.03H68.25z" fill="#FFFFFF"/>
	<path d="M314.74,165h-184c-5.523,0-10,4.477-10,10s4.477,10,10,10h184c5.523,0,10-4.477,10-10S320.263,165,314.74,165z" fill="#FFFFFF"/>
	<path d="M314.74,213h-184c-5.523,0-10,4.477-10,10s4.477,10,10,10h184c5.523,0,10-4.477,10-10S320.263,213,314.74,213z" fill="#FFFFFF"/>
	<path d="M314.74,261h-184c-5.523,0-10,4.477-10,10s4.477,10,10,10h184c5.523,0,10-4.477,10-10S320.263,261,314.74,261z" fill="#FFFFFF"/>
</g>
<g>
</g>
<g>
</g>
<g>
</g>
<g>
</g>
<g>
</g>
<g>
</g>
<g>
</g>
<g>
</g>
<g>
</g>
<g>
</g>
<g>
</g>
<g>
</g>
<g>
</g>
<g>
</g>
<g>
</g>
</svg>
