<?xml version="1.0" encoding="UTF-8" standalone="no"?>
<!-- Generator: Adobe Illustrator 18.1.1, SVG Export Plug-In . SVG Version: 6.00 Build 0)  -->

<svg
   xmlns:dc="http://purl.org/dc/elements/1.1/"
   xmlns:cc="http://creativecommons.org/ns#"
   xmlns:rdf="http://www.w3.org/1999/02/22-rdf-syntax-ns#"
   xmlns:svg="http://www.w3.org/2000/svg"
   xmlns="http://www.w3.org/2000/svg"
   xmlns:sodipodi="http://sodipodi.sourceforge.net/DTD/sodipodi-0.dtd"
   xmlns:inkscape="http://www.inkscape.org/namespaces/inkscape"
   version="1.1"
   id="Capa_1"
   x="0px"
   y="0px"
   viewBox="0 0 20.465 20.465"
   style="enable-background:new 0 0 20.465 20.465;"
   xml:space="preserve"
   width="512px"
   height="512px"
   inkscape:version="0.91 r13725"
   sodipodi:docname="fastreverse.svg"><metadata
     id="metadata45"><rdf:RDF><cc:Work
         rdf:about=""><dc:format>image/svg+xml</dc:format><dc:type
           rdf:resource="http://purl.org/dc/dcmitype/StillImage" /><dc:title></dc:title></cc:Work></rdf:RDF></metadata><defs
     id="defs43" /><sodipodi:namedview
     pagecolor="#ffffff"
     bordercolor="#666666"
     borderopacity="1"
     objecttolerance="10"
     gridtolerance="10"
     guidetolerance="10"
     inkscape:pageopacity="0"
     inkscape:pageshadow="2"
     inkscape:window-width="1536"
     inkscape:window-height="801"
     id="namedview41"
     showgrid="false"
     inkscape:zoom="0.4609375"
     inkscape:cx="256"
     inkscape:cy="256"
     inkscape:window-x="-8"
     inkscape:window-y="-8"
     inkscape:window-maximized="1"
     inkscape:current-layer="Capa_1" /><g
     id="g3"
     transform="matrix(-1,0,0,1,20.465,0)"><g
       id="c91_rewind"><path
         d="M 9.112,1.372 C 9.251,1.303 9.415,1.323 9.536,1.417 l 10.776,8.501 c 0.094,0.076 0.153,0.191 0.153,0.312 0,0.121 -0.06,0.24 -0.153,0.314 L 9.536,19.047 C 9.465,19.103 9.373,19.135 9.288,19.135 L 9.112,19.093 C 8.974,19.029 8.886,18.889 8.886,18.734 l 0,-17.002 C 8.887,1.58 8.975,1.437 9.112,1.372 Z"
         id="path6"
         inkscape:connector-curvature="0"
         style="fill:#ffffff" /><path
         d="M 0.225,1.372 C 0.364,1.303 0.529,1.323 0.65,1.417 l 10.776,8.501 c 0.093,0.076 0.152,0.191 0.152,0.312 0,0.121 -0.06,0.24 -0.152,0.314 L 0.649,19.047 C 0.576,19.103 0.486,19.135 0.4,19.135 L 0.224,19.093 C 0.088,19.028 0,18.889 0,18.733 L 0,1.732 C 0,1.58 0.088,1.437 0.225,1.372 Z"
         id="path8"
         inkscape:connector-curvature="0"
         style="fill:#ffffff" /></g><g
       id="Capa_1_90_" /></g><g
     id="g11" /><g
     id="g13" /><g
     id="g15" /><g
     id="g17" /><g
     id="g19" /><g
     id="g21" /><g
     id="g23" /><g
     id="g25" /><g
     id="g27" /><g
     id="g29" /><g
     id="g31" /><g
     id="g33" /><g
     id="g35" /><g
     id="g37" /><g
     id="g39" /></svg>