<?xml version="1.0" encoding="UTF-8" standalone="no"?>
<!-- Generator: Adobe Illustrator 18.1.1, SVG Export Plug-In . SVG Version: 6.00 Build 0)  -->

<svg
   xmlns:dc="http://purl.org/dc/elements/1.1/"
   xmlns:cc="http://creativecommons.org/ns#"
   xmlns:rdf="http://www.w3.org/1999/02/22-rdf-syntax-ns#"
   xmlns:svg="http://www.w3.org/2000/svg"
   xmlns="http://www.w3.org/2000/svg"
   xmlns:sodipodi="http://sodipodi.sourceforge.net/DTD/sodipodi-0.dtd"
   xmlns:inkscape="http://www.inkscape.org/namespaces/inkscape"
   version="1.1"
   id="Capa_1"
   x="0px"
   y="0px"
   viewBox="0 0 232.679 232.679"
   style="enable-background:new 0 0 232.679 232.679;"
   xml:space="preserve"
   inkscape:version="0.91 r13725"
   sodipodi:docname="stop.svg"><metadata
     id="metadata40"><rdf:RDF><cc:Work
         rdf:about=""><dc:format>image/svg+xml</dc:format><dc:type
           rdf:resource="http://purl.org/dc/dcmitype/StillImage" /></cc:Work></rdf:RDF></metadata><defs
     id="defs38" /><sodipodi:namedview
     pagecolor="#ffffff"
     bordercolor="#666666"
     borderopacity="1"
     objecttolerance="10"
     gridtolerance="10"
     guidetolerance="10"
     inkscape:pageopacity="0"
     inkscape:pageshadow="2"
     inkscape:window-width="2560"
     inkscape:window-height="1377"
     id="namedview36"
     showgrid="false"
     inkscape:zoom="1.0142729"
     inkscape:cx="116.3395"
     inkscape:cy="116.3395"
     inkscape:window-x="-8"
     inkscape:window-y="-8"
     inkscape:window-maximized="1"
     inkscape:current-layer="Capa_1" /><g
     id="Stop"><path
       style="fill-rule:evenodd;clip-rule:evenodd;"
       d="M214.781,0H17.898C8.013,0,0,8.014,0,17.898v196.883   c0,9.885,8.013,17.898,17.898,17.898h196.883c9.886,0,17.898-8.013,17.898-17.898V17.898C232.679,8.014,224.666,0,214.781,0z"
       id="path4" /></g><g
     id="g6" /><g
     id="g8" /><g
     id="g10" /><g
     id="g12" /><g
     id="g14" /><g
     id="g16" /><g
     id="g18" /><g
     id="g20" /><g
     id="g22" /><g
     id="g24" /><g
     id="g26" /><g
     id="g28" /><g
     id="g30" /><g
     id="g32" /><g
     id="g34" /><path
     style="fill:#ffffff"
     d="M 11.31984,230.91785 C 7.6430214,229.30689 2.2571496,223.30684 1.2466557,219.69597 0.83212528,218.2147 0.49296398,171.30498 0.49296398,115.45217 0.49296398,17.546699 0.5604265,13.765716 2.3724261,10.116372 3.4061303,8.0345061 6.0357352,5.1506668 8.2159921,3.7078407 l 3.9641049,-2.6233199 104.159403,0 104.15941,0 3.9641,2.6233199 c 2.18026,1.4428261 4.80986,4.3266654 5.84356,6.4085313 1.81235,3.650053 1.87947,7.446483 1.87947,106.321718 l 0,102.53651 -2.27088,3.96065 c -1.24897,2.17835 -3.87836,5.06219 -5.84306,6.40853 l -3.57219,2.44789 -103.10198,0.21507 c -83.705612,0.1746 -103.661865,-0.0303 -106.07809,-1.08889 z"
     id="path3368"
     inkscape:connector-curvature="0" /></svg>