<?xml version="1.0" encoding="iso-8859-1"?>
<!-- Generator: Adobe Illustrator 19.0.0, SVG Export Plug-In . SVG Version: 6.00 Build 0)  -->
<svg xmlns="http://www.w3.org/2000/svg" xmlns:xlink="http://www.w3.org/1999/xlink" version="1.1" id="Layer_1" x="0px" y="0px" viewBox="0 0 368 368" style="enable-background:new 0 0 368 368;" xml:space="preserve" width="512px" height="512px">
<g>
	<g>
		<g>
			<path d="M276,176h-84V92c0-4.4-3.6-8-8-8c-4.4,0-8,3.6-8,8v84H92c-4.4,0-8,3.6-8,8c0,4.4,3.6,8,8,8h84v84c0,4.4,3.6,8,8,8     c4.4,0,8-3.6,8-8v-84h84c4.4,0,8-3.6,8-8C284,179.6,280.4,176,276,176z" fill="#FFFFFF"/>
			<path d="M184,0C82.4,0,0,82.4,0,184s82.4,184,184,184s184-82.4,184-184S285.6,0,184,0z M184,352c-92.8,0-168-75.2-168-168     S91.2,16,184,16s168,75.2,168,168S276.8,352,184,352z" fill="#FFFFFF"/>
		</g>
	</g>
</g>
<g>
</g>
<g>
</g>
<g>
</g>
<g>
</g>
<g>
</g>
<g>
</g>
<g>
</g>
<g>
</g>
<g>
</g>
<g>
</g>
<g>
</g>
<g>
</g>
<g>
</g>
<g>
</g>
<g>
</g>
</svg>
