<?xml version="1.0" encoding="utf-8"?>
<!-- Generator: Adobe Illustrator 19.0.0, SVG Export Plug-In . SVG Version: 6.00 Build 0)  -->
<svg version="1.1" id="Layer_1" xmlns="http://www.w3.org/2000/svg" xmlns:xlink="http://www.w3.org/1999/xlink" x="0px" y="0px"
	 viewBox="0 0 512 512" style="enable-background:new 0 0 512 512;" xml:space="preserve">
<style type="text/css">
	.st0{fill:#FFFFFF;}
</style>
<g id="XMLID_2_">
	<path id="XMLID_4_" class="st0" d="M209.9,276l193.5,157.5c7.7,6.3,18.3,7.6,27.3,3.3c9-4.3,14.7-13.3,14.7-23.3V98.5
		c0-9.9-5.7-19-14.7-23.3c-3.5-1.7-7.3-2.5-11-2.5c-5.8,0-11.6,2-16.3,5.8L209.9,236c-6,4.9-9.5,12.2-9.5,20
		C200.4,263.7,203.9,271.1,209.9,276z"/>
	<path id="XMLID_3_" class="st0" d="M92.4,439.3h79.9c14.2,0,25.8-11.5,25.8-25.8V98.5c0-14.2-11.5-25.8-25.8-25.8H92.4
		c-14.2,0-25.8,11.5-25.8,25.8v315.1C66.6,427.7,78.1,439.3,92.4,439.3z"/>
</g>
</svg>
