<?xml version="1.0" encoding="utf-8"?>
<!-- Generator: Adobe Illustrator 19.0.0, SVG Export Plug-In . SVG Version: 6.00 Build 0)  -->
<svg version="1.1" id="Layer_1" xmlns="http://www.w3.org/2000/svg" xmlns:xlink="http://www.w3.org/1999/xlink" x="0px" y="0px"
	 viewBox="0 0 512 512" style="enable-background:new 0 0 512 512;" xml:space="preserve">
<style type="text/css">
	.st0{fill:#FFFFFF;}
</style>
<g id="XMLID_5_">
	<path id="XMLID_7_" class="st0" d="M267,276.5l198.9,157.4c7.9,6.2,18.6,7.4,27.6,3c9-4.4,14.7-13.5,14.7-23.5V98.6
		c0-10-5.7-19.1-14.7-23.5c-3.6-1.7-7.5-2.6-11.4-2.6c-5.8,0-11.5,1.9-16.2,5.6L267,235.5c-6.2,5-9.9,12.5-9.9,20.5
		S260.7,271.5,267,276.5z"/>
	<path id="XMLID_6_" class="st0" d="M13.7,276.5l198.9,157.4c7.8,6.2,18.6,7.4,27.6,3c9-4.4,14.7-13.5,14.7-23.5V98.6
		c0-10-5.7-19.1-14.7-23.5c-3.6-1.7-7.5-2.6-11.4-2.6c-5.8,0-11.5,1.9-16.2,5.6L13.7,235.5c-6.3,5-9.9,12.5-9.9,20.5
		S7.5,271.5,13.7,276.5z"/>
</g>
</svg>
