<?xml version="1.0" encoding="utf-8"?>
<!-- Generator: Adobe Illustrator 19.0.0, SVG Export Plug-In . SVG Version: 6.00 Build 0)  -->
<svg version="1.1" id="Layer_1" xmlns="http://www.w3.org/2000/svg" xmlns:xlink="http://www.w3.org/1999/xlink" x="0px" y="0px"
	 viewBox="0 0 512 512" style="enable-background:new 0 0 512 512;" xml:space="preserve">
<style type="text/css">
	.st0{fill:#FFFFFF;}
</style>
<g id="XMLID_2_" transform="translate(373.64165,7.9536623)">
	<path id="XMLID_3_" class="st0" d="M-373.6,411.8v-92.3h31.1h31.1v61.2v61.2h61.4h61.4v31.1V504h-92.6h-92.6V411.8z M-46.2,472.9
		v-31.1h61.2h61.2v-61.2v-61.2h31.1h31.1v92.3V504H46.1h-92.3L-46.2,472.9z M-213.5,309.5V275h11.7h11.7l0.1,22.9l0.1,22.9l22.9,0.1
		l22.9,0.1v11.4v11.4h-34.7h-34.7V309.5z M-90.7,332.6v-11.4l22.9-0.1l22.9-0.1l0.1-22.9l0.1-22.9h11.4h11.4v34.5v34.5h-34.5h-34.5
		L-90.7,332.6z M-213.5,186.9v-34.7h34.7h34.7v11.7v11.7h-23.1h-23.1v23.1v23.1h-11.7h-11.7L-213.5,186.9z M-44.7,198.7l-0.1-22.9
		l-22.9-0.1l-22.9-0.1v-11.7v-11.7h34.5h34.5v34.7v34.7h-11.4h-11.4L-44.7,198.7z M-373.6,84.6V-8h92.6h92.6v31.1v31.1H-250h-61.4
		v61.4v61.4h-31.1h-31.1V84.6z M76.1,115.7V54.3H14.9h-61.2V23.2V-8h92.3h92.3v92.6v92.6h-31.1H76.1L76.1,115.7z"/>
</g>
</svg>
