<?xml version="1.0" encoding="utf-8"?>
<!-- Generator: Adobe Illustrator 19.0.0, SVG Export Plug-In . SVG Version: 6.00 Build 0)  -->
<svg version="1.1" id="Layer_1" xmlns="http://www.w3.org/2000/svg" xmlns:xlink="http://www.w3.org/1999/xlink" x="0px" y="0px"
	 viewBox="0 0 512 512" style="enable-background:new 0 0 512 512;" xml:space="preserve">
<style type="text/css">
	.st0{fill:#FFFFFF;}
</style>
<path id="XMLID_18_" class="st0" d="M303.5,424.9c74.4,0,135.1-60.2,135.1-135.1s-60.7-134.6-135.1-134.6s-134.6,60.2-135.1,134.6
	C168.4,364.2,229.1,424.9,303.5,424.9z M303.5,192.1c54.4,0,98.2,43.8,98.2,98.2c0,53.8-43.8,97.6-98.2,97.6s-98.2-43.8-98.2-98.2
	l0,0C205.9,235.9,249.7,192.1,303.5,192.1L303.5,192.1z"/>
<path id="XMLID_15_" class="st0" d="M102.9,229.1c26.4,0,47.5-21.1,47.5-47.5s-21.1-47.5-47.5-47.5s-47.5,21.1-47.5,47.5
	S76.5,229.1,102.9,229.1z M102.9,171c5.8,0,10.6,4.8,10.6,10.6c0,5.8-4.8,10.6-10.6,10.6c-5.8,0-10.6-4.8-10.6-10.6
	C92.4,175.8,97.1,171,102.9,171z"/>
<path id="XMLID_10_" class="st0" d="M493.5,81.3h-60.7l-22.2-56c-2.6-6.9-9.5-11.6-17.4-11.6H202.7c-7.4,0-14.3,4.8-17.4,11.6
	l-21.6,56l0,0V56c0-10-8.4-18.5-18.5-18.5l0,0H60.7c-10,0-18.5,8.4-18.5,18.5v25.3H18.5C8.4,81.3,0,89.7,0,99.8v380
	c0,10,8.4,18.5,18.5,18.5l0,0h475.1c10,0,18.5-8.4,18.5-18.5v-380C512,89.7,503.6,81.3,493.5,81.3z M215.4,50.7h165.7l12.1,30.6
	h-190L215.4,50.7z M79.2,74.4h47.5v6.9H79.2V74.4z M475.1,461.3H36.9V118.2h438.1V461.3z"/>
</svg>
