<?xml version="1.0" encoding="UTF-8" standalone="no"?>
<svg
   xmlns:dc="http://purl.org/dc/elements/1.1/"
   xmlns:cc="http://creativecommons.org/ns#"
   xmlns:rdf="http://www.w3.org/1999/02/22-rdf-syntax-ns#"
   xmlns:svg="http://www.w3.org/2000/svg"
   xmlns="http://www.w3.org/2000/svg"
   xml:space="preserve"
   style="enable-background:new 0 0 444.819 444.819;"
   viewBox="0 0 444.819 444.819"
   height="512px"
   width="512px"
   y="0px"
   x="0px"
   id="Capa_1"
   version="1.1"><metadata
   id="metadata3375"><rdf:RDF><cc:Work
       rdf:about=""><dc:format>image/svg+xml</dc:format><dc:type
         rdf:resource="http://purl.org/dc/dcmitype/StillImage" /><dc:title></dc:title></cc:Work></rdf:RDF></metadata><defs
   id="defs3373" />
<g
   transform="matrix(0.56751758,0,0,0.59794787,96.187765,89.420648)"
   id="g3337">
	<path
   style="fill:#ffffff"
   id="path3339"
   d="M 433.968,278.657 248.387,92.79 c -7.419,-7.044 -16.08,-10.566 -25.977,-10.566 -10.088,0 -18.652,3.521 -25.697,10.566 L 10.848,278.657 C 3.615,285.887 0,294.549 0,304.637 c 0,10.28 3.619,18.843 10.848,25.693 l 21.411,21.413 c 6.854,7.23 15.42,10.852 25.697,10.852 10.278,0 18.842,-3.621 25.697,-10.852 L 222.41,213.271 361.168,351.74 c 6.848,7.228 15.413,10.852 25.7,10.852 10.082,0 18.747,-3.624 25.975,-10.852 l 21.409,-21.412 c 7.043,-7.043 10.567,-15.608 10.567,-25.693 0,-10.09 -3.614,-18.751 -10.851,-25.978 z" />
</g>
<g
   transform="matrix(0.67290299,0,0,0.66420781,96.187765,65.395125)"
   id="g3341">
</g>
<g
   transform="matrix(0.67290299,0,0,0.66420781,96.187765,65.395125)"
   id="g3343">
</g>
<g
   transform="matrix(0.67290299,0,0,0.66420781,96.187765,65.395125)"
   id="g3345">
</g>
<g
   transform="matrix(0.67290299,0,0,0.66420781,96.187765,65.395125)"
   id="g3347">
</g>
<g
   transform="matrix(0.67290299,0,0,0.66420781,96.187765,65.395125)"
   id="g3349">
</g>
<g
   transform="matrix(0.67290299,0,0,0.66420781,96.187765,65.395125)"
   id="g3351">
</g>
<g
   transform="matrix(0.67290299,0,0,0.66420781,96.187765,65.395125)"
   id="g3353">
</g>
<g
   transform="matrix(0.67290299,0,0,0.66420781,96.187765,65.395125)"
   id="g3355">
</g>
<g
   transform="matrix(0.67290299,0,0,0.66420781,96.187765,65.395125)"
   id="g3357">
</g>
<g
   transform="matrix(0.67290299,0,0,0.66420781,96.187765,65.395125)"
   id="g3359">
</g>
<g
   transform="matrix(0.67290299,0,0,0.66420781,96.187765,65.395125)"
   id="g3361">
</g>
<g
   transform="matrix(0.67290299,0,0,0.66420781,96.187765,65.395125)"
   id="g3363">
</g>
<g
   transform="matrix(0.67290299,0,0,0.66420781,96.187765,65.395125)"
   id="g3365">
</g>
<g
   transform="matrix(0.67290299,0,0,0.66420781,96.187765,65.395125)"
   id="g3367">
</g>
<g
   transform="matrix(0.67290299,0,0,0.66420781,96.187765,65.395125)"
   id="g3369">
</g>
</svg>