<?xml version="1.0" encoding="UTF-8" standalone="no"?>
<svg
   xmlns:dc="http://purl.org/dc/elements/1.1/"
   xmlns:cc="http://creativecommons.org/ns#"
   xmlns:rdf="http://www.w3.org/1999/02/22-rdf-syntax-ns#"
   xmlns:svg="http://www.w3.org/2000/svg"
   xmlns="http://www.w3.org/2000/svg"
   version="1.1"
   id="Capa_1"
   x="0px"
   y="0px"
   width="512px"
   height="512px"
   viewBox="0 0 444.819 444.819"
   style="enable-background:new 0 0 444.819 444.819;"
   xml:space="preserve"><metadata
   id="metadata3431"><rdf:RDF><cc:Work
       rdf:about=""><dc:format>image/svg+xml</dc:format><dc:type
         rdf:resource="http://purl.org/dc/dcmitype/StillImage" /><dc:title></dc:title></cc:Work></rdf:RDF></metadata><defs
   id="defs3429" />
<g
   id="g3393"
   transform="matrix(0.56751929,0,0,0.5979541,96.187602,89.41903)">
	<path
   d="M 434.252,114.203 412.843,92.787 c -7.419,-7.04 -16.084,-10.561 -25.975,-10.561 -10.095,0 -18.657,3.521 -25.7,10.561 L 222.41,231.549 83.653,92.791 C 76.611,85.751 68.047,82.23 57.956,82.23 48.06,82.23 39.397,85.751 31.977,92.791 L 10.849,114.207 C 3.615,121.436 0,130.099 0,140.188 c 0,10.277 3.619,18.842 10.848,25.693 l 185.864,185.865 c 6.855,7.23 15.416,10.848 25.697,10.848 10.088,0 18.75,-3.617 25.977,-10.848 L 434.251,165.881 c 7.043,-7.044 10.567,-15.608 10.567,-25.693 0.001,-9.901 -3.523,-18.559 -10.566,-25.985 z"
   id="path3395"
   style="fill:#ffffff" />
</g>
<g
   id="g3397"
   transform="matrix(0.56751929,0,0,0.5979541,96.187602,89.41903)">
</g>
<g
   id="g3399"
   transform="matrix(0.56751929,0,0,0.5979541,96.187602,89.41903)">
</g>
<g
   id="g3401"
   transform="matrix(0.56751929,0,0,0.5979541,96.187602,89.41903)">
</g>
<g
   id="g3403"
   transform="matrix(0.56751929,0,0,0.5979541,96.187602,89.41903)">
</g>
<g
   id="g3405"
   transform="matrix(0.56751929,0,0,0.5979541,96.187602,89.41903)">
</g>
<g
   id="g3407"
   transform="matrix(0.56751929,0,0,0.5979541,96.187602,89.41903)">
</g>
<g
   id="g3409"
   transform="matrix(0.56751929,0,0,0.5979541,96.187602,89.41903)">
</g>
<g
   id="g3411"
   transform="matrix(0.56751929,0,0,0.5979541,96.187602,89.41903)">
</g>
<g
   id="g3413"
   transform="matrix(0.56751929,0,0,0.5979541,96.187602,89.41903)">
</g>
<g
   id="g3415"
   transform="matrix(0.56751929,0,0,0.5979541,96.187602,89.41903)">
</g>
<g
   id="g3417"
   transform="matrix(0.56751929,0,0,0.5979541,96.187602,89.41903)">
</g>
<g
   id="g3419"
   transform="matrix(0.56751929,0,0,0.5979541,96.187602,89.41903)">
</g>
<g
   id="g3421"
   transform="matrix(0.56751929,0,0,0.5979541,96.187602,89.41903)">
</g>
<g
   id="g3423"
   transform="matrix(0.56751929,0,0,0.5979541,96.187602,89.41903)">
</g>
<g
   id="g3425"
   transform="matrix(0.56751929,0,0,0.5979541,96.187602,89.41903)">
</g>
</svg>