<?xml version="1.0" encoding="utf-8"?>
<!-- Generator: Adobe Illustrator 19.0.0, SVG Export Plug-In . SVG Version: 6.00 Build 0)  -->
<svg version="1.1" id="Layer_1" xmlns="http://www.w3.org/2000/svg" xmlns:xlink="http://www.w3.org/1999/xlink" x="0px" y="0px"
	 viewBox="0 0 512 512" style="enable-background:new 0 0 512 512;" xml:space="preserve">
<style type="text/css">
	.st0{fill:#FFFFFF;}
</style>
<path class="st0" d="M377.4,71.6l61.4,61.4c6.1,6.1,6.1,16.1,0,22.3l-99.7,99.7l99.4,99.4c6.1,6.1,6.1,16.1,0,22.2l-61.4,61.4
	c-6.1,6.1-16.1,6.1-22.2,0l-99.4-99.4l-99,99c-6.1,6.1-16.1,6.1-22.2,0l-61.4-61.4c-6.1-6.1-6.1-16.1,0-22.2l99-99l-99.4-99.4
	c-6.1-6.1-6.1-16.1,0-22.2L134,72c6.1-6.1,16.1-6.1,22.2,0l99.4,99.4l99.7-99.7C361.3,65.5,371.3,65.5,377.4,71.6L377.4,71.6z"/>
</svg>
