<?xml version="1.0" encoding="utf-8"?>
<!-- Generator: Adobe Illustrator 19.0.0, SVG Export Plug-In . SVG Version: 6.00 Build 0)  -->
<svg version="1.1" id="Layer_1" xmlns="http://www.w3.org/2000/svg" xmlns:xlink="http://www.w3.org/1999/xlink" x="0px" y="0px"
	 viewBox="0 0 512 512" style="enable-background:new 0 0 512 512;" xml:space="preserve">
<style type="text/css">
	.st0{fill:#FFFFFF;stroke:#FFFFFF;stroke-width:19;stroke-miterlimit:10;}
</style>
<g id="XMLID_5_">
	<path id="XMLID_7_" class="st0" d="M256,13.7C122.4,13.7,13.7,122.4,13.7,256S122.4,498.3,256,498.3S498.3,389.6,498.3,256
		S389.6,13.7,256,13.7z M256,479.6C132.7,479.6,32.4,379.3,32.4,256S132.7,32.4,256,32.4S479.6,132.7,479.6,256
		S379.3,479.6,256,479.6z"/>
	<path id="XMLID_1_" class="st0" d="M346.5,165.5c-3.6-3.6-9.5-3.6-13.2,0L256,242.8l-77.3-77.3c-3.6-3.6-9.5-3.6-13.2,0
		c-3.6,3.6-3.6,9.5,0,13.2l77.3,77.3l-77.3,77.3c-3.6,3.6-3.6,9.5,0,13.2c1.8,1.8,4.2,2.7,6.6,2.7c2.4,0,4.8-0.9,6.6-2.7l77.3-77.3
		l77.3,77.3c1.8,1.8,4.2,2.7,6.6,2.7c2.4,0,4.8-0.9,6.6-2.7c3.6-3.6,3.6-9.5,0-13.2L269.2,256l77.3-77.3
		C350.1,175.1,350.1,169.2,346.5,165.5z"/>
</g>
</svg>
