<?xml version="1.0" encoding="utf-8"?>
<!-- Generator: Adobe Illustrator 19.0.0, SVG Export Plug-In . SVG Version: 6.00 Build 0)  -->
<svg version="1.1" id="Layer_1" xmlns="http://www.w3.org/2000/svg" xmlns:xlink="http://www.w3.org/1999/xlink" x="0px" y="0px"
	 viewBox="0 0 512 512" style="enable-background:new 0 0 512 512;" xml:space="preserve">
<style type="text/css">
	.st0{opacity:0.5;}
	.st1{stroke:#FFFFFF;stroke-width:19;stroke-miterlimit:10;}
</style>
<g id="XMLID_5_" class="st0">
	<path id="XMLID_7_" class="st1" d="M256,9C119.8,9,9,119.8,9,256s110.8,247,247,247s247-110.8,247-247S392.2,9,256,9z M256,483.9
		C130.3,483.9,28.1,381.7,28.1,256S130.3,28.1,256,28.1S483.9,130.3,483.9,256S381.7,483.9,256,483.9z"/>
	<path id="XMLID_1_" class="st1" d="M348.2,163.8c-3.7-3.7-9.7-3.7-13.5,0L256,242.5l-78.8-78.8c-3.7-3.7-9.7-3.7-13.5,0
		c-3.7,3.7-3.7,9.7,0,13.5l78.8,78.8l-78.8,78.8c-3.7,3.7-3.7,9.7,0,13.5c1.8,1.8,4.3,2.8,6.7,2.8c2.4,0,4.9-0.9,6.7-2.8l78.8-78.8
		l78.8,78.8c1.8,1.8,4.3,2.8,6.7,2.8s4.9-0.9,6.7-2.8c3.7-3.7,3.7-9.7,0-13.5L269.5,256l78.8-78.8
		C351.9,173.5,351.9,167.5,348.2,163.8z"/>
</g>
</svg>
