<?xml version="1.0" encoding="iso-8859-1"?>
<!-- Generator: Adobe Illustrator 18.1.1, SVG Export Plug-In . SVG Version: 6.00 Build 0)  -->
<svg xmlns="http://www.w3.org/2000/svg" xmlns:xlink="http://www.w3.org/1999/xlink" version="1.1" id="Capa_1" x="0px" y="0px" viewBox="0 0 20.465 20.465" style="enable-background:new 0 0 20.465 20.465;" xml:space="preserve" width="512px" height="512px">
<g>
	<g id="c91_rewind">
		<path d="M9.112,1.372c0.139-0.069,0.303-0.049,0.424,0.045l10.776,8.501c0.094,0.076,0.153,0.191,0.153,0.312    s-0.06,0.24-0.153,0.314L9.536,19.047c-0.071,0.056-0.163,0.088-0.248,0.088l-0.176-0.042c-0.138-0.064-0.226-0.204-0.226-0.359    V1.732C8.887,1.58,8.975,1.437,9.112,1.372z" fill="#FFFFFF"/>
		<path d="M0.225,1.372C0.364,1.303,0.529,1.323,0.65,1.417l10.776,8.501c0.093,0.076,0.152,0.191,0.152,0.312    s-0.06,0.24-0.152,0.314L0.649,19.047c-0.073,0.056-0.163,0.088-0.249,0.088l-0.176-0.042C0.088,19.028,0,18.889,0,18.733V1.732    C0,1.58,0.088,1.437,0.225,1.372z" fill="#FFFFFF"/>
	</g>
	<g id="Capa_1_90_">
	</g>
</g>
<g>
</g>
<g>
</g>
<g>
</g>
<g>
</g>
<g>
</g>
<g>
</g>
<g>
</g>
<g>
</g>
<g>
</g>
<g>
</g>
<g>
</g>
<g>
</g>
<g>
</g>
<g>
</g>
<g>
</g>
</svg>
