<?xml version="1.0" encoding="iso-8859-1"?>
<!-- Generator: Adobe Illustrator 16.0.0, SVG Export Plug-In . SVG Version: 6.00 Build 0)  -->
<!DOCTYPE svg PUBLIC "-//W3C//DTD SVG 1.1//EN" "http://www.w3.org/Graphics/SVG/1.1/DTD/svg11.dtd">
<svg xmlns="http://www.w3.org/2000/svg" xmlns:xlink="http://www.w3.org/1999/xlink" version="1.1" id="Capa_1" x="0px" y="0px" width="512px" height="512px" viewBox="0 0 45 45" style="enable-background:new 0 0 45 45;" xml:space="preserve">
<g>
	<path d="M44.449,16.561c-0.475-0.591-1.191-0.936-1.949-0.936H40c0-1.381-1.119-2.5-2.5-2.5H35v-2.5c0-1.381-1.119-2.5-2.5-2.5   h-1.25v-5c0-0.69-0.561-1.25-1.25-1.25H5c-0.691,0-1.25,0.56-1.25,1.25v5H2.5c-1.381,0-2.5,1.119-2.5,2.5v30   c0,1.381,1.119,2.5,2.5,2.5h5h25h5c1.172,0,2.188-0.814,2.439-1.958l5-22.5C45.105,17.927,44.924,17.152,44.449,16.561z    M3.75,40.625H2.5v-30h1.25V40.625z M30,13.125c-1.381,0-2.5,1.119-2.5,2.5h-15c-1.172,0-2.188,0.814-2.441,1.958   c0,0-5.057,22.862-5.057,23.042H5v-37.5h25V13.125z M32.5,13.125h-1.25v-2.5h1.25V13.125z M24.833,8.667H9.917   c-0.69,0-1.25-0.56-1.25-1.25s0.56-1.25,1.25-1.25h14.916c0.69,0,1.25,0.56,1.25,1.25S25.523,8.667,24.833,8.667z M24.833,13.75   H9.917c-0.69,0-1.25-0.56-1.25-1.25s0.56-1.25,1.25-1.25h14.916c0.69,0,1.25,0.56,1.25,1.25S25.523,13.75,24.833,13.75z" fill="#FFFFFF"/>
</g>
<g>
</g>
<g>
</g>
<g>
</g>
<g>
</g>
<g>
</g>
<g>
</g>
<g>
</g>
<g>
</g>
<g>
</g>
<g>
</g>
<g>
</g>
<g>
</g>
<g>
</g>
<g>
</g>
<g>
</g>
</svg>
