<?xml version="1.0" encoding="iso-8859-1"?>
<!-- Generator: Adobe Illustrator 16.0.0, SVG Export Plug-In . SVG Version: 6.00 Build 0)  -->
<!DOCTYPE svg PUBLIC "-//W3C//DTD SVG 1.1//EN" "http://www.w3.org/Graphics/SVG/1.1/DTD/svg11.dtd">
<svg xmlns="http://www.w3.org/2000/svg" xmlns:xlink="http://www.w3.org/1999/xlink" version="1.1" id="Capa_1" x="0px" y="0px" width="512px" height="512px" viewBox="0 0 45 45" style="enable-background:new 0 0 45 45;" xml:space="preserve">
<g>
	<path d="M34.854,20.576c0,0.656-0.533,1.19-1.188,1.19c-0.656,0-1.189-0.534-1.189-1.19c0-0.656,0.533-1.189,1.189-1.189   C34.32,19.387,34.854,19.92,34.854,20.576z M44.939,15.543l-5,22.5C39.686,39.186,38.671,40,37.5,40h-5h-25h-5   C1.119,40,0,38.881,0,37.5v-30C0,6.119,1.119,5,2.5,5h30C33.881,5,35,6.119,35,7.5H2.5v30h2.502c0-0.182,5.059-23.042,5.059-23.042   c0.253-1.144,1.268-1.958,2.439-1.958h15c0-1.381,1.119-2.5,2.5-2.5h7.5c1.381,0,2.5,1.119,2.5,2.5h2.5   c0.758,0,1.477,0.344,1.95,0.936C44.925,14.028,45.105,14.803,44.939,15.543z M39.209,20.576c0-0.616-0.498-1.116-1.115-1.116   h-1.21c-0.045-0.128-0.094-0.252-0.153-0.373l0.855-0.854c0.436-0.436,0.436-1.142,0-1.578c-0.438-0.438-1.143-0.438-1.578,0   l-0.854,0.854c-0.122-0.059-0.245-0.108-0.373-0.153v-1.21c0-0.616-0.498-1.116-1.115-1.116s-1.116,0.5-1.116,1.116v1.21   c-0.128,0.044-0.252,0.094-0.373,0.153l-0.854-0.854c-0.436-0.438-1.143-0.438-1.577,0c-0.437,0.436-0.437,1.142,0,1.578   l0.854,0.854c-0.06,0.121-0.106,0.245-0.152,0.373h-1.209c-0.616,0-1.115,0.5-1.115,1.116c0,0.617,0.499,1.116,1.115,1.116h1.209   c0.046,0.128,0.095,0.252,0.152,0.373l-0.854,0.854c-0.437,0.437-0.437,1.142,0,1.578c0.218,0.217,0.504,0.327,0.789,0.327   c0.284,0,0.569-0.109,0.789-0.327l0.854-0.854c0.121,0.061,0.245,0.108,0.373,0.152v1.21c0,0.616,0.499,1.116,1.116,1.116   s1.115-0.5,1.115-1.116v-1.21c0.128-0.043,0.251-0.093,0.373-0.152l0.854,0.854c0.217,0.218,0.504,0.327,0.788,0.327   c0.286,0,0.571-0.109,0.79-0.327c0.436-0.437,0.436-1.144,0-1.578l-0.855-0.854c0.062-0.121,0.108-0.245,0.153-0.373h1.21   C38.711,21.692,39.209,21.193,39.209,20.576z" fill="#FFFFFF"/>
</g>
<g>
</g>
<g>
</g>
<g>
</g>
<g>
</g>
<g>
</g>
<g>
</g>
<g>
</g>
<g>
</g>
<g>
</g>
<g>
</g>
<g>
</g>
<g>
</g>
<g>
</g>
<g>
</g>
<g>
</g>
</svg>
