<?xml version="1.0" encoding="utf-8"?>
<!-- Generator: Adobe Illustrator 19.0.0, SVG Export Plug-In . SVG Version: 6.00 Build 0)  -->
<svg version="1.1" id="Layer_1" xmlns="http://www.w3.org/2000/svg" xmlns:xlink="http://www.w3.org/1999/xlink" x="0px" y="0px"
	 viewBox="0 0 396 321.8" style="enable-background:new 0 0 396 321.8;" xml:space="preserve">
<style type="text/css">
	.st0{fill:#FFFFFF;}
</style>
<g id="XMLID_2_" transform="translate(0,-952.36218)">
	<path id="XMLID_3_" class="st0" d="M396,995.4c0-4.7-4.3-9-9-9H173.1l-22.5-24.2c-1.7-1.8-4.1-2.8-6.6-2.8H9c-4.5-0.1-9,4.4-9,9
		v288c0,4.7,4.3,9,9,9h378c4.7,0,9-4.3,9-9 M18,977.4h122.1l55.8,60c1.7,1.8,4.1,2.9,6.6,3H378v207H18V977.4z M189.7,1004.4H378v18
		H206.4L189.7,1004.4z"/>
</g>
</svg>
