<?xml version="1.0" encoding="iso-8859-1"?>
<!-- Generator: Adobe Illustrator 16.0.0, SVG Export Plug-In . SVG Version: 6.00 Build 0)  -->
<!DOCTYPE svg PUBLIC "-//W3C//DTD SVG 1.1//EN" "http://www.w3.org/Graphics/SVG/1.1/DTD/svg11.dtd">
<svg xmlns="http://www.w3.org/2000/svg" xmlns:xlink="http://www.w3.org/1999/xlink" version="1.1" id="Capa_1" x="0px" y="0px" width="512px" height="512px" viewBox="0 0 45 45" style="enable-background:new 0 0 45 45;" xml:space="preserve">
<g>
	<path d="M42.5,0h-40C1.119,0,0,1.119,0,2.5v40C0,43.881,1.119,45,2.5,45h40c1.381,0,2.5-1.119,2.5-2.5v-40   C45,1.119,43.881,0,42.5,0z M42.5,42.5h-40V4.927c0,1.381,1.119,2.5,2.5,2.5h7.499c1.381,0,2.5-1.119,2.5-2.5H42.5V42.5z    M24.299,27.473c0,0.991-0.806,1.799-1.799,1.799c-0.991,0-1.799-0.809-1.799-1.799c0-0.992,0.808-1.8,1.799-1.8   C23.493,25.672,24.299,26.479,24.299,27.473z M40.062,15.76v19.813c0,2.424-1.965,4.391-4.391,4.391H9.328   c-2.426,0-4.391-1.966-4.391-4.391V19.108c0-2.424,1.965-4.39,4.391-4.39h15.436c0.469-1.921,2.2-3.348,4.269-3.348h6.642   C38.098,11.37,40.062,13.336,40.062,15.76z M30.889,27.473c0-0.933-0.755-1.688-1.688-1.688h-1.832   c-0.064-0.192-0.141-0.382-0.23-0.563l1.295-1.291c0.657-0.658,0.657-1.729,0-2.388c-0.66-0.66-1.729-0.66-2.389,0l-1.293,1.292   c-0.186-0.088-0.369-0.165-0.564-0.23v-1.831c0-0.933-0.754-1.688-1.688-1.688c-0.936,0-1.688,0.755-1.688,1.688v1.831   c-0.194,0.066-0.385,0.143-0.564,0.23l-1.291-1.292c-0.659-0.66-1.729-0.66-2.391,0c-0.657,0.659-0.657,1.729,0,2.39l1.293,1.289   c-0.088,0.184-0.161,0.372-0.229,0.563H15.8c-0.933,0-1.689,0.757-1.689,1.688c0,0.933,0.758,1.688,1.689,1.688h1.83   c0.067,0.192,0.141,0.382,0.229,0.563l-1.293,1.291c-0.657,0.658-0.657,1.729,0,2.387c0.33,0.33,0.765,0.496,1.195,0.496   c0.434,0,0.863-0.166,1.194-0.496l1.291-1.293c0.181,0.093,0.37,0.166,0.563,0.232v1.831c0,0.933,0.754,1.688,1.688,1.688   c0.933,0,1.688-0.758,1.688-1.688v-1.832c0.193-0.065,0.379-0.14,0.562-0.231l1.293,1.293c0.329,0.33,0.761,0.496,1.191,0.496   c0.432,0,0.863-0.166,1.195-0.496c0.657-0.658,0.657-1.728,0-2.387l-1.295-1.291c0.09-0.183,0.166-0.371,0.23-0.562h1.832   C30.134,29.159,30.889,28.404,30.889,27.473z" fill="#FFFFFF"/>
</g>
<g>
</g>
<g>
</g>
<g>
</g>
<g>
</g>
<g>
</g>
<g>
</g>
<g>
</g>
<g>
</g>
<g>
</g>
<g>
</g>
<g>
</g>
<g>
</g>
<g>
</g>
<g>
</g>
<g>
</g>
</svg>
