<?xml version="1.0" encoding="utf-8"?>
<!-- Generator: Adobe Illustrator 19.0.0, SVG Export Plug-In . SVG Version: 6.00 Build 0)  -->
<svg version="1.1" id="Layer_1" xmlns="http://www.w3.org/2000/svg" xmlns:xlink="http://www.w3.org/1999/xlink" x="0px" y="0px"
	 viewBox="-127 129 256 256" style="enable-background:new -127 129 256 256;" xml:space="preserve">
<style type="text/css">
	.st0{fill:#3498DB;}
</style>
<g id="XMLID_1_">
	<path id="XMLID_5_" class="st0" d="M-34.6,129h-55.8c-10,0-18,8.1-18,18V367c0,10,8.1,18,18,18h55.8c9.9,0,18-8.1,18-18V147
		C-16.6,137.1-24.7,129-34.6,129z"/>
	<path id="XMLID_4_" class="st0" d="M92.4,129H36.6c-10,0-18,8.1-18,18V367c0,10,8.1,18,18,18h55.8c10,0,18-8.1,18-18V147
		C110.4,137.1,102.3,129,92.4,129z"/>
</g>
</svg>
