<?xml version="1.0" encoding="utf-8"?>
<!-- Generator: Adobe Illustrator 19.0.0, SVG Export Plug-In . SVG Version: 6.00 Build 0)  -->
<svg version="1.1" id="Layer_1" xmlns="http://www.w3.org/2000/svg" xmlns:xlink="http://www.w3.org/1999/xlink" x="0px" y="0px"
	 viewBox="0 0 396 321.8" style="enable-background:new 0 0 396 321.8;" xml:space="preserve">
<style type="text/css">
	.st0{fill:#FFFFFF;}
	.st1{fill:#FFFFFF;stroke:#FFFFFF;stroke-width:7;stroke-miterlimit:10;}
</style>
<g id="XMLID_2_" transform="translate(0,-952.36218)">
	<path id="XMLID_3_" class="st0" d="M77.3,952.4c-3.7,0-7.3,3.7-7.3,7.3v307.1c0,3.8,3.5,7.3,7.3,7.3h234c3.8,0,7.3-3.5,7.3-7.3
		v-226.7c0-1.9-0.8-3.9-2.2-5.3L236,954.4c-1.4-1.3-3.2-2.1-5.1-2.1L77.3,952.4L77.3,952.4z M84.6,967h138.9v73.1
		c0,4,3.3,7.3,7.3,7.3H304v212.1H84.6L84.6,967L84.6,967z M238.2,977.3l55.5,55.5h-55.5C238.2,1032.8,238.2,977.3,238.2,977.3z"/>
</g>
<path id="XMLID_27_" class="st1" d="M262.4,183.4l-7-17c-0.1-0.2-0.3-0.5-0.5-0.6l-40.8-31.6c-0.2-0.2-0.5-0.3-0.7-0.3l-18.2-2.5
	c-0.3,0-0.5,0-0.8,0.1l-47.8,19.6c-0.2,0.1-0.5,0.3-0.6,0.5L134.8,166c-0.2,0.2-0.3,0.5-0.3,0.7l-7,51.1c0,0.3,0,0.5,0.1,0.8l7,17
	c0.1,0.2,0.3,0.5,0.5,0.6l40.8,31.6c0.2,0.2,0.5,0.3,0.7,0.3l18.2,2.5h0.2c0.2,0,0.4,0,0.6-0.1l47.8-19.6c0.2-0.1,0.5-0.3,0.6-0.5
	l11.3-14.6c0.2-0.2,0.3-0.5,0.3-0.7l7-51.1C262.5,183.9,262.5,183.7,262.4,183.4z M252.3,167.5l-10.6,38.3l-45.6-6.2l-17.5-42.6
	l34.5-19.9L252.3,167.5z M167.5,239l28.2-36.4l45.6,6.2v39.8l-45.9,18.8L167.5,239z M148.2,153.7l47-19.3l13.5,1.8L176.2,155
	l-36.4,9.4L148.2,153.7z M137.3,168.2l38.5-10l17.4,42.6l-28.2,36.4l-34.5-19.9L137.3,168.2z M137.2,234.2l-5.2-12.6l32.5,18.8
	l26.3,26.7l-13.5-1.8L137.2,234.2z M252.6,234.5l-8.3,10.7v-37.5l10-36.1l5.1,12.6L252.6,234.5z"/>
</svg>
