<?xml version="1.0" encoding="UTF-8" standalone="no"?>
<svg
   xmlns:dc="http://purl.org/dc/elements/1.1/"
   xmlns:cc="http://creativecommons.org/ns#"
   xmlns:rdf="http://www.w3.org/1999/02/22-rdf-syntax-ns#"
   xmlns:svg="http://www.w3.org/2000/svg"
   xmlns="http://www.w3.org/2000/svg"
   xmlns:sodipodi="http://sodipodi.sourceforge.net/DTD/sodipodi-0.dtd"
   xmlns:inkscape="http://www.inkscape.org/namespaces/inkscape"
   height="24"
   version="1.1"
   width="24"
   id="svg3727"
   sodipodi:docname="ic_folder.svg"
   inkscape:version="0.92.2 (5c3e80d, 2017-08-06)">
  <metadata
     id="metadata3733">
    <rdf:RDF>
      <cc:Work
         rdf:about="">
        <dc:format>image/svg+xml</dc:format>
        <dc:type
           rdf:resource="http://purl.org/dc/dcmitype/StillImage" />
        <dc:title></dc:title>
      </cc:Work>
    </rdf:RDF>
  </metadata>
  <defs
     id="defs3731" />
  <sodipodi:namedview
     pagecolor="#ffffff"
     bordercolor="#666666"
     borderopacity="1"
     objecttolerance="10"
     gridtolerance="10"
     guidetolerance="10"
     inkscape:pageopacity="0"
     inkscape:pageshadow="2"
     inkscape:window-width="3840"
     inkscape:window-height="2066"
     id="namedview3729"
     showgrid="false"
     inkscape:zoom="76.791667"
     inkscape:cx="12"
     inkscape:cy="12"
     inkscape:window-x="1789"
     inkscape:window-y="-11"
     inkscape:window-maximized="1"
     inkscape:current-layer="svg3727" />
  <g
     transform="matrix(0.65599565,0,0,0.65599565,4.0499186,-671.2586)"
     id="g3725">
    <path
       d="m 2,1033.4 c -1.1046,0 -2,0.9 -2,2 v 14 c 0,1.1 0.89543,2 2,2 h 20 c 1.105,0 2,-0.9 2,-2 v -14 c 0,-1.1 -0.895,-2 -2,-2 z"
       id="path3717"
       inkscape:connector-curvature="0"
       style="fill:#2980b9" />
    <path
       d="m 3,1029.4 c -1.1046,0 -2,0.9 -2,2 v 14 c 0,1.1 0.8954,2 2,2 h 11 5 2 c 1.105,0 2,-0.9 2,-2 v -9 -3 c 0,-1.1 -0.895,-2 -2,-2 h -2 -5 -1 l -3,-2 z"
       id="path3719"
       inkscape:connector-curvature="0"
       style="fill:#2980b9" />
    <path
       d="m 23,1042.4 v -8 c 0,-1.1 -0.895,-2 -2,-2 H 10 5 3 c -1.1046,0 -2,0.9 -2,2 v 8 z"
       id="path3721"
       inkscape:connector-curvature="0"
       style="fill:#bdc3c7" />
    <path
       d="m 2,1033.4 c -1.1046,0 -2,0.9 -2,2 v 6 1 6 c 0,1.1 0.89543,2 2,2 h 20 c 1.105,0 2,-0.9 2,-2 v -6 -1 -6 c 0,-1.1 -0.895,-2 -2,-2 z"
       id="path3723"
       inkscape:connector-curvature="0"
       style="fill:#3498db" />
  </g>
</svg>
