<?xml version="1.0" encoding="iso-8859-1"?>
<!-- Generator: Adobe Illustrator 18.1.1, SVG Export Plug-In . SVG Version: 6.00 Build 0)  -->
<svg xmlns="http://www.w3.org/2000/svg" xmlns:xlink="http://www.w3.org/1999/xlink" version="1.1" id="Capa_1" x="0px" y="0px" viewBox="0 0 22.006 22.006" style="enable-background:new 0 0 22.006 22.006;" xml:space="preserve" width="512px" height="512px">
<g>
	<g>
		<path d="M4.63,6.045C5.024,6.438,5.657,6.444,6.051,6.05c0.39-0.39,0.393-1.021-0.007-1.421l-1.4-1.4    c-0.395-0.394-1.028-0.4-1.421-0.006C2.833,3.614,2.83,4.244,3.23,4.644L4.63,6.045z" fill="#FFFFFF"/>
		<circle cx="11.003" cy="11" r="6" fill="#FFFFFF"/>
		<path d="M4,11.003c0-0.552-0.444-1-1.01-1H1.009c-0.557,0-1.009,0.444-1.009,1c0,0.553,0.444,1,1.009,1    H2.99C3.548,12.003,4,11.56,4,11.003z" fill="#FFFFFF"/>
		<path d="M20.997,10.003h-1.98c-0.559,0-1.011,0.444-1.011,1c0,0.553,0.445,1,1.011,1h1.98    c0.557,0,1.009-0.443,1.009-1C22.006,10.451,21.562,10.003,20.997,10.003z" fill="#FFFFFF"/>
		<path d="M4.629,15.962l-1.4,1.4c-0.394,0.395-0.4,1.029-0.007,1.421c0.391,0.389,1.021,0.392,1.421-0.007    l1.4-1.4c0.395-0.395,0.401-1.027,0.007-1.421C5.659,15.565,5.029,15.562,4.629,15.962z" fill="#FFFFFF"/>
		<path d="M11.003,4c0.553,0,1-0.444,1-1.01V1.01c0-0.558-0.443-1.01-1-1.01c-0.553,0-1,0.444-1,1.01v1.98    C10.003,3.548,10.447,4,11.003,4z" fill="#FFFFFF"/>
		<path d="M11.003,18.006c-0.553,0-1,0.445-1,1.011v1.98c0,0.559,0.444,1.009,1,1.009    c0.553,0,1-0.442,1-1.009v-1.98C12.003,18.458,11.56,18.006,11.003,18.006z" fill="#FFFFFF"/>
		<path d="M17.376,6.045l1.4-1.401c0.395-0.395,0.4-1.027,0.007-1.421c-0.392-0.39-1.021-0.393-1.421,0.007    l-1.4,1.4c-0.395,0.394-0.4,1.028-0.007,1.421C16.347,6.441,16.976,6.444,17.376,6.045z" fill="#FFFFFF"/>
		<path d="M17.376,15.962c-0.395-0.395-1.027-0.4-1.421-0.007c-0.39,0.392-0.394,1.021,0.007,1.421l1.4,1.4    c0.395,0.395,1.027,0.4,1.421,0.007c0.389-0.39,0.392-1.021-0.007-1.421L17.376,15.962z" fill="#FFFFFF"/>
	</g>
</g>
<g>
</g>
<g>
</g>
<g>
</g>
<g>
</g>
<g>
</g>
<g>
</g>
<g>
</g>
<g>
</g>
<g>
</g>
<g>
</g>
<g>
</g>
<g>
</g>
<g>
</g>
<g>
</g>
<g>
</g>
</svg>
