<?xml version="1.0" encoding="iso-8859-1"?>
<!-- Generator: Adobe Illustrator 16.0.0, SVG Export Plug-In . SVG Version: 6.00 Build 0)  -->
<!DOCTYPE svg PUBLIC "-//W3C//DTD SVG 1.1//EN" "http://www.w3.org/Graphics/SVG/1.1/DTD/svg11.dtd">
<svg xmlns="http://www.w3.org/2000/svg" xmlns:xlink="http://www.w3.org/1999/xlink" version="1.1" id="Capa_1" x="0px" y="0px" width="512px" height="512px" viewBox="0 0 45 45" style="enable-background:new 0 0 45 45;" xml:space="preserve">
<g>
	<path d="M44.45,13.436c-0.474-0.591-1.192-0.936-1.95-0.936H40c0-1.381-1.119-2.5-2.5-2.5H35V7.5C35,6.119,33.881,5,32.5,5h-30   C1.119,5,0,6.119,0,7.5v30C0,38.881,1.119,40,2.5,40h5h25h5c1.172,0,2.188-0.814,2.439-1.958l5-22.5   C45.105,14.802,44.925,14.027,44.45,13.436z M2.5,7.5h30V10H30c-1.381,0-2.5,1.119-2.5,2.5h-15c-1.172,0-2.186,0.814-2.44,1.958   c0,0-5.058,22.862-5.058,23.042H2.5V7.5L2.5,7.5z" fill="#FFFFFF"/>
</g>
<g>
</g>
<g>
</g>
<g>
</g>
<g>
</g>
<g>
</g>
<g>
</g>
<g>
</g>
<g>
</g>
<g>
</g>
<g>
</g>
<g>
</g>
<g>
</g>
<g>
</g>
<g>
</g>
<g>
</g>
</svg>
