<?xml version="1.0" encoding="iso-8859-1"?>
<!-- Generator: Adobe Illustrator 16.0.0, SVG Export Plug-In . SVG Version: 6.00 Build 0)  -->
<!DOCTYPE svg PUBLIC "-//W3C//DTD SVG 1.1//EN" "http://www.w3.org/Graphics/SVG/1.1/DTD/svg11.dtd">
<svg xmlns="http://www.w3.org/2000/svg" xmlns:xlink="http://www.w3.org/1999/xlink" version="1.1" id="Capa_1" x="0px" y="0px" width="512px" height="512px" viewBox="0 0 342.694 342.694" style="enable-background:new 0 0 342.694 342.694;" xml:space="preserve">
<g>
	<path d="M210.835,48.288h-70.271c-3.075,0-5.563,2.486-5.563,5.561v61.231H68.2c-3.075,0-3.918,1.861-1.876,4.167l105.336,118.985   c2.042,2.306,5.351,2.318,7.392,0.012L285.06,119.24c2.042-2.306,1.213-4.161-1.861-4.161h-66.791V53.848   C216.407,50.78,213.909,48.288,210.835,48.288z" fill="#FFFFFF"/>
	<path d="M318.759,57.733h-44.363c-13.211,0-23.936,9.376-23.936,20.944c0,11.565,0,20.942,0,20.942h50.345v152.891H41.893V99.626   h59.036V78.684c0-11.568-10.719-20.944-23.932-20.944H23.938C10.725,57.739,0,68.458,0,81.677v188.788   c0,13.223,10.719,23.941,23.938,23.941h294.82c13.217,0,23.936-10.713,23.936-23.941V81.671   C342.694,68.458,331.981,57.733,318.759,57.733z" fill="#FFFFFF"/>
</g>
<g>
</g>
<g>
</g>
<g>
</g>
<g>
</g>
<g>
</g>
<g>
</g>
<g>
</g>
<g>
</g>
<g>
</g>
<g>
</g>
<g>
</g>
<g>
</g>
<g>
</g>
<g>
</g>
<g>
</g>
</svg>
