<?xml version="1.0" encoding="utf-8"?>
<!-- Generator: Adobe Illustrator 19.0.0, SVG Export Plug-In . SVG Version: 6.00 Build 0)  -->
<svg version="1.1" id="Layer_1" xmlns="http://www.w3.org/2000/svg" xmlns:xlink="http://www.w3.org/1999/xlink" x="0px" y="0px"
	 viewBox="0 0 256 256" style="enable-background:new 0 0 256 256;" xml:space="preserve">
<style type="text/css">
	.st0{fill:#3498DB;}
</style>
<g>
	<path class="st0" d="M92.5,0.4H36.8c-9.9,0-18,8-18,18v219.3c0,9.9,8,18,18,18h55.6c9.9,0,18-8,18-18V18.4
		C110.5,8.4,102.4,0.4,92.5,0.4z"/>
	<path class="st0" d="M219.2,0.4h-55.6c-9.9,0-18,8-18,18v219.3c0,9.9,8,18,18,18h55.6c9.9,0,18-8,18-18V18.4
		C237.1,8.4,229.1,0.4,219.2,0.4z"/>
</g>
</svg>
