<?xml version="1.0" encoding="utf-8"?>
<!-- Generator: Adobe Illustrator 19.0.0, SVG Export Plug-In . SVG Version: 6.00 Build 0)  -->
<svg version="1.1" id="Layer_1" xmlns="http://www.w3.org/2000/svg" xmlns:xlink="http://www.w3.org/1999/xlink" x="0px" y="0px"
	 viewBox="0 0 512 512" style="enable-background:new 0 0 512 512;" xml:space="preserve">
<style type="text/css">
	.st0{fill:#FFFFFF;}
</style>
<g id="XMLID_2_">
	<path id="XMLID_5_" class="st0" d="M204.3,70.2h-81c-14.5,0-26.2,11.7-26.2,26.2v319.3c0,14.5,11.7,26.2,26.2,26.2h81
		c14.4,0,26.2-11.7,26.2-26.2V96.3C230.5,81.9,218.7,70.2,204.3,70.2z"/>
	<path id="XMLID_4_" class="st0" d="M388.8,70.2h-81c-14.5,0-26.2,11.7-26.2,26.2v319.3c0,14.5,11.7,26.2,26.2,26.2h81
		c14.5,0,26.2-11.7,26.2-26.2V96.3C414.9,81.9,403.2,70.2,388.8,70.2z"/>
</g>
</svg>
