<?xml version="1.0" encoding="iso-8859-1"?>
<!-- Generator: Adobe Illustrator 16.0.0, SVG Export Plug-In . SVG Version: 6.00 Build 0)  -->
<!DOCTYPE svg PUBLIC "-//W3C//DTD SVG 1.1//EN" "http://www.w3.org/Graphics/SVG/1.1/DTD/svg11.dtd">
<svg xmlns="http://www.w3.org/2000/svg" xmlns:xlink="http://www.w3.org/1999/xlink" version="1.1" id="Capa_1" x="0px" y="0px" width="512px" height="512px" viewBox="0 0 932.15 932.15" style="enable-background:new 0 0 932.15 932.15;" xml:space="preserve">
<g>
	<path d="M466.075,161.525c-205.6,0-382.8,121.2-464.2,296.1c-2.5,5.3-2.5,11.5,0,16.9c81.4,174.899,258.601,296.1,464.2,296.1   s382.8-121.2,464.2-296.1c2.5-5.3,2.5-11.5,0-16.9C848.875,282.725,671.675,161.525,466.075,161.525z M466.075,676.226   c-116.1,0-210.1-94.101-210.1-210.101c0-116.1,94.1-210.1,210.1-210.1c116.1,0,210.1,94.1,210.1,210.1   S582.075,676.226,466.075,676.226z" fill="#FFFFFF"/>
	<circle cx="466.075" cy="466.025" r="134.5" fill="#FFFFFF"/>
</g>
<g>
</g>
<g>
</g>
<g>
</g>
<g>
</g>
<g>
</g>
<g>
</g>
<g>
</g>
<g>
</g>
<g>
</g>
<g>
</g>
<g>
</g>
<g>
</g>
<g>
</g>
<g>
</g>
<g>
</g>
</svg>
