<?xml version="1.0" encoding="UTF-8" standalone="no"?>
<!DOCTYPE svg PUBLIC "-//W3C//DTD SVG 1.1//EN" "http://www.w3.org/Graphics/SVG/1.1/DTD/svg11.dtd">
<svg version="1.1" xmlns="http://www.w3.org/2000/svg" xmlns:xlink="http://www.w3.org/1999/xlink" preserveAspectRatio="xMidYMid meet" viewBox="0 0 32 32"><defs><path d="M20.31 0L20.33 0L20.35 0.01L20.37 0.01L20.39 0.02L20.42 0.02L20.44 0.03L20.45 0.03L20.47 0.04L20.49 0.05L20.51 0.06L20.53 0.07L20.55 0.08L20.56 0.09L20.58 0.1L20.6 0.12L20.61 0.13L20.63 0.14L20.64 0.16L20.66 0.17L20.67 0.19L20.68 0.2L20.7 0.22L20.71 0.24L20.72 0.25L20.73 0.27L20.74 0.29L20.75 0.31L20.76 0.33L20.77 0.35L20.77 0.36L20.78 0.38L20.78 0.41L20.79 0.43L20.79 0.45L20.8 0.47L20.8 0.49L20.8 0.51L20.8 0.53L20.8 11.2L31.47 11.2L31.49 11.2L31.51 11.2L31.53 11.2L31.55 11.21L31.57 11.21L31.59 11.22L31.62 11.22L31.64 11.23L31.65 11.23L31.67 11.24L31.69 11.25L31.71 11.26L31.73 11.27L31.75 11.28L31.76 11.29L31.78 11.3L31.8 11.32L31.81 11.33L31.83 11.34L31.84 11.36L31.86 11.37L31.87 11.39L31.88 11.4L31.9 11.42L31.91 11.44L31.92 11.45L31.93 11.47L31.94 11.49L31.95 11.51L31.96 11.53L31.97 11.55L31.97 11.56L31.98 11.58L31.98 11.61L31.99 11.63L31.99 11.65L32 11.67L32 11.69L32 11.71L32 11.73L32 20.27L32 20.29L32 20.31L32 20.33L31.99 20.35L31.99 20.37L31.98 20.39L31.98 20.42L31.97 20.44L31.97 20.45L31.96 20.47L31.95 20.49L31.94 20.51L31.93 20.53L31.92 20.55L31.91 20.56L31.9 20.58L31.88 20.6L31.87 20.61L31.86 20.63L31.84 20.64L31.83 20.66L31.81 20.67L31.8 20.68L31.78 20.7L31.76 20.71L31.75 20.72L31.73 20.73L31.71 20.74L31.69 20.75L31.67 20.76L31.65 20.77L31.64 20.77L31.62 20.78L31.59 20.78L31.57 20.79L31.55 20.79L31.53 20.8L31.51 20.8L31.49 20.8L31.47 20.8L20.8 20.8L20.8 31.47L20.8 31.49L20.8 31.51L20.8 31.53L20.79 31.55L20.79 31.57L20.78 31.59L20.78 31.62L20.77 31.64L20.77 31.65L20.76 31.67L20.75 31.69L20.74 31.71L20.73 31.73L20.72 31.75L20.71 31.76L20.7 31.78L20.68 31.8L20.67 31.81L20.66 31.83L20.64 31.84L20.63 31.86L20.61 31.87L20.6 31.88L20.58 31.9L20.56 31.91L20.55 31.92L20.53 31.93L20.51 31.94L20.49 31.95L20.47 31.96L20.45 31.97L20.44 31.97L20.42 31.98L20.39 31.98L20.37 31.99L20.35 31.99L20.33 32L20.31 32L20.29 32L20.27 32L11.73 32L11.71 32L11.69 32L11.67 32L11.65 31.99L11.63 31.99L11.61 31.98L11.58 31.98L11.56 31.97L11.55 31.97L11.53 31.96L11.51 31.95L11.49 31.94L11.47 31.93L11.45 31.92L11.44 31.91L11.42 31.9L11.4 31.88L11.39 31.87L11.37 31.86L11.36 31.84L11.34 31.83L11.33 31.81L11.32 31.8L11.3 31.78L11.29 31.76L11.28 31.75L11.27 31.73L11.26 31.71L11.25 31.69L11.24 31.67L11.23 31.65L11.23 31.64L11.22 31.62L11.22 31.59L11.21 31.57L11.21 31.55L11.2 31.53L11.2 31.51L11.2 31.49L11.2 31.47L11.2 20.8L0.53 20.8L0.51 20.8L0.49 20.8L0.47 20.8L0.45 20.79L0.43 20.79L0.41 20.78L0.38 20.78L0.36 20.77L0.35 20.77L0.33 20.76L0.31 20.75L0.29 20.74L0.27 20.73L0.25 20.72L0.24 20.71L0.22 20.7L0.2 20.68L0.19 20.67L0.17 20.66L0.16 20.64L0.14 20.63L0.13 20.61L0.12 20.6L0.1 20.58L0.09 20.56L0.08 20.55L0.07 20.53L0.06 20.51L0.05 20.49L0.04 20.47L0.03 20.45L0.03 20.44L0.02 20.42L0.02 20.39L0.01 20.37L0.01 20.35L0 20.33L0 20.31L0 20.29L0 20.27L0 11.73L0 11.71L0 11.69L0 11.67L0.01 11.65L0.01 11.63L0.02 11.61L0.02 11.58L0.03 11.56L0.03 11.55L0.04 11.53L0.05 11.51L0.06 11.49L0.07 11.47L0.08 11.45L0.09 11.44L0.1 11.42L0.12 11.4L0.13 11.39L0.14 11.37L0.16 11.36L0.17 11.34L0.19 11.33L0.2 11.32L0.22 11.3L0.24 11.29L0.25 11.28L0.27 11.27L0.29 11.26L0.31 11.25L0.33 11.24L0.35 11.23L0.36 11.23L0.38 11.22L0.41 11.22L0.43 11.21L0.45 11.21L0.47 11.2L0.49 11.2L0.51 11.2L0.53 11.2L11.2 11.2L11.2 0.53L11.2 0.51L11.2 0.49L11.2 0.47L11.21 0.45L11.21 0.43L11.22 0.41L11.22 0.38L11.23 0.36L11.23 0.35L11.24 0.33L11.25 0.31L11.26 0.29L11.27 0.27L11.28 0.25L11.29 0.24L11.3 0.22L11.32 0.2L11.33 0.19L11.34 0.17L11.36 0.16L11.37 0.14L11.39 0.13L11.4 0.12L11.42 0.1L11.44 0.09L11.45 0.08L11.47 0.07L11.49 0.06L11.51 0.05L11.53 0.04L11.55 0.03L11.56 0.03L11.58 0.02L11.61 0.02L11.63 0.01L11.65 0.01L11.67 0L11.69 0L11.71 0L11.73 0L20.27 0L20.29 0L20.31 0Z" id="hItNhIEeq"></path></defs><g visibility="inherit"><g visibility="inherit"><g visibility="inherit"><use xlink:href="#hItNhIEeq" opacity="1" fill="#ffffff" fill-opacity="1"></use><g><use xlink:href="#hItNhIEeq" opacity="1" fill-opacity="0" stroke="#7e6e60" stroke-width="0" stroke-opacity="1"></use></g></g></g></g></svg>