<?xml version="1.0" encoding="utf-8"?>
<!-- Generator: Adobe Illustrator 19.0.0, SVG Export Plug-In . SVG Version: 6.00 Build 0)  -->
<svg version="1.1" id="Layer_1" xmlns="http://www.w3.org/2000/svg" xmlns:xlink="http://www.w3.org/1999/xlink" x="0px" y="0px"
	 viewBox="0 0 512 512" style="enable-background:new 0 0 512 512;" xml:space="preserve">
<style type="text/css">
	.st0{fill:#FFFFFF;}
</style>
<g id="XMLID_3_" transform="translate(1249.8674,877.22036)">
	<path id="XMLID_1_" class="st0" d="M-993.8-466.2v-34.6h-35.2c-19.4,0-35.2-0.1-35.2-0.4s42.8-43.2,95.2-95.7l95.2-95.2v35.6v35.6
		h34.6h34.6l-0.1-94.9l-0.1-94.9l-94.6-0.1l-94.6-0.1v34.6v34.6h35.2c19.4,0,35.2,0.1,35.2,0.4c0,0.3-42.8,43.2-95.2,95.7
		l-95.2,95.2v-35.3V-621h-34.6h-34.6l0.1,94.6l0.1,94.6l94.6,0.1l94.6,0.1L-993.8-466.2L-993.8-466.2z"/>
</g>
</svg>
