<?xml version="1.0" encoding="iso-8859-1"?>
<!-- Generator: Adobe Illustrator 16.0.0, SVG Export Plug-In . SVG Version: 6.00 Build 0)  -->
<!DOCTYPE svg PUBLIC "-//W3C//DTD SVG 1.1//EN" "http://www.w3.org/Graphics/SVG/1.1/DTD/svg11.dtd">
<svg xmlns="http://www.w3.org/2000/svg" xmlns:xlink="http://www.w3.org/1999/xlink" version="1.1" id="Capa_1" x="0px" y="0px" width="512px" height="512px" viewBox="0 0 47.168 47.168" style="enable-background:new 0 0 47.168 47.168;" xml:space="preserve">
<g>
	<g id="Layer_19_33_">
		<g>
			<path d="M47.168,36.918V6.699H0v30.219h19.252v1.945H9.188v1.605h28.179v-1.605h-9.846v-1.945H47.168z M3.45,32.469V10.149     h40.267v22.317H3.45V32.469z" fill="#FFFFFF"/>
			<path d="M10.965,19.217h25.166v-6.166H10.965V19.217z M11.465,13.551h24.166v5.166H11.465V13.551z" fill="#FFFFFF"/>
			<path d="M10.941,25.764h7.739v-5.562h-7.739V25.764z M11.441,20.701h6.739v4.562h-6.739V20.701z" fill="#FFFFFF"/>
			<path d="M19.647,25.764h7.738v-5.562h-7.738V25.764z M20.147,20.701h6.738v4.562h-6.738V20.701z" fill="#FFFFFF"/>
			<path d="M36.152,20.201h-7.738v5.562h7.738V20.201z M35.652,25.264h-6.738v-4.562h6.738V25.264z" fill="#FFFFFF"/>
			<rect x="10.941" y="27.029" width="6.976" height="0.484" fill="#FFFFFF"/>
			<rect x="10.941" y="27.92" width="7.739" height="0.484" fill="#FFFFFF"/>
			<rect x="10.941" y="28.842" width="6.304" height="0.484" fill="#FFFFFF"/>
			<rect x="10.941" y="29.842" width="7.054" height="0.484" fill="#FFFFFF"/>
			<rect x="10.488" y="30.781" width="4.522" height="0.484" fill="#FFFFFF"/>
			<rect x="19.647" y="27.029" width="6.976" height="0.484" fill="#FFFFFF"/>
			<rect x="19.647" y="27.92" width="7.739" height="0.484" fill="#FFFFFF"/>
			<rect x="19.647" y="28.842" width="6.304" height="0.484" fill="#FFFFFF"/>
			<rect x="19.647" y="29.842" width="7.054" height="0.484" fill="#FFFFFF"/>
			<rect x="19.193" y="30.781" width="4.522" height="0.484" fill="#FFFFFF"/>
			<rect x="28.49" y="26.99" width="6.976" height="0.484" fill="#FFFFFF"/>
			<rect x="28.49" y="27.881" width="7.738" height="0.484" fill="#FFFFFF"/>
			<rect x="28.49" y="28.803" width="6.304" height="0.484" fill="#FFFFFF"/>
			<rect x="28.49" y="29.803" width="7.054" height="0.484" fill="#FFFFFF"/>
			<rect x="28.037" y="30.742" width="4.521" height="0.484" fill="#FFFFFF"/>
			<path d="M22.501,11.029H10.938v1.406h11.563V11.029z M22.001,11.937H11.438V11.53h10.563V11.937z" fill="#FFFFFF"/>
		</g>
	</g>
</g>
<g>
</g>
<g>
</g>
<g>
</g>
<g>
</g>
<g>
</g>
<g>
</g>
<g>
</g>
<g>
</g>
<g>
</g>
<g>
</g>
<g>
</g>
<g>
</g>
<g>
</g>
<g>
</g>
<g>
</g>
</svg>
