<?xml version="1.0" encoding="UTF-8" standalone="no"?>
<!-- Generator: Adobe Illustrator 16.0.0, SVG Export Plug-In . SVG Version: 6.00 Build 0)  -->

<svg
   xmlns:dc="http://purl.org/dc/elements/1.1/"
   xmlns:cc="http://creativecommons.org/ns#"
   xmlns:rdf="http://www.w3.org/1999/02/22-rdf-syntax-ns#"
   xmlns:svg="http://www.w3.org/2000/svg"
   xmlns="http://www.w3.org/2000/svg"
   xmlns:sodipodi="http://sodipodi.sourceforge.net/DTD/sodipodi-0.dtd"
   xmlns:inkscape="http://www.inkscape.org/namespaces/inkscape"
   version="1.1"
   id="Capa_1"
   x="0px"
   y="0px"
   width="373.008px"
   height="373.008px"
   viewBox="0 0 373.008 373.008"
   style="enable-background:new 0 0 373.008 373.008;"
   xml:space="preserve"
   inkscape:version="0.91 r13725"
   sodipodi:docname="reverse.svg"><metadata
     id="metadata42"><rdf:RDF><cc:Work
         rdf:about=""><dc:format>image/svg+xml</dc:format><dc:type
           rdf:resource="http://purl.org/dc/dcmitype/StillImage" /><dc:title></dc:title></cc:Work></rdf:RDF></metadata><defs
     id="defs40" /><sodipodi:namedview
     pagecolor="#ffffff"
     bordercolor="#666666"
     borderopacity="1"
     objecttolerance="10"
     gridtolerance="10"
     guidetolerance="10"
     inkscape:pageopacity="0"
     inkscape:pageshadow="2"
     inkscape:window-width="1536"
     inkscape:window-height="801"
     id="namedview38"
     showgrid="false"
     showguides="false"
     inkscape:zoom="0.63269421"
     inkscape:cx="186.504"
     inkscape:cy="186.504"
     inkscape:window-x="-8"
     inkscape:window-y="-8"
     inkscape:window-maximized="1"
     inkscape:current-layer="Capa_1" /><g
     id="g3"
     transform="matrix(-1,0,0,1,373.008,0)"><g
       id="Layer_8_16_"><path
         d="M 61.792,2.588 C 64.771,0.864 68.105,0 71.444,0 c 3.33,0 6.663,0.864 9.655,2.588 l 230.116,167.2 c 5.963,3.445 9.656,9.823 9.656,16.719 0,6.895 -3.683,13.272 -9.656,16.713 L 81.099,370.427 c -5.972,3.441 -13.334,3.441 -19.302,0 -5.973,-3.453 -9.66,-9.833 -9.66,-16.724 l 0,-334.398 c 0,-6.892 3.681,-13.269 9.655,-16.717 z"
         id="path6"
         inkscape:connector-curvature="0" /></g></g><g
     id="g8"
     transform="matrix(-1,0,0,1,373.008,0)" /><g
     id="g10"
     transform="matrix(-1,0,0,1,373.008,0)" /><g
     id="g12"
     transform="matrix(-1,0,0,1,373.008,0)" /><g
     id="g14"
     transform="matrix(-1,0,0,1,373.008,0)" /><g
     id="g16"
     transform="matrix(-1,0,0,1,373.008,0)" /><g
     id="g18"
     transform="matrix(-1,0,0,1,373.008,0)" /><g
     id="g20"
     transform="matrix(-1,0,0,1,373.008,0)" /><g
     id="g22"
     transform="matrix(-1,0,0,1,373.008,0)" /><g
     id="g24"
     transform="matrix(-1,0,0,1,373.008,0)" /><g
     id="g26"
     transform="matrix(-1,0,0,1,373.008,0)" /><g
     id="g28"
     transform="matrix(-1,0,0,1,373.008,0)" /><g
     id="g30"
     transform="matrix(-1,0,0,1,373.008,0)" /><g
     id="g32"
     transform="matrix(-1,0,0,1,373.008,0)" /><g
     id="g34"
     transform="matrix(-1,0,0,1,373.008,0)" /><g
     id="g36"
     transform="matrix(-1,0,0,1,373.008,0)" /><path
     style="fill:#ffffff"
     d="m 311.36685,368.90086 c 3.19998,-2.16749 6.32712,-6.05583 7.41837,-9.22415 2.41544,-7.01298 2.91425,-336.030903 0.52209,-344.371892 C 316.35855,5.0230991 306.49957,-1.0012921 296.75722,1.5254451 291.7813,2.8159798 60.28459,171.49077 56.5019,176.58202 c -3.70965,4.9929 -4.01325,14.25937 -0.63605,19.41361 1.34392,2.0511 55.50582,42.29264 120.35978,89.42563 128.41178,93.32406 124.32986,90.80257 135.14122,83.4796 z"
     id="path3374"
     inkscape:connector-curvature="0" /></svg>