<?xml version="1.0" encoding="utf-8"?>
<!-- Generator: Adobe Illustrator 19.0.0, SVG Export Plug-In . SVG Version: 6.00 Build 0)  -->
<svg version="1.1"
	 id="Capa_1" xmlns:dc="http://purl.org/dc/elements/1.1/" xmlns:rdf="http://www.w3.org/1999/02/22-rdf-syntax-ns#" xmlns:svg="http://www.w3.org/2000/svg" xmlns:cc="http://creativecommons.org/ns#"
	 xmlns="http://www.w3.org/2000/svg" xmlns:xlink="http://www.w3.org/1999/xlink" x="0px" y="0px" viewBox="128 -128 512 512"
	 style="enable-background:new 128 -128 512 512;" xml:space="preserve">
<style type="text/css">
	.st0{fill:#FFFFFF;}
</style>
<g id="g3393" transform="matrix(0.56751929,0,0,0.5979541,96.187602,89.41903)">
	<path id="path3395" class="st0" d="M375.9-166.9l-26,23.4c-8.5,8.1-12.8,17.6-12.8,28.4c0,11,4.3,20.4,12.8,28.1L518.2,64.5
		L349.9,216.1c-8.5,7.7-12.8,17-12.8,28.1c0,10.8,4.3,20.3,12.8,28.4l26,23.1c8.8,7.9,19.3,11.9,31.5,11.9c12.5,0,22.9-4,31.2-11.9
		L664,92.6c8.8-7.5,13.2-16.8,13.2-28.1c0-11-4.4-20.5-13.2-28.4l-225.4-203c-8.5-7.7-18.9-11.5-31.2-11.5
		C395.4-178.4,384.9-174.6,375.9-166.9L375.9-166.9z"/>
</g>
<g id="g3397" transform="matrix(0.56751929,0,0,0.5979541,96.187602,89.41903)">
</g>
<g id="g3399" transform="matrix(0.56751929,0,0,0.5979541,96.187602,89.41903)">
</g>
<g id="g3401" transform="matrix(0.56751929,0,0,0.5979541,96.187602,89.41903)">
</g>
<g id="g3403" transform="matrix(0.56751929,0,0,0.5979541,96.187602,89.41903)">
</g>
<g id="g3405" transform="matrix(0.56751929,0,0,0.5979541,96.187602,89.41903)">
</g>
<g id="g3407" transform="matrix(0.56751929,0,0,0.5979541,96.187602,89.41903)">
</g>
<g id="g3409" transform="matrix(0.56751929,0,0,0.5979541,96.187602,89.41903)">
</g>
<g id="g3411" transform="matrix(0.56751929,0,0,0.5979541,96.187602,89.41903)">
</g>
<g id="g3413" transform="matrix(0.56751929,0,0,0.5979541,96.187602,89.41903)">
</g>
<g id="g3415" transform="matrix(0.56751929,0,0,0.5979541,96.187602,89.41903)">
</g>
<g id="g3417" transform="matrix(0.56751929,0,0,0.5979541,96.187602,89.41903)">
</g>
<g id="g3419" transform="matrix(0.56751929,0,0,0.5979541,96.187602,89.41903)">
</g>
<g id="g3421" transform="matrix(0.56751929,0,0,0.5979541,96.187602,89.41903)">
</g>
<g id="g3423" transform="matrix(0.56751929,0,0,0.5979541,96.187602,89.41903)">
</g>
<g id="g3425" transform="matrix(0.56751929,0,0,0.5979541,96.187602,89.41903)">
</g>
</svg>
