<?xml version="1.0" encoding="UTF-8" standalone="no"?>
<svg
   xmlns:dc="http://purl.org/dc/elements/1.1/"
   xmlns:cc="http://creativecommons.org/ns#"
   xmlns:rdf="http://www.w3.org/1999/02/22-rdf-syntax-ns#"
   xmlns:svg="http://www.w3.org/2000/svg"
   xmlns="http://www.w3.org/2000/svg"
   version="1.1"
   id="Capa_1"
   x="0px"
   y="0px"
   width="512px"
   height="512px"
   viewBox="0 0 444.819 444.819"
   style="enable-background:new 0 0 444.819 444.819;"
   xml:space="preserve"><metadata
   id="metadata3390"><rdf:RDF><cc:Work
       rdf:about=""><dc:format>image/svg+xml</dc:format><dc:type
         rdf:resource="http://purl.org/dc/dcmitype/StillImage" /><dc:title></dc:title></cc:Work></rdf:RDF></metadata><defs
   id="defs3388" />
<g
   id="g3352"
   transform="matrix(0.48908673,0,0,0.48304968,113.63171,114.9744)">
	<path
   d="M 352.025,196.712 165.884,10.848 C 159.029,3.615 150.469,0 140.187,0 129.905,0 121.345,3.619 114.49,10.848 L 92.792,32.264 c -7.044,7.043 -10.566,15.604 -10.566,25.692 0,9.897 3.521,18.56 10.566,25.981 L 231.545,222.41 92.786,361.168 c -7.042,7.043 -10.564,15.604 -10.564,25.693 0,9.896 3.521,18.562 10.564,25.98 l 21.7,21.413 c 7.043,7.043 15.612,10.564 25.697,10.564 10.089,0 18.656,-3.521 25.697,-10.564 L 352.025,248.39 c 7.046,-7.423 10.571,-16.084 10.571,-25.981 10e-4,-10.088 -3.525,-18.654 -10.571,-25.697 z"
   id="path3354"
   style="fill:#ffffff" />
</g>
<g
   id="g3356"
   transform="matrix(0.48908673,0,0,0.48304968,113.63171,114.9744)">
</g>
<g
   id="g3358"
   transform="matrix(0.48908673,0,0,0.48304968,113.63171,114.9744)">
</g>
<g
   id="g3360"
   transform="matrix(0.48908673,0,0,0.48304968,113.63171,114.9744)">
</g>
<g
   id="g3362"
   transform="matrix(0.48908673,0,0,0.48304968,113.63171,114.9744)">
</g>
<g
   id="g3364"
   transform="matrix(0.48908673,0,0,0.48304968,113.63171,114.9744)">
</g>
<g
   id="g3366"
   transform="matrix(0.48908673,0,0,0.48304968,113.63171,114.9744)">
</g>
<g
   id="g3368"
   transform="matrix(0.48908673,0,0,0.48304968,113.63171,114.9744)">
</g>
<g
   id="g3370"
   transform="matrix(0.48908673,0,0,0.48304968,113.63171,114.9744)">
</g>
<g
   id="g3372"
   transform="matrix(0.48908673,0,0,0.48304968,113.63171,114.9744)">
</g>
<g
   id="g3374"
   transform="matrix(0.48908673,0,0,0.48304968,113.63171,114.9744)">
</g>
<g
   id="g3376"
   transform="matrix(0.48908673,0,0,0.48304968,113.63171,114.9744)">
</g>
<g
   id="g3378"
   transform="matrix(0.48908673,0,0,0.48304968,113.63171,114.9744)">
</g>
<g
   id="g3380"
   transform="matrix(0.48908673,0,0,0.48304968,113.63171,114.9744)">
</g>
<g
   id="g3382"
   transform="matrix(0.48908673,0,0,0.48304968,113.63171,114.9744)">
</g>
<g
   id="g3384"
   transform="matrix(0.48908673,0,0,0.48304968,113.63171,114.9744)">
</g>
</svg>