<?xml version="1.0" encoding="utf-8"?>
<!-- Generator: Adobe Illustrator 19.0.0, SVG Export Plug-In . SVG Version: 6.00 Build 0)  -->
<svg version="1.1" id="Layer_1" xmlns="http://www.w3.org/2000/svg" xmlns:xlink="http://www.w3.org/1999/xlink" x="0px" y="0px"
	 viewBox="0 0 512 512" style="enable-background:new 0 0 512 512;" xml:space="preserve">
<style type="text/css">
	.st0{fill:#BBBBBB;stroke:#BBBBBB;stroke-width:6;stroke-miterlimit:10;}
</style>
<g id="XMLID_2_" transform="translate(0,-952.36218)">
	<path id="XMLID_3_" class="st0" d="M222.3,1000.4c-96,0-174.3,78.2-174.3,174.3c0,96,78.2,174.3,174.3,174.3
		c42,0,80.6-15,110.7-39.9l102.2,102.4c6.6,6.6,17.3,6.6,23.9,0c6.6-6.6,6.6-17.3,0-23.9l-102.4-102.2
		c24.8-30.1,39.9-68.7,39.9-110.7C396.5,1078.6,318.3,1000.4,222.3,1000.4L222.3,1000.4z M222.3,1034.1
		c77.8,0,140.5,62.7,140.5,140.5c0,77.8-62.7,140.5-140.5,140.5c-77.8,0-140.5-62.7-140.5-140.5
		C81.7,1096.8,144.4,1034.1,222.3,1034.1z"/>
</g>
</svg>
