<?xml version="1.0" encoding="UTF-8" standalone="no"?>
<!-- Generator: Adobe Illustrator 18.1.1, SVG Export Plug-In . SVG Version: 6.00 Build 0)  -->

<svg
   xmlns:dc="http://purl.org/dc/elements/1.1/"
   xmlns:cc="http://creativecommons.org/ns#"
   xmlns:rdf="http://www.w3.org/1999/02/22-rdf-syntax-ns#"
   xmlns:svg="http://www.w3.org/2000/svg"
   xmlns="http://www.w3.org/2000/svg"
   xmlns:sodipodi="http://sodipodi.sourceforge.net/DTD/sodipodi-0.dtd"
   xmlns:inkscape="http://www.inkscape.org/namespaces/inkscape"
   version="1.1"
   id="Capa_1"
   x="0px"
   y="0px"
   viewBox="0 0 22.257 22.257"
   style="enable-background:new 0 0 22.257 22.257;"
   xml:space="preserve"
   width="512px"
   height="512px"
   inkscape:version="0.91 r13725"
   sodipodi:docname="start.svg"><metadata
     id="metadata46"><rdf:RDF><cc:Work
         rdf:about=""><dc:format>image/svg+xml</dc:format><dc:type
           rdf:resource="http://purl.org/dc/dcmitype/StillImage" /><dc:title></dc:title></cc:Work></rdf:RDF></metadata><defs
     id="defs44" /><sodipodi:namedview
     pagecolor="#ffffff"
     bordercolor="#666666"
     borderopacity="1"
     objecttolerance="10"
     gridtolerance="10"
     guidetolerance="10"
     inkscape:pageopacity="0"
     inkscape:pageshadow="2"
     inkscape:window-width="1536"
     inkscape:window-height="801"
     id="namedview42"
     showgrid="false"
     inkscape:zoom="0.4609375"
     inkscape:cx="256"
     inkscape:cy="256"
     inkscape:window-x="-8"
     inkscape:window-y="-8"
     inkscape:window-maximized="1"
     inkscape:current-layer="Capa_1" /><g
     id="g3"
     transform="matrix(-1,0,0,1,22.257,0)"><g
       id="c95_rewind"><path
         d="M 9.109,2.27 C 9.248,2.198 9.412,2.219 9.535,2.313 l 10.775,8.503 c 0.094,0.073 0.154,0.191 0.154,0.312 0,0.119 -0.061,0.239 -0.154,0.313 L 9.535,19.944 C 9.463,20.001 9.373,20.031 9.283,20.031 L 9.109,19.991 C 8.974,19.927 8.884,19.784 8.884,19.63 l 0,-17 C 8.885,2.476 8.975,2.334 9.109,2.27 Z"
         id="path6"
         inkscape:connector-curvature="0"
         style="fill:#ffffff" /><path
         d="M 0.221,2.27 C 0.362,2.198 0.528,2.219 0.645,2.313 l 10.777,8.503 c 0.096,0.073 0.154,0.191 0.154,0.312 0,0.119 -0.059,0.239 -0.154,0.313 L 0.645,19.944 c -0.072,0.057 -0.16,0.087 -0.246,0.087 L 0.221,19.991 C 0.084,19.926 0,19.784 0,19.629 L 0,2.63 C 0,2.476 0.084,2.334 0.221,2.27 Z"
         id="path8"
         inkscape:connector-curvature="0"
         style="fill:#ffffff" /><path
         d="m 19.287,2.26 2.656,0 c 0.174,0 0.314,0.183 0.314,0.4 l 0,16.935 c 0,0.222 -0.141,0.404 -0.314,0.404 l -2.656,0 c -0.176,0 -0.318,-0.183 -0.318,-0.404 l 0,-16.934 c 0,-0.218 0.142,-0.401 0.318,-0.401 z"
         id="path10"
         inkscape:connector-curvature="0"
         style="fill:#ffffff" /></g></g><g
     id="g12" /><g
     id="g14" /><g
     id="g16" /><g
     id="g18" /><g
     id="g20" /><g
     id="g22" /><g
     id="g24" /><g
     id="g26" /><g
     id="g28" /><g
     id="g30" /><g
     id="g32" /><g
     id="g34" /><g
     id="g36" /><g
     id="g38" /><g
     id="g40" /></svg>