<?xml version="1.0" encoding="utf-8"?>
<!-- Generator: Adobe Illustrator 19.0.0, SVG Export Plug-In . SVG Version: 6.00 Build 0)  -->
<svg version="1.1" id="Layer_1" xmlns="http://www.w3.org/2000/svg" xmlns:xlink="http://www.w3.org/1999/xlink" x="0px" y="0px"
	 viewBox="0 0 512 512" style="enable-background:new 0 0 512 512;" xml:space="preserve">
<style type="text/css">
	.st0{opacity:0.5;fill:#FFFFFF;}
</style>
<path id="XMLID_2_" class="st0" d="M508.1,95.3c0-50.5-40.9-91.4-91.4-91.3c-24.2,0-47.4,9.6-64.6,26.7L68.8,313.9
	c-2.1,2.1-3.8,4.7-4.9,7.5L4.3,480.5c-4.1,10.9,1.5,23.1,12.4,27.1c4.8,1.8,10,1.8,14.8,0L190.5,448c2.8-1.1,5.4-2.7,7.5-4.9
	l283.3-283.3C498.6,142.8,508.2,119.5,508.1,95.3z M60.1,451.9l31.6-84.3l52.7,52.7L60.1,451.9z M182.7,398.9l-69.6-69.6
	l223.6-223.6l69.6,69.6L182.7,398.9z M451.5,129.9l-15.3,15.5l-69.6-69.6l15.5-15.3c19.2-19.2,50.4-19.2,69.6,0
	c19.2,19.2,19.2,50.4,0,69.6L451.5,129.9z"/>
</svg>
