<?xml version="1.0" encoding="utf-8"?>
<!-- Generator: Adobe Illustrator 19.0.0, SVG Export Plug-In . SVG Version: 6.00 Build 0)  -->
<svg version="1.1" id="Layer_1" xmlns="http://www.w3.org/2000/svg" xmlns:xlink="http://www.w3.org/1999/xlink" x="0px" y="0px"
	 viewBox="0 0 512 512" style="enable-background:new 0 0 512 512;" xml:space="preserve">
<style type="text/css">
	.st0{fill:#FFFFFF;stroke:#FFFFFF;stroke-width:4;stroke-miterlimit:10;}
</style>
<g id="XMLID_2_">
	<path id="XMLID_3_" class="st0" d="M413.8,208.4L143.3,14.1c-11.1-8-22.5-12-33.5-12c-21,0-43.5,16.2-43.5,51.6v404.7
		c0,35.5,22.5,51.6,43.5,51.6c11.1,0,22.5-4,33.6-12l270.3-194.3c16.7-11.9,26.2-29.3,26.2-47.6
		C439.9,237.7,430.4,220.4,413.8,208.4z M385.7,264.6L115.4,458.9c-0.4,0.2-0.8,0.5-1,0.7c0-0.4,0-0.7,0-1.2V53.7c0-0.5,0-0.8,0-1.2
		c0.3,0.2,0.7,0.4,1,0.7l270.4,194.3c3.8,2.8,6.1,5.9,6.1,8.5C391.9,258.6,389.6,261.8,385.7,264.6z"/>
</g>
</svg>
