<?xml version="1.0" encoding="iso-8859-1"?>
<!-- Generator: Adobe Illustrator 18.1.1, SVG Export Plug-In . SVG Version: 6.00 Build 0)  -->
<svg xmlns="http://www.w3.org/2000/svg" xmlns:xlink="http://www.w3.org/1999/xlink" version="1.1" id="Capa_1" x="0px" y="0px" viewBox="0 0 32 32" style="enable-background:new 0 0 32 32;" xml:space="preserve" width="512px" height="512px">
<g>
	<g id="move">
		<g>
			<polygon points="18,20 18,26 22,26 16,32 10,26 14,26 14,20    " fill="#FFFFFF"/>
			<polygon points="14,12 14,6 10,6 16,0 22,6 18,6 18,12    " fill="#FFFFFF"/>
			<polygon points="12,18 6,18 6,22 0,16 6,10 6,14 12,14    " fill="#FFFFFF"/>
			<polygon points="20,14 26,14 26,10 32,16 26,22 26,18 20,18    " fill="#FFFFFF"/>
		</g>
	</g>
</g>
<g>
</g>
<g>
</g>
<g>
</g>
<g>
</g>
<g>
</g>
<g>
</g>
<g>
</g>
<g>
</g>
<g>
</g>
<g>
</g>
<g>
</g>
<g>
</g>
<g>
</g>
<g>
</g>
<g>
</g>
</svg>
