<?xml version="1.0" encoding="iso-8859-1"?>
<!-- Generator: Adobe Illustrator 19.0.0, SVG Export Plug-In . SVG Version: 6.00 Build 0)  -->
<svg xmlns="http://www.w3.org/2000/svg" xmlns:xlink="http://www.w3.org/1999/xlink" version="1.1" id="Layer_1" x="0px" y="0px" viewBox="0 0 512 512" style="enable-background:new 0 0 512 512;" xml:space="preserve" width="512px" height="512px">
<g>
	<g>
		<path d="M381.747,210.816c-31.505,0-57.138,25.631-57.138,57.138c0,31.506,25.633,57.138,57.138,57.138    s57.138-25.631,57.138-57.138C438.885,236.448,413.252,210.816,381.747,210.816z" fill="#FFFFFF"/>
	</g>
</g>
<g>
	<g>
		<path d="M130.253,210.816c-31.505,0-57.138,25.631-57.138,57.138c0,31.506,25.633,57.138,57.138,57.138    s57.138-25.631,57.138-57.138C187.391,236.448,161.758,210.816,130.253,210.816z" fill="#FFFFFF"/>
	</g>
</g>
<g>
	<g>
		<path d="M495.195,136.123h-33.476V81.225c0-9.281-7.524-16.805-16.805-16.805H67.087c-9.281,0-16.805,7.524-16.805,16.805v54.897    H16.805C7.524,136.123,0,143.647,0,152.928v277.847c0,9.281,7.524,16.805,16.805,16.805h187.023    c8.211,0,15.221-5.935,16.576-14.034l8.059-48.192c2.129-12.732,13.043-21.972,25.951-21.972h3.173    c12.908,0,23.822,9.241,25.951,21.972l8.059,48.192c1.354,8.099,8.365,14.034,16.576,14.034h187.023    c9.281,0,16.805-7.524,16.805-16.805V152.928C512,143.647,504.476,136.123,495.195,136.123z M130.253,358.702    c-50.038,0-90.748-40.709-90.748-90.748s40.71-90.748,90.748-90.748c50.038,0,90.748,40.709,90.748,90.748    S180.291,358.702,130.253,358.702z M381.747,358.702c-50.038,0-90.748-40.709-90.748-90.748s40.71-90.748,90.748-90.748    s90.748,40.709,90.748,90.748S431.785,358.702,381.747,358.702z" fill="#FFFFFF"/>
	</g>
</g>
<g>
</g>
<g>
</g>
<g>
</g>
<g>
</g>
<g>
</g>
<g>
</g>
<g>
</g>
<g>
</g>
<g>
</g>
<g>
</g>
<g>
</g>
<g>
</g>
<g>
</g>
<g>
</g>
<g>
</g>
</svg>
