<?xml version="1.0" encoding="UTF-8"?><svg id="Layer_1" xmlns="http://www.w3.org/2000/svg" viewBox="0 0 113.92 11.51"><defs><style>.cls-1{fill:#6ab04c;}.cls-2{fill:#006fc1;}.cls-3{fill:#4898ff;}</style></defs><path class="cls-2" d="M.05.3h5.68v7.79c0,3.26-3.9,3.26-3.9,3.26H0v-2.05h1.83c1.43,0,1.43-1.21,1.43-1.21V2.2H.05"/><path class="cls-2" d="M14.17,10.11h-4.21l-.5,1.17s-.09.08-.17.08h-2.28c-.15,0-.22-.08-.17-.17L11.91.08c.06-.11.28-.11.33,0l5.07,11.1c.06.09-.02.17-.15.17h-2.3c-.06,0-.13-.03-.15-.08l-.54-1.17ZM10.76,8.25h2.62l-1.3-3.31-1.32,3.31Z"/><path class="cls-2" d="M28.6.32v11.03h-2.49v-4.49h-4.92s0,4.35,0,4.49h-2.48V.32h2.48c0,.19,0,4.48,0,4.48h4.92V.32h2.49Z"/><path class="cls-3" d="M30.93,8.25c0-.06.07-.13.19-.13h2.12c.09,0,.19.06.19.13.04.8.82,1.21,1.67,1.21s1.67-.5,1.67-1.26c0-.84-.91-1.34-1.67-1.37-.11,0-1.02,0-1.99-.38-1.39-.55-2.17-1.54-2.17-2.87,0-2.13,2.02-3.42,4.16-3.42,2.28,0,4.06,1.31,4.1,3.23,0,.05-.07.11-.19.11h-2.1c-.09,0-.19-.06-.19-.11-.04-.8-.76-1.18-1.63-1.18s-1.67.46-1.67,1.37c0,.82.82,1.25,1.67,1.25.09,0,1.02,0,1.97.38,1.41.55,2.17,1.67,2.17,3,0,2.13-2,3.31-4.14,3.31-2.3-.05-4.12-1.18-4.16-3.26Z"/><path class="cls-3" d="M60.26,10.11h-4.21l-.5,1.17s-.09.08-.17.08h-2.28c-.15,0-.22-.08-.17-.17L58,.08c.06-.11.28-.11.33,0l5.07,11.1c.06.09-.02.17-.15.17h-2.3c-.06,0-.13-.03-.15-.08l-.54-1.17ZM56.85,8.25h2.62l-1.3-3.31-1.32,3.31Z"/><path class="cls-3" d="M69.9,5.93l5.21,5.22c.11.09.02.21-.15.21h-2.78s-.13-.03-.15-.05l-3.79-3.97c-.32.3-.65.66-1,.96v3.06h-2.49V.32h2.49v5.14l4.88-5.09s.11-.05.15-.05h2.65c.17,0,.26.11.15.21l-5.18,5.41Z"/><path class="cls-3" d="M82.81,10.11h-4.21l-.5,1.17s-.09.08-.17.08h-2.28c-.15,0-.22-.08-.17-.17L80.55.08c.06-.11.28-.11.33,0l5.07,11.1c.06.09-.02.17-.15.17h-2.3c-.06,0-.13-.03-.15-.08l-.54-1.17ZM79.4,8.25h2.62l-1.3-3.31-1.32,3.31Z"/><path class="cls-1" d="M88.01,6.34l.98-.1c.06.33.18.57.36.73.18.15.43.23.73.23.33,0,.57-.07.74-.21.17-.14.25-.3.25-.48,0-.12-.04-.22-.1-.3-.07-.08-.19-.16-.36-.22-.12-.04-.39-.11-.81-.22-.54-.13-.92-.3-1.14-.5-.31-.28-.46-.61-.46-1.01,0-.26.07-.49.22-.72.14-.22.35-.39.62-.51s.6-.17.99-.17c.63,0,1.1.14,1.42.41.32.28.48.64.5,1.1l-1.01.04c-.04-.26-.14-.44-.28-.56-.14-.11-.36-.17-.64-.17s-.52.06-.69.18c-.11.08-.16.18-.16.31,0,.12.05.22.15.3.13.11.44.22.93.33s.86.24,1.09.36c.24.12.42.29.55.51.13.22.2.48.2.8,0,.29-.08.56-.24.81-.16.25-.39.44-.68.56-.29.12-.66.18-1.09.18-.63,0-1.12-.15-1.46-.44-.34-.29-.54-.72-.61-1.28Z"/><path class="cls-1" d="M94.06,7.97V3.81h-1.49v-.85h3.98v.85h-1.48v4.16h-1.01Z"/><path class="cls-1" d="M97.2,2.96h1.01v2.71c0,.43.01.71.04.84.04.21.15.37.31.49.16.12.39.19.67.19s.5-.06.65-.18c.15-.12.23-.26.26-.43.03-.17.04-.45.04-.85v-2.77h1.01v2.63c0,.6-.03,1.03-.08,1.27s-.16.46-.3.63c-.15.17-.34.31-.59.41-.25.1-.57.15-.96.15-.48,0-.84-.06-1.09-.17-.25-.11-.44-.25-.59-.43-.14-.18-.24-.36-.28-.56-.07-.29-.1-.71-.1-1.27v-2.67Z"/><path class="cls-1" d="M102.26,2.96h1.85c.42,0,.74.03.95.1.29.09.55.24.75.46.21.22.37.49.48.81.11.32.16.71.16,1.18,0,.41-.05.77-.15,1.07-.13.36-.3.66-.54.89-.17.17-.41.3-.71.4-.22.07-.52.11-.9.11h-1.9V2.96ZM103.27,3.81v3.32h.75c.28,0,.49-.02.61-.05.16-.04.3-.11.41-.21s.2-.26.26-.48c.07-.22.1-.53.1-.92s-.03-.68-.1-.89-.16-.37-.29-.49-.28-.19-.47-.24c-.14-.03-.42-.05-.83-.05h-.45Z"/><path class="cls-1" d="M107.29,7.97V2.96h1.01v5.01h-1.01Z"/><path class="cls-1" d="M109.06,5.5c0-.51.08-.94.23-1.29.11-.26.27-.48.47-.69.2-.2.41-.35.65-.45.31-.13.67-.2,1.08-.2.74,0,1.33.23,1.77.69.44.46.66,1.09.66,1.91s-.22,1.44-.66,1.9c-.44.46-1.03.69-1.76.69s-1.34-.23-1.78-.68c-.44-.45-.66-1.08-.66-1.88ZM110.1,5.46c0,.57.13,1,.39,1.29.26.29.59.44,1,.44s.73-.15.99-.44c.26-.29.39-.73.39-1.31s-.13-1-.38-1.29c-.25-.28-.59-.42-1-.42s-.75.14-1.01.43c-.26.29-.38.72-.38,1.29Z"/><path class="cls-3" d="M51.19.16v11.03h-2.49v-4.49h-4.92s0,4.35,0,4.49h-2.48V.16h2.48c0,.19,0,4.48,0,4.48h4.92V.16h2.49Z"/></svg>