# Blender v2.78 (sub 0) OBJ File: ''
# www.blender.org
mtllib beam.mtl
o Cylinder
v 0.000000 -0.021451 -0.000000
v 0.000000 -0.021451 -1.000000
v 0.004185 -0.021039 -0.000000
v 0.004185 -0.021039 -1.000000
v 0.008209 -0.019818 -0.000000
v 0.008209 -0.019818 -1.000000
v 0.011918 -0.017836 -0.000000
v 0.011918 -0.017836 -1.000000
v 0.015168 -0.015168 -0.000000
v 0.015168 -0.015168 -1.000000
v 0.017836 -0.011918 -0.000000
v 0.017836 -0.011918 -1.000000
v 0.019818 -0.008209 -0.000000
v 0.019818 -0.008209 -1.000000
v 0.021039 -0.004185 -0.000000
v 0.021039 -0.004185 -1.000000
v 0.021451 -0.000000 -0.000000
v 0.021451 -0.000000 -1.000000
v 0.021039 0.004185 0.000000
v 0.021039 0.004185 -1.000000
v 0.019818 0.008209 0.000000
v 0.019818 0.008209 -1.000000
v 0.017836 0.011917 0.000000
v 0.017836 0.011918 -1.000000
v 0.015168 0.015168 0.000000
v 0.015168 0.015168 -1.000000
v 0.011918 0.017836 0.000000
v 0.011918 0.017836 -1.000000
v 0.008209 0.019818 0.000000
v 0.008209 0.019818 -1.000000
v 0.004185 0.021039 0.000000
v 0.004185 0.021039 -1.000000
v 0.000000 0.021451 0.000000
v 0.000000 0.021451 -1.000000
v -0.004185 0.021039 0.000000
v -0.004185 0.021039 -1.000000
v -0.008209 0.019818 0.000000
v -0.008209 0.019818 -1.000000
v -0.011918 0.017836 0.000000
v -0.011918 0.017836 -1.000000
v -0.015168 0.015168 0.000000
v -0.015168 0.015168 -1.000000
v -0.017836 0.011917 0.000000
v -0.017836 0.011918 -1.000000
v -0.019818 0.008209 0.000000
v -0.019818 0.008209 -1.000000
v -0.021039 0.004185 0.000000
v -0.021039 0.004185 -1.000000
v -0.021451 -0.000000 -0.000000
v -0.021451 -0.000000 -1.000000
v -0.021039 -0.004185 -0.000000
v -0.021039 -0.004185 -1.000000
v -0.019818 -0.008209 -0.000000
v -0.019818 -0.008209 -1.000000
v -0.017836 -0.011918 -0.000000
v -0.017836 -0.011918 -1.000000
v -0.015168 -0.015168 -0.000000
v -0.015168 -0.015168 -1.000000
v -0.011918 -0.017836 -0.000000
v -0.011918 -0.017836 -1.000000
v -0.008209 -0.019818 -0.000000
v -0.008209 -0.019818 -1.000000
v -0.004185 -0.021039 -0.000000
v -0.004185 -0.021039 -1.000000
vt 1.0000 1.0000
vt 0.9687 0.5000
vt 1.0000 0.5000
vt 0.9687 1.0000
vt 0.9375 0.5000
vt 0.9375 1.0000
vt 0.9063 0.5000
vt 0.9063 1.0000
vt 0.8750 0.5000
vt 0.8750 1.0000
vt 0.8438 0.5000
vt 0.8438 1.0000
vt 0.8125 0.5000
vt 0.8125 1.0000
vt 0.7813 0.5000
vt 0.7813 1.0000
vt 0.7500 0.5000
vt 0.7500 1.0000
vt 0.7188 0.5000
vt 0.7188 1.0000
vt 0.6875 0.5000
vt 0.6875 1.0000
vt 0.6563 0.5000
vt 0.6563 1.0000
vt 0.6250 0.5000
vt 0.6250 1.0000
vt 0.5938 0.5000
vt 0.5938 1.0000
vt 0.5625 0.5000
vt 0.5625 1.0000
vt 0.5313 0.5000
vt 0.5313 1.0000
vt 0.5000 0.5000
vt 0.5000 1.0000
vt 0.4687 0.5000
vt 0.4688 1.0000
vt 0.4375 0.5000
vt 0.4375 1.0000
vt 0.4062 0.5000
vt 0.4062 1.0000
vt 0.3750 0.5000
vt 0.3750 1.0000
vt 0.3437 0.5000
vt 0.3437 1.0000
vt 0.3125 0.5000
vt 0.3125 1.0000
vt 0.2812 0.5000
vt 0.2812 1.0000
vt 0.2500 0.5000
vt 0.2500 1.0000
vt 0.2187 0.5000
vt 0.2187 1.0000
vt 0.1875 0.5000
vt 0.1875 1.0000
vt 0.1562 0.5000
vt 0.1562 1.0000
vt 0.1250 0.5000
vt 0.1250 1.0000
vt 0.0937 0.5000
vt 0.0937 1.0000
vt 0.0625 0.5000
vt 1.4375 1.0000
vt 0.0625 1.0000
vt 0.0312 0.5000
vt 1.0312 1.0000
vt 1.0312 0.5000
vt 1.2812 0.5000
vt 1.0625 1.0000
vt 1.0937 1.0000
vt 1.1250 1.0000
vt 1.1562 1.0000
vt 1.1875 1.0000
vt 1.2187 1.0000
vt 1.2500 1.0000
vt 1.2812 1.0000
vt 1.3125 1.0000
vt 1.3437 1.0000
vt 1.3750 1.0000
vt 1.4062 1.0000
vt 1.4688 1.0000
vt 0.0312 1.0000
vt 1.4062 0.5000
vt 1.4688 0.5000
vt 1.4375 0.5000
vt 1.3750 0.5000
vt 1.3437 0.5000
vt 1.3125 0.5000
vt 1.2500 0.5000
vt 1.2187 0.5000
vt 1.1875 0.5000
vt 1.1562 0.5000
vt 1.1250 0.5000
vt 1.0937 0.5000
vt 1.0625 0.5000
vn 0.0980 -0.9952 -0.0000
vn 0.2903 -0.9569 -0.0000
vn 0.4714 -0.8819 -0.0000
vn 0.6344 -0.7730 -0.0000
vn 0.7730 -0.6344 -0.0000
vn 0.8819 -0.4714 -0.0000
vn 0.9569 -0.2903 -0.0000
vn 0.9952 -0.0980 -0.0000
vn 0.9952 0.0980 0.0000
vn 0.9569 0.2903 0.0000
vn 0.8819 0.4714 0.0000
vn 0.7730 0.6344 0.0000
vn 0.6344 0.7730 0.0000
vn 0.4714 0.8819 0.0000
vn 0.2903 0.9569 0.0000
vn 0.0980 0.9952 0.0000
vn -0.0980 0.9952 0.0000
vn -0.2903 0.9569 0.0000
vn -0.4714 0.8819 0.0000
vn -0.6344 0.7730 0.0000
vn -0.7730 0.6344 0.0000
vn -0.8819 0.4714 0.0000
vn -0.9569 0.2903 0.0000
vn -0.9952 0.0980 0.0000
vn -0.9952 -0.0980 -0.0000
vn -0.9569 -0.2903 -0.0000
vn -0.8819 -0.4714 -0.0000
vn -0.7730 -0.6344 -0.0000
vn -0.6344 -0.7730 -0.0000
vn -0.4714 -0.8819 -0.0000
vn 0.0000 0.0000 -1.0000
vn -0.2903 -0.9569 -0.0000
vn -0.0980 -0.9952 -0.0000
vn -0.0000 -0.0000 1.0000
vn -0.0003 0.0000 -1.0000
usemtl None
s off
f 2/1/1 3/2/1 1/3/1
f 4/4/2 5/5/2 3/2/2
f 6/6/3 7/7/3 5/5/3
f 8/8/4 9/9/4 7/7/4
f 10/10/5 11/11/5 9/9/5
f 12/12/6 13/13/6 11/11/6
f 14/14/7 15/15/7 13/13/7
f 16/16/8 17/17/8 15/15/8
f 18/18/9 19/19/9 17/17/9
f 20/20/10 21/21/10 19/19/10
f 22/22/11 23/23/11 21/21/11
f 24/24/12 25/25/12 23/23/12
f 26/26/13 27/27/13 25/25/13
f 28/28/14 29/29/14 27/27/14
f 30/30/15 31/31/15 29/29/15
f 32/32/16 33/33/16 31/31/16
f 34/34/17 35/35/17 33/33/17
f 36/36/18 37/37/18 35/35/18
f 38/38/19 39/39/19 37/37/19
f 40/40/20 41/41/20 39/39/20
f 42/42/21 43/43/21 41/41/21
f 44/44/22 45/45/22 43/43/22
f 46/46/23 47/47/23 45/45/23
f 48/48/24 49/49/24 47/47/24
f 50/50/25 51/51/25 49/49/25
f 52/52/26 53/53/26 51/51/26
f 54/54/27 55/55/27 53/53/27
f 56/56/28 57/57/28 55/55/28
f 58/58/29 59/59/29 57/57/29
f 60/60/30 61/61/30 59/59/30
f 38/62/31 22/22/31 6/6/31
f 62/63/32 63/64/32 61/61/32
f 64/65/33 1/3/33 63/66/33
f 31/31/34 47/67/34 63/66/34
f 2/1/1 4/4/1 3/2/1
f 4/4/2 6/6/2 5/5/2
f 6/6/3 8/8/3 7/7/3
f 8/8/4 10/10/4 9/9/4
f 10/10/5 12/12/5 11/11/5
f 12/12/6 14/14/6 13/13/6
f 14/14/7 16/16/7 15/15/7
f 16/16/8 18/18/8 17/17/8
f 18/18/9 20/20/9 19/19/9
f 20/20/10 22/22/10 21/21/10
f 22/22/11 24/24/11 23/23/11
f 24/24/12 26/26/12 25/25/12
f 26/26/13 28/28/13 27/27/13
f 28/28/14 30/30/14 29/29/14
f 30/30/15 32/32/15 31/31/15
f 32/32/16 34/34/16 33/33/16
f 34/34/17 36/36/17 35/35/17
f 36/36/18 38/38/18 37/37/18
f 38/38/19 40/40/19 39/39/19
f 40/40/20 42/42/20 41/41/20
f 42/42/21 44/44/21 43/43/21
f 44/44/22 46/46/22 45/45/22
f 46/46/23 48/48/23 47/47/23
f 48/48/24 50/50/24 49/49/24
f 50/50/25 52/52/25 51/51/25
f 52/52/26 54/54/26 53/53/26
f 54/54/27 56/56/27 55/55/27
f 56/56/28 58/58/28 57/57/28
f 58/58/29 60/60/29 59/59/29
f 60/60/30 62/63/30 61/61/30
f 6/6/31 4/4/31 2/1/31
f 2/1/31 64/65/31 62/68/31
f 62/68/31 60/69/31 58/70/31
f 58/70/31 56/71/31 54/72/31
f 54/72/35 52/73/35 50/74/35
f 50/74/31 48/75/31 54/72/31
f 46/76/31 44/77/31 38/62/31
f 42/78/31 40/79/31 38/62/31
f 38/62/31 36/80/31 34/34/31
f 34/34/31 32/32/31 30/30/31
f 30/30/31 28/28/31 26/26/31
f 26/26/31 24/24/31 22/22/31
f 22/22/31 20/20/31 18/18/31
f 18/18/31 16/16/31 22/22/31
f 14/14/31 12/12/31 10/10/31
f 10/10/31 8/8/31 14/14/31
f 6/6/31 2/1/31 54/72/31
f 62/68/31 58/70/31 54/72/31
f 54/72/31 48/75/31 46/76/31
f 44/77/31 42/78/31 38/62/31
f 38/62/31 34/34/31 22/22/31
f 30/30/31 26/26/31 22/22/31
f 22/22/31 16/16/31 14/14/31
f 14/14/31 8/8/31 6/6/31
f 2/1/31 62/68/31 54/72/31
f 54/72/31 46/76/31 6/6/31
f 34/34/31 30/30/31 22/22/31
f 22/22/31 14/14/31 6/6/31
f 6/6/31 46/76/31 38/62/31
f 62/63/32 64/81/32 63/64/32
f 64/65/33 2/1/33 1/3/33
f 63/66/34 1/3/34 7/7/34
f 3/2/34 5/5/34 7/7/34
f 7/7/34 9/9/34 15/15/34
f 11/11/34 13/13/34 15/15/34
f 15/15/34 17/17/34 19/19/34
f 19/19/34 21/21/34 23/23/34
f 23/23/34 25/25/34 31/31/34
f 27/27/34 29/29/34 31/31/34
f 31/31/34 33/33/34 39/82/34
f 35/83/34 37/84/34 39/82/34
f 39/82/34 41/85/34 43/86/34
f 43/86/34 45/87/34 39/82/34
f 47/67/34 49/88/34 51/89/34
f 51/89/34 53/90/34 47/67/34
f 55/91/34 57/92/34 63/66/34
f 59/93/34 61/94/34 63/66/34
f 1/3/34 3/2/34 7/7/34
f 9/9/34 11/11/34 15/15/34
f 15/15/34 19/19/34 31/31/34
f 25/25/34 27/27/34 31/31/34
f 33/33/34 35/83/34 39/82/34
f 39/82/34 45/87/34 47/67/34
f 47/67/34 53/90/34 55/91/34
f 57/92/34 59/93/34 63/66/34
f 63/66/34 7/7/34 15/15/34
f 19/19/34 23/23/34 31/31/34
f 31/31/34 39/82/34 47/67/34
f 47/67/34 55/91/34 63/66/34
f 63/66/34 15/15/34 31/31/34
