# Blender v2.78 (sub 1) OBJ File: ''
# www.blender.org
v 0.000000 0.072000 0.000000
v 0.000000 0.072000 1.200000
v 0.014046 0.070617 1.200000
v 0.014046 0.070617 0.000000
v 0.027552 0.066519 1.200000
v 0.027552 0.066519 0.000000
v 0.039999 0.059868 1.200000
v 0.040002 0.059865 0.000000
v 0.050910 0.050913 1.200000
v 0.050913 0.050913 0.000000
v 0.059865 0.040002 1.200000
v 0.059865 0.040002 0.000000
v 0.066519 0.027555 1.200000
v 0.066519 0.027552 0.000000
v 0.070617 0.014046 1.200000
v 0.070617 0.014046 0.000000
v 0.072000 -0.000000 1.200000
v 0.072000 0.000000 0.000000
v 0.070617 -0.014046 1.200000
v 0.070617 -0.014046 -0.000000
v 0.066519 -0.027552 1.200000
v 0.066519 -0.027552 -0.000000
v 0.059865 -0.039999 1.200000
v 0.059865 -0.040002 -0.000000
v 0.050910 -0.050910 1.200000
v 0.050913 -0.050913 -0.000000
v 0.039999 -0.059865 1.200000
v 0.040002 -0.059865 -0.000000
v 0.027552 -0.066519 1.200000
v 0.027552 -0.066519 -0.000000
v 0.014046 -0.070617 1.200000
v 0.014046 -0.070617 -0.000000
v 0.000000 -0.072000 1.200000
v 0.000000 -0.072000 -0.000000
v -0.014049 -0.070617 1.200000
v -0.014046 -0.070617 -0.000000
v -0.027555 -0.066519 1.200000
v -0.027552 -0.066519 -0.000000
v -0.040002 -0.059865 1.200000
v -0.040002 -0.059865 -0.000000
v -0.050913 -0.050910 1.200000
v -0.050913 -0.050913 -0.000000
v -0.059868 -0.039999 1.200000
v -0.059865 -0.040002 -0.000000
v -0.066519 -0.027552 1.200000
v -0.066519 -0.027552 -0.000000
v -0.070617 -0.014046 1.200000
v -0.070617 -0.014046 -0.000000
v -0.072000 -0.000000 1.200000
v -0.072000 0.000000 0.000000
v -0.070617 0.014046 1.200000
v -0.070617 0.014046 0.000000
v -0.066519 0.027555 1.200000
v -0.066519 0.027552 0.000000
v -0.059868 0.040002 1.200000
v -0.059865 0.040002 0.000000
v -0.050913 0.050913 1.200000
v -0.050913 0.050913 0.000000
v -0.040002 0.059868 1.200000
v -0.040002 0.059865 0.000000
v -0.027555 0.066519 1.200000
v -0.027552 0.066519 0.000000
v -0.014046 0.070617 1.200000
v -0.014046 0.070617 0.000000
v 0.211200 -0.000000 1.200000
v 0.207141 -0.041202 1.200000
v -0.041204 -0.207141 1.200000
v -0.080824 -0.195123 1.200000
v -0.195124 0.080823 1.200000
v -0.175606 0.117336 1.200000
v 0.149340 0.149341 1.200000
v 0.175606 0.117336 1.200000
v 0.117336 -0.175606 1.200000
v 0.080822 -0.195124 1.200000
v -0.195124 -0.080822 1.200000
v -0.207143 -0.041202 1.200000
v -0.041204 0.207142 1.200000
v 0.000000 0.211200 1.200000
v 0.041202 0.207142 1.200000
v 0.195122 -0.080822 1.200000
v -0.117336 -0.175606 1.200000
v -0.149342 0.149341 1.200000
v 0.195122 0.080823 1.200000
v 0.041202 -0.207141 1.200000
v -0.211200 -0.000000 1.200000
v 0.080822 0.195124 1.200000
v 0.175606 -0.117337 1.200000
v -0.149342 -0.149342 1.200000
v -0.117336 0.175608 1.200000
v 0.207141 0.041204 1.200000
v 0.000000 -0.211200 1.200000
v -0.207143 0.041204 1.200000
v 0.117336 0.175606 1.200000
v 0.149340 -0.149342 1.200000
v -0.175608 -0.117337 1.200000
v -0.080824 0.195124 1.200000
v 0.000000 -0.000000 1.700000
vn 0.0000 1.0000 0.0000
vn -0.0000 0.6836 -0.7298
vn 0.1334 0.6705 -0.7299
vn 0.1951 0.9808 0.0000
vn 0.2616 0.6316 -0.7298
vn 0.3827 0.9239 0.0000
vn 0.3797 0.5684 -0.7299
vn 0.5555 0.8315 0.0000
vn 0.4834 0.4834 -0.7298
vn 0.7071 0.7071 0.0000
vn 0.5684 0.3798 -0.7298
vn 0.8315 0.5556 0.0000
vn 0.6316 0.2616 -0.7299
vn 0.9239 0.3827 -0.0000
vn 0.6705 0.1334 -0.7299
vn 0.9808 0.1951 -0.0000
vn 0.6836 -0.0000 -0.7298
vn 1.0000 0.0000 0.0000
vn 0.6705 -0.1334 -0.7299
vn 0.9808 -0.1951 -0.0000
vn 0.6316 -0.2616 -0.7298
vn 0.9239 -0.3827 0.0000
vn 0.5684 -0.3798 -0.7298
vn 0.8315 -0.5556 0.0000
vn 0.4834 -0.4834 -0.7298
vn 0.7071 -0.7071 0.0000
vn 0.3798 -0.5684 -0.7298
vn 0.5556 -0.8315 0.0000
vn 0.2616 -0.6316 -0.7298
vn 0.3827 -0.9239 -0.0000
vn 0.1334 -0.6705 -0.7299
vn 0.1951 -0.9808 -0.0000
vn 0.0000 -0.6836 -0.7298
vn 0.0000 -1.0000 -0.0000
vn -0.1334 -0.6705 -0.7299
vn -0.1951 -0.9808 -0.0000
vn -0.2616 -0.6316 -0.7298
vn -0.3827 -0.9239 -0.0000
vn -0.3798 -0.5684 -0.7298
vn -0.5556 -0.8315 -0.0000
vn -0.4834 -0.4834 -0.7298
vn -0.7071 -0.7071 0.0000
vn -0.5684 -0.3797 -0.7299
vn -0.8315 -0.5555 -0.0000
vn -0.6316 -0.2616 -0.7298
vn -0.9239 -0.3827 -0.0000
vn -0.6705 -0.1334 -0.7299
vn -0.9808 -0.1951 -0.0000
vn -0.6836 -0.0000 -0.7298
vn -1.0000 0.0000 0.0000
vn -0.6705 0.1334 -0.7299
vn -0.9808 0.1951 -0.0000
vn -0.6316 0.2616 -0.7298
vn -0.9239 0.3827 -0.0000
vn -0.5684 0.3797 -0.7299
vn -0.8315 0.5555 -0.0000
vn -0.4834 0.4834 -0.7298
vn -0.7071 0.7071 -0.0000
vn -0.3797 0.5684 -0.7299
vn -0.5555 0.8315 -0.0000
vn -0.2616 0.6316 -0.7298
vn -0.3827 0.9239 -0.0000
vn -0.1334 0.6705 -0.7299
vn -0.1951 0.9808 0.0000
vn 0.8480 -0.0000 -0.5299
vn 0.8317 -0.1655 -0.5300
vn -0.1654 -0.8317 -0.5300
vn -0.3245 -0.7835 -0.5300
vn -0.7835 0.3245 -0.5299
vn -0.7051 0.4711 -0.5300
vn 0.5996 0.5996 -0.5300
vn 0.7051 0.4711 -0.5299
vn 0.4711 -0.7051 -0.5300
vn 0.3245 -0.7835 -0.5299
vn -0.7835 -0.3245 -0.5300
vn -0.8317 -0.1654 -0.5299
vn -0.1654 0.8317 -0.5299
vn 0.0000 0.8480 -0.5300
vn 0.1654 0.8317 -0.5299
vn 0.7835 -0.3245 -0.5300
vn -0.4711 -0.7051 -0.5300
vn -0.5997 0.5996 -0.5299
vn 0.7835 0.3245 -0.5300
vn 0.1654 -0.8317 -0.5300
vn -0.8480 -0.0000 -0.5300
vn 0.3245 0.7835 -0.5299
vn 0.7051 -0.4711 -0.5299
vn -0.5996 -0.5997 -0.5299
vn -0.4711 0.7051 -0.5299
vn 0.8317 0.1655 -0.5300
vn 0.0000 -0.8480 -0.5299
vn -0.8317 0.1654 -0.5299
vn 0.4711 0.7051 -0.5300
vn 0.5996 -0.5996 -0.5300
vn -0.7051 -0.4711 -0.5299
vn -0.3245 0.7835 -0.5300
vn 0.0000 0.0000 1.0000
s 1
f 1//1 2//2 3//3 4//4
f 4//4 3//3 5//5 6//6
f 6//6 5//5 7//7 8//8
f 8//8 7//7 9//9 10//10
f 10//10 9//9 11//11 12//12
f 12//12 11//11 13//13 14//14
f 14//14 13//13 15//15 16//16
f 16//16 15//15 17//17 18//18
f 18//18 17//17 19//19 20//20
f 20//20 19//19 21//21 22//22
f 22//22 21//21 23//23 24//24
f 24//24 23//23 25//25 26//26
f 26//26 25//25 27//27 28//28
f 28//28 27//27 29//29 30//30
f 30//30 29//29 31//31 32//32
f 32//32 31//31 33//33 34//34
f 34//34 33//33 35//35 36//36
f 36//36 35//35 37//37 38//38
f 38//38 37//37 39//39 40//40
f 40//40 39//39 41//41 42//42
f 42//42 41//41 43//43 44//44
f 44//44 43//43 45//45 46//46
f 46//46 45//45 47//47 48//48
f 48//48 47//47 49//49 50//50
f 50//50 49//49 51//51 52//52
f 52//52 51//51 53//53 54//54
f 54//54 53//53 55//55 56//56
f 56//56 55//55 57//57 58//58
f 58//58 57//57 59//59 60//60
f 60//60 59//59 61//61 62//62
f 62//62 61//61 63//63 64//64
f 64//64 63//63 2//2 1//1
f 19//19 17//17 65//65 66//66
f 37//37 35//35 67//67 68//68
f 55//55 53//53 69//69 70//70
f 11//11 9//9 71//71 72//72
f 29//29 27//27 73//73 74//74
f 47//47 45//45 75//75 76//76
f 2//2 63//63 77//77 78//78
f 3//3 2//2 78//78 79//79
f 21//21 19//19 66//66 80//80
f 39//39 37//37 68//68 81//81
f 57//57 55//55 70//70 82//82
f 13//13 11//11 72//72 83//83
f 31//31 29//29 74//74 84//84
f 49//49 47//47 76//76 85//85
f 5//5 3//3 79//79 86//86
f 23//23 21//21 80//80 87//87
f 41//41 39//39 81//81 88//88
f 59//59 57//57 82//82 89//89
f 15//15 13//13 83//83 90//90
f 33//33 31//31 84//84 91//91
f 51//51 49//49 85//85 92//92
f 7//7 5//5 86//86 93//93
f 25//25 23//23 87//87 94//94
f 43//43 41//41 88//88 95//95
f 61//61 59//59 89//89 96//96
f 17//17 15//15 90//90 65//65
f 35//35 33//33 91//91 67//67
f 53//53 51//51 92//92 69//69
f 9//9 7//7 93//93 71//71
f 27//27 25//25 94//94 73//73
f 45//45 43//43 95//95 75//75
f 63//63 61//61 96//96 77//77
f 92//92 85//85 97//97
f 94//94 87//87 97//97
f 69//69 92//92 97//97
f 73//73 94//94 97//97
f 70//70 69//69 97//97
f 74//74 73//73 97//97
f 79//79 78//78 97//97
f 82//82 70//70 97//97
f 84//84 74//74 97//97
f 86//86 79//79 97//97
f 89//89 82//82 97//97
f 91//91 84//84 97//97
f 93//93 86//86 97//97
f 96//96 89//89 97//97
f 67//67 91//91 97//97
f 71//71 93//93 97//97
f 77//77 96//96 97//97
f 68//68 67//67 97//97
f 72//72 71//71 97//97
f 78//78 77//77 97//97
f 81//81 68//68 97//97
f 83//83 72//72 97//97
f 88//88 81//81 97//97
f 90//90 83//83 97//97
f 95//95 88//88 97//97
f 65//65 90//90 97//97
f 75//75 95//95 97//97
f 66//66 65//65 97//97
f 76//76 75//75 97//97
f 80//80 66//66 97//97
f 85//85 76//76 97//97
f 87//87 80//80 97//97
