# Blender v2.76 (sub 0) OBJ File: 'oculushead.blend'
# www.blender.org
mtllib gear.mtl
o Cube
v 0.112540 0.338881 0.598562
v 0.112540 0.861164 0.477535
v 0.112540 0.338881 0.555866
v 0.112540 0.829533 0.448856
v 0.534992 -0.106844 0.659482
v 0.534992 0.217634 0.659482
v 0.519636 -0.106844 0.622578
v 0.519636 0.217634 0.622578
v 0.655080 -0.106844 0.552348
v 0.655080 0.217634 0.552348
v 0.619609 -0.106844 0.533922
v 0.619609 0.217634 0.533922
v 0.112540 1.031769 0.092714
v 0.112540 0.989075 0.093229
v 0.112540 0.930575 -0.796589
v 0.112540 0.889926 -0.783527
v 0.112540 0.602343 -1.054703
v 0.112540 0.590014 -1.013825
v 0.803739 -0.106844 0.092739
v 0.803739 0.217634 0.092739
v 0.763791 -0.106844 0.094130
v 0.763791 0.217634 0.094130
v 0.732792 -0.106844 -0.484134
v 0.732792 0.217634 -0.484134
v 0.694895 -0.106844 -0.471425
v 0.694895 0.217634 -0.471425
v 0.501635 -0.106844 -0.899311
v 0.501635 0.217634 -0.899311
v 0.473046 -0.106844 -0.871375
v 0.473046 0.217634 -0.871375
v 0.304962 -0.106844 -1.057305
v 0.304962 0.217634 -1.057305
v 0.288699 -0.106844 -1.020792
v 0.288699 0.217634 -1.020792
v 0.112540 0.996899 -0.428787
v 0.112540 1.038571 -0.435576
v 0.112540 0.203293 -1.101843
v 0.112540 0.204496 -1.069290
v 0.529056 -0.282220 0.957107
v 0.529056 0.343512 0.957107
v 0.549556 -0.305258 0.462422
v 0.549556 0.366550 0.462422
v 0.592064 0.292866 0.462422
v 0.592064 -0.231575 0.462422
v 0.571564 0.274882 0.957107
v 0.571564 -0.213590 0.957107
v 0.220970 0.366550 0.585222
v 0.404155 0.366550 0.554522
v 0.200471 -0.282220 0.957107
v 0.383656 -0.282220 0.957107
v 0.404155 -0.305258 0.554522
v 0.220970 -0.305258 0.585222
v 0.383656 0.343512 0.957107
v 0.200470 0.343512 0.957107
v 0.214640 0.274882 0.957107
v 0.411994 0.274882 0.957107
v 0.214640 -0.213590 0.957107
v 0.411994 -0.213590 0.957107
v 0.432494 0.292866 0.554522
v 0.235139 0.292866 0.585222
v 0.432494 -0.231575 0.554522
v 0.235139 -0.231575 0.585222
v 0.549556 0.366550 0.895271
v 0.549556 -0.305258 0.895271
v 0.592064 0.292866 0.895271
v 0.592064 -0.231575 0.895271
v 0.404155 0.366550 0.906784
v 0.220970 0.366550 0.910621
v 0.220970 -0.305258 0.910621
v 0.404155 -0.305258 0.906784
v 0.000000 0.338881 0.598562
v 0.000000 0.861164 0.477535
v 0.000000 0.338881 0.555866
v 0.000000 0.829533 0.448856
v -0.112540 0.338881 0.598562
v -0.112540 0.861164 0.477535
v -0.112540 0.338881 0.555866
v -0.112540 0.829533 0.448856
v -0.534992 -0.106844 0.659482
v -0.534992 0.217634 0.659482
v -0.519636 -0.106844 0.622578
v -0.519636 0.217634 0.622578
v -0.655080 -0.106844 0.552348
v -0.655080 0.217634 0.552348
v -0.619609 -0.106844 0.533922
v -0.619609 0.217634 0.533922
v 0.000000 1.031769 0.092714
v 0.000000 0.989075 0.093229
v -0.112540 1.031769 0.092714
v -0.112540 0.989075 0.093229
v 0.000000 0.930575 -0.796589
v 0.000000 0.889926 -0.783527
v -0.112540 0.930575 -0.796589
v -0.112540 0.889926 -0.783527
v 0.000000 0.602343 -1.054703
v 0.000000 0.590014 -1.013825
v -0.112540 0.602343 -1.054703
v -0.112540 0.590014 -1.013825
v -0.803739 -0.106844 0.092739
v -0.803739 0.217634 0.092739
v -0.763791 -0.106844 0.094130
v -0.763791 0.217634 0.094130
v -0.732792 -0.106844 -0.484134
v -0.732792 0.217634 -0.484134
v -0.694895 -0.106844 -0.471425
v -0.694895 0.217634 -0.471425
v -0.501635 -0.106844 -0.899311
v -0.501635 0.217634 -0.899311
v -0.473046 -0.106844 -0.871375
v -0.473046 0.217634 -0.871375
v -0.304962 -0.106844 -1.057305
v -0.304962 0.217634 -1.057305
v -0.288699 -0.106844 -1.020792
v -0.288699 0.217634 -1.020792
v 0.000000 -0.106844 -1.107061
v 0.000000 0.217634 -1.107061
v 0.000000 -0.106844 -1.067119
v 0.000000 0.217634 -1.067119
v 0.000000 1.038571 -0.435576
v -0.112540 0.996899 -0.428787
v -0.112540 1.038571 -0.435576
v 0.000000 0.996899 -0.428787
v 0.000000 0.203293 -1.101843
v 0.000000 0.204496 -1.069290
v -0.112540 0.203293 -1.101843
v -0.112540 0.204496 -1.069290
v -0.529056 -0.282220 0.957107
v -0.529056 0.343512 0.957107
v -0.549556 -0.305258 0.462422
v -0.549556 0.366550 0.462422
v 0.000000 0.366550 0.608838
v 0.000000 -0.305258 0.608838
v 0.000000 0.343512 0.957107
v 0.000000 -0.282220 0.957107
v -0.592064 0.292866 0.462422
v -0.592064 -0.231575 0.462422
v -0.571564 0.274882 0.957107
v -0.571564 -0.213590 0.957107
v 0.000000 0.274882 0.957107
v 0.000000 -0.213590 0.957107
v 0.000000 0.292866 0.608838
v 0.000000 -0.231575 0.608838
v -0.220970 0.366550 0.585222
v -0.404155 0.366550 0.554522
v -0.200471 -0.282220 0.957107
v -0.383656 -0.282220 0.957107
v -0.404155 -0.305258 0.554522
v -0.220970 -0.305258 0.585222
v -0.383656 0.343512 0.957107
v -0.200470 0.343512 0.957107
v -0.214640 0.274882 0.957107
v -0.411994 0.274882 0.957107
v -0.214640 -0.213590 0.957107
v -0.411994 -0.213590 0.957107
v -0.432494 0.292866 0.554522
v -0.235139 0.292866 0.585222
v -0.432494 -0.231575 0.554522
v -0.235139 -0.231575 0.585222
v -0.549556 0.366550 0.895271
v -0.549556 -0.305258 0.895271
v 0.000000 0.366550 0.913573
v 0.000000 -0.305258 0.913573
v -0.592064 0.292866 0.895271
v -0.592064 -0.231575 0.895271
v -0.404155 0.366550 0.906784
v -0.220970 0.366550 0.910621
v -0.220970 -0.305258 0.910621
v -0.404155 -0.305258 0.906784
v 0.438265 -1.228214 -0.668229
v 0.441283 -1.324823 -0.033552
v 0.500706 -1.273965 -0.399397
v 0.332487 -0.684917 -0.592689
v 0.388775 -0.873303 0.018474
v 0.465448 -0.706412 -0.335929
v 0.610761 0.603253 -0.007994
v 0.417140 -0.357123 -0.753972
v 0.505321 -0.579846 -0.002702
v 0.400329 0.632714 0.411833
v 0.550212 -0.437361 -0.320933
v 0.214960 -0.937859 0.400791
v 0.316624 -0.777153 0.480382
v 0.434008 0.095839 -0.823794
v 0.667502 0.075049 0.061985
v 0.652431 0.112824 -0.379722
v 0.439899 -0.014404 0.524208
v 0.347456 0.875332 -0.477374
v 0.347456 0.883659 -0.080733
v 0.347456 0.892912 -0.290391
v 0.347456 0.881783 0.166311
v 0.458164 0.666120 -0.733605
v 0.581228 0.680108 -0.333779
v 0.000000 -1.242007 -0.821602
v 0.000000 -1.358460 0.135713
v -0.438265 -1.228214 -0.668229
v -0.441283 -1.324823 -0.033552
v -0.500706 -1.273965 -0.399397
v 0.000000 -0.682294 -0.689669
v 0.000000 -1.003734 0.168277
v -0.332487 -0.684917 -0.592689
v -0.388775 -0.873303 0.018474
v 0.000000 0.038939 -1.079282
v -0.465448 -0.706412 -0.335929
v 0.000000 -0.382358 -0.979419
v -0.610761 0.603253 -0.007994
v -0.417140 -0.357123 -0.753972
v -0.505321 -0.579846 -0.002702
v -0.400329 0.632714 0.411833
v -0.550212 -0.437361 -0.320933
v 0.000000 -0.981080 0.430528
v -0.214960 -0.937859 0.400791
v 0.000000 -0.838405 0.485722
v -0.316624 -0.777153 0.480382
v -0.434008 0.095839 -0.823794
v -0.667502 0.075049 0.061985
v -0.652431 0.112824 -0.379722
v 0.000000 -0.051266 0.584367
v -0.439899 -0.014404 0.524208
v 0.000000 0.858723 -0.654044
v 0.000000 0.898415 0.146594
v -0.347456 0.875332 -0.477374
v -0.347456 0.883659 -0.080733
v 0.000000 0.900635 -0.208266
v -0.347456 0.892912 -0.290391
v 0.000000 0.884009 0.265892
v -0.347456 0.881783 0.166311
v 0.000000 0.686141 0.430989
v 0.000000 0.627455 -0.977396
v -0.458164 0.666120 -0.733605
v -0.581228 0.680108 -0.333779
vn 1.000000 0.000000 0.000000
vn 0.000000 -0.213100 -0.977000
vn 0.000000 0.225700 0.974200
vn 0.000000 -1.000000 0.000000
vn 0.000000 -0.912400 -0.409300
vn -0.923300 0.000000 0.384200
vn -0.663500 0.000000 -0.748200
vn 0.951500 0.000000 0.307700
vn 0.665700 0.000000 0.746200
vn 0.000000 1.000000 0.000000
vn 0.000000 0.914200 0.405300
vn 0.000000 0.958100 -0.286600
vn 0.000000 -0.957400 0.288700
vn 0.000000 0.117300 -0.993100
vn 0.000000 0.618100 -0.786100
vn 0.000000 -0.609000 0.793100
vn 0.992500 0.000000 -0.122100
vn -0.950200 0.000000 -0.311500
vn -0.874500 0.000000 0.485100
vn -0.992700 0.000000 0.120900
vn 0.873700 0.000000 -0.486500
vn 0.161000 0.000000 -0.986900
vn 0.626300 0.000000 -0.779600
vn -0.629700 0.000000 0.776900
vn -0.158400 0.000000 0.987400
vn 0.000000 -0.999900 -0.015000
vn 0.000000 0.999900 0.012900
vn 0.000000 -0.999300 0.036900
vn 0.000000 -0.142400 0.989800
vn -0.480300 0.277100 -0.832200
vn 0.779600 -0.482900 0.398900
vn 0.000000 0.000000 1.000000
vn 0.779600 0.482900 0.398900
vn 0.949200 0.000000 0.314700
vn -0.480300 -0.277100 -0.832200
vn -0.499900 0.000000 -0.866100
vn -0.099900 0.000000 -0.995000
vn -0.153700 0.000000 -0.988100
vn -0.099900 -0.019200 -0.994800
vn -0.153400 -0.059000 -0.986400
vn -0.099900 0.019200 -0.994800
vn -0.153400 0.059000 -0.986400
vn 0.008800 -0.907900 0.419200
vn 0.006000 -0.894900 0.446200
vn 0.008800 0.907900 0.419200
vn 0.028300 0.933600 0.357200
vn 0.866200 0.499700 0.000000
vn 0.006000 0.894900 0.446200
vn 0.028300 -0.933600 0.357200
vn 0.866200 -0.499700 0.000000
vn -1.000000 0.000000 0.000000
vn 0.923300 0.000000 0.384200
vn 0.663500 0.000000 -0.748200
vn -0.951500 0.000000 0.307700
vn -0.665700 0.000000 0.746200
vn -0.992500 0.000000 -0.122100
vn 0.950200 0.000000 -0.311500
vn 0.874500 0.000000 0.485100
vn 0.992700 0.000000 0.120900
vn -0.873700 0.000000 -0.486500
vn -0.161000 0.000000 -0.986900
vn -0.626300 0.000000 -0.779600
vn 0.629700 0.000000 0.776900
vn 0.158400 0.000000 0.987400
vn 0.524100 0.201600 -0.827400
vn -0.782900 -0.451700 0.427800
vn -0.779600 0.482900 0.398900
vn -0.949200 0.000000 0.314700
vn 0.480300 -0.277100 -0.832200
vn 0.499900 0.000000 -0.866100
vn 0.099900 0.000000 -0.995000
vn 0.153700 0.000000 -0.988100
vn 0.099900 -0.019200 -0.994800
vn 0.153400 -0.059000 -0.986400
vn 0.106300 0.000000 -0.994300
vn 0.165200 0.031800 -0.985700
vn -0.008800 -0.907900 0.419200
vn -0.006000 -0.894900 0.446200
vn 0.000000 0.896000 0.444100
vn 0.000000 0.909200 0.416300
vn -0.866200 0.499700 0.000000
vn 0.000000 0.883900 0.467700
vn -0.028300 -0.933600 0.357200
vn -0.866200 -0.499700 0.000000
vn -0.524100 0.201600 -0.827400
vn 0.782900 -0.451700 0.427800
vn 0.782900 0.451700 0.427800
vn -0.524100 -0.201600 -0.827400
vn -0.106300 0.000000 -0.994300
vn -0.165200 -0.031800 -0.985700
vn -0.165200 0.031800 -0.985700
vn 0.000000 -0.896000 0.444100
vn 0.000000 -0.883900 0.467700
vn 0.000000 -0.909200 0.416300
vn 0.480300 0.277100 -0.832200
vn -0.779600 -0.482900 0.398900
vn -0.782900 0.451700 0.427800
vn 0.524100 -0.201600 -0.827400
vn 0.165200 -0.031800 -0.985700
vn 0.099900 0.019200 -0.994800
vn 0.153400 0.059000 -0.986400
vn -0.008800 0.907900 0.419200
vn -0.028300 0.933600 0.357200
vn -0.006000 0.894900 0.446200
vn 0.000000 0.211700 -0.977300
vn 0.000000 -0.226500 -0.974000
vn 0.657300 -0.122700 -0.743500
vn 0.733500 0.177000 -0.656200
vn 0.977900 -0.118400 -0.172100
vn 0.698500 -0.330900 -0.634400
vn 0.948500 -0.264800 -0.174000
vn 0.947000 -0.283800 0.150300
vn 0.879300 -0.314300 0.357900
vn 0.000000 -0.746700 0.665100
vn 0.000000 -0.091400 0.995800
vn 0.784200 0.014600 0.620300
vn 0.997000 0.077600 -0.001900
vn 0.974500 -0.048200 0.219200
vn 0.603500 -0.007800 0.797300
vn 0.000000 -0.455400 -0.890300
vn 0.000000 0.040600 0.999200
vn 0.000000 -0.290200 0.957000
vn 0.582700 -0.366100 0.725600
vn 0.000000 -0.801500 0.597900
vn 0.407400 -0.787100 0.463000
vn 0.912800 0.369400 0.174200
vn 0.974000 -0.032600 -0.224200
vn 0.659300 0.451800 -0.601000
vn 0.000000 0.464700 -0.885400
vn 0.000000 0.910700 -0.412900
vn 0.405000 0.913700 0.032500
vn 0.425800 0.848400 0.314500
vn 0.715700 -0.014600 -0.698300
vn 0.000000 -0.028600 -0.999600
vn 0.371700 0.893300 -0.252500
vn 0.000000 0.999500 -0.029300
vn 0.361300 0.932100 -0.026200
vn 0.000000 0.998100 0.061300
vn 0.000000 0.851600 0.524200
vn 0.515900 0.414700 0.749500
vn 0.000000 0.471500 0.881800
vn 0.879900 0.460500 -0.116500
vn -0.657300 -0.122700 -0.743500
vn -0.977900 -0.118400 -0.172100
vn -0.733500 0.177000 -0.656200
vn -0.948500 -0.264800 -0.174000
vn -0.698500 -0.330900 -0.634400
vn -0.879300 -0.314300 0.357900
vn -0.947000 -0.283800 0.150300
vn -0.784200 0.014600 0.620300
vn -0.997000 0.077600 -0.001900
vn -0.974500 -0.048200 0.219200
vn -0.603500 -0.007800 0.797300
vn -0.582700 -0.366100 0.725600
vn -0.407400 -0.787100 0.463000
vn -0.974000 -0.032600 -0.224200
vn -0.912800 0.369400 0.174200
vn -0.659300 0.451800 -0.601000
vn -0.371700 0.893300 -0.252500
vn -0.425800 0.848400 0.314500
vn -0.405000 0.913700 0.032500
vn -0.715700 -0.014600 -0.698300
vn -0.515900 0.414700 0.749500
vn -0.879900 0.460500 -0.116500
vn -0.361300 0.932100 -0.026200
usemtl None
s off
f 35//1 16//1 15//1
f 4//2 3//2 73//2
f 4//1 2//1 1//1
f 72//3 71//3 1//3
f 73//4 3//4 1//4
f 74//5 88//5 14//5
f 8//6 7//6 5//6
f 12//7 11//7 7//7
f 9//8 19//8 20//8
f 6//9 5//9 9//9
f 5//4 7//4 11//4
f 12//10 8//10 6//10
f 2//1 4//1 14//1
f 2//11 13//11 87//11
f 16//1 18//1 17//1
f 36//12 15//12 91//12
f 122//13 92//13 16//13
f 17//14 37//14 123//14
f 15//15 17//15 95//15
f 92//16 96//16 18//16
f 19//17 23//17 24//17
f 9//4 11//4 21//4
f 10//10 20//10 22//10
f 12//18 22//18 21//18
f 26//19 30//19 29//19
f 22//20 26//20 25//20
f 19//4 21//4 25//4
f 20//10 24//10 26//10
f 27//4 29//4 33//4
f 23//4 25//4 29//4
f 24//10 28//10 30//10
f 23//21 27//21 28//21
f 31//22 115//22 116//22
f 28//10 32//10 34//10
f 27//23 31//23 32//23
f 30//24 34//24 33//24
f 34//25 118//25 117//25
f 33//4 117//4 115//4
f 34//10 32//10 116//10
f 88//26 122//26 35//26
f 13//27 36//27 119//27
f 13//1 14//1 35//1
f 38//28 124//28 123//28
f 96//29 124//29 38//29
f 17//1 18//1 38//1
f 61//30 44//30 41//30
f 66//31 46//31 39//31
f 51//4 41//4 64//4
f 68//10 47//10 131//10
f 140//32 134//32 49//32
f 54//32 133//32 139//32
f 139//32 140//32 57//32
f 40//33 45//33 65//33
f 45//34 46//34 66//34
f 42//35 43//35 59//35
f 43//36 44//36 61//36
f 60//37 62//37 142//37
f 59//38 61//38 62//38
f 47//39 60//39 141//39
f 48//40 59//40 60//40
f 56//32 58//32 46//32
f 55//32 57//32 58//32
f 40//32 53//32 56//32
f 53//32 54//32 55//32
f 58//32 50//32 39//32
f 57//32 49//32 50//32
f 63//10 42//10 48//10
f 67//10 48//10 47//10
f 132//4 52//4 69//4
f 52//4 51//4 70//4
f 142//41 62//41 52//41
f 62//42 61//42 51//42
f 69//43 70//43 50//43
f 162//44 69//44 49//44
f 53//45 67//45 68//45
f 40//46 63//46 67//46
f 65//1 66//1 44//1
f 63//47 65//47 43//47
f 54//48 68//48 161//48
f 70//49 64//49 39//49
f 66//50 64//50 41//50
f 93//51 94//51 120//51
f 73//2 77//2 78//2
f 78//51 77//51 75//51
f 75//3 71//3 72//3
f 75//4 77//4 73//4
f 90//5 88//5 74//5
f 79//52 81//52 82//52
f 81//53 85//53 86//53
f 100//54 99//54 83//54
f 83//55 79//55 80//55
f 79//4 83//4 85//4
f 80//10 82//10 86//10
f 76//51 89//51 90//51
f 87//11 89//11 76//11
f 97//51 98//51 94//51
f 91//12 93//12 121//12
f 94//13 92//13 122//13
f 123//14 125//14 97//14
f 95//15 97//15 93//15
f 98//16 96//16 92//16
f 104//56 103//56 99//56
f 83//4 99//4 101//4
f 102//10 100//10 84//10
f 101//57 102//57 86//57
f 109//58 110//58 106//58
f 105//59 106//59 102//59
f 99//4 103//4 105//4
f 106//10 104//10 100//10
f 107//4 111//4 113//4
f 103//4 107//4 109//4
f 110//10 108//10 104//10
f 108//60 107//60 103//60
f 116//61 115//61 111//61
f 114//10 112//10 108//10
f 112//62 111//62 107//62
f 113//63 114//63 110//63
f 117//1 115//1 116//1
f 117//64 118//64 114//64
f 115//4 117//4 113//4
f 114//10 118//10 116//10
f 120//26 122//26 88//26
f 119//27 121//27 89//27
f 89//51 121//51 120//51
f 123//28 124//28 126//28
f 126//29 124//29 96//29
f 97//51 125//51 126//51
f 157//65 147//65 129//65
f 164//66 160//66 127//66
f 160//4 129//4 147//4
f 166//10 161//10 131//10
f 145//32 134//32 140//32
f 150//32 151//32 139//32
f 153//32 140//32 139//32
f 163//67 137//67 128//67
f 164//68 138//68 137//68
f 155//69 135//69 130//69
f 157//70 136//70 135//70
f 142//71 158//71 156//71
f 158//72 157//72 155//72
f 141//73 156//73 143//73
f 156//74 155//74 144//74
f 138//32 154//32 152//32
f 154//32 153//32 151//32
f 128//32 137//32 152//32
f 149//32 152//32 151//32
f 127//32 146//32 154//32
f 146//32 145//32 153//32
f 159//10 165//10 144//10
f 165//10 166//10 143//10
f 167//4 148//4 132//4
f 168//4 147//4 148//4
f 142//75 132//75 148//75
f 158//76 148//76 147//76
f 146//77 168//77 167//77
f 145//78 167//78 162//78
f 149//79 150//79 166//79
f 128//80 149//80 165//80
f 136//51 164//51 163//51
f 135//81 163//81 159//81
f 150//82 133//82 161//82
f 127//83 160//83 168//83
f 129//84 160//84 164//84
f 36//1 35//1 15//1
f 74//2 4//2 73//2
f 3//1 4//1 1//1
f 2//3 72//3 1//3
f 71//4 73//4 1//4
f 4//5 74//5 14//5
f 6//6 8//6 5//6
f 8//7 12//7 7//7
f 10//8 9//8 20//8
f 10//9 6//9 9//9
f 9//4 5//4 11//4
f 10//10 12//10 6//10
f 13//1 2//1 14//1
f 72//11 2//11 87//11
f 15//1 16//1 17//1
f 119//12 36//12 91//12
f 35//13 122//13 16//13
f 95//14 17//14 123//14
f 91//15 15//15 95//15
f 16//16 92//16 18//16
f 20//17 19//17 24//17
f 19//4 9//4 21//4
f 12//10 10//10 22//10
f 11//18 12//18 21//18
f 25//19 26//19 29//19
f 21//20 22//20 25//20
f 23//4 19//4 25//4
f 22//10 20//10 26//10
f 31//4 27//4 33//4
f 27//4 23//4 29//4
f 26//10 24//10 30//10
f 24//21 23//21 28//21
f 32//22 31//22 116//22
f 30//10 28//10 34//10
f 28//23 27//23 32//23
f 29//24 30//24 33//24
f 33//25 34//25 117//25
f 31//4 33//4 115//4
f 118//10 34//10 116//10
f 14//26 88//26 35//26
f 87//27 13//27 119//27
f 36//1 13//1 35//1
f 37//28 38//28 123//28
f 18//29 96//29 38//29
f 37//1 17//1 38//1
f 51//85 61//85 41//85
f 64//86 66//86 39//86
f 70//4 51//4 64//4
f 161//10 68//10 131//10
f 57//32 140//32 49//32
f 55//32 54//32 139//32
f 55//32 139//32 57//32
f 63//87 40//87 65//87
f 65//34 45//34 66//34
f 48//88 42//88 59//88
f 59//36 43//36 61//36
f 141//37 60//37 142//37
f 60//38 59//38 62//38
f 131//89 47//89 141//89
f 47//90 48//90 60//90
f 45//32 56//32 46//32
f 56//32 55//32 58//32
f 45//32 40//32 56//32
f 56//32 53//32 55//32
f 46//32 58//32 39//32
f 58//32 57//32 50//32
f 67//10 63//10 48//10
f 68//10 67//10 47//10
f 162//4 132//4 69//4
f 69//4 52//4 70//4
f 132//89 142//89 52//89
f 52//91 62//91 51//91
f 49//92 69//92 50//92
f 134//93 162//93 49//93
f 54//79 53//79 68//79
f 53//80 40//80 67//80
f 43//1 65//1 44//1
f 42//47 63//47 43//47
f 133//82 54//82 161//82
f 50//94 70//94 39//94
f 44//50 66//50 41//50
f 121//51 93//51 120//51
f 74//2 73//2 78//2
f 76//51 78//51 75//51
f 76//3 75//3 72//3
f 71//4 75//4 73//4
f 78//5 90//5 74//5
f 80//52 79//52 82//52
f 82//53 81//53 86//53
f 84//54 100//54 83//54
f 84//55 83//55 80//55
f 81//4 79//4 85//4
f 84//10 80//10 86//10
f 78//51 76//51 90//51
f 72//11 87//11 76//11
f 93//51 97//51 94//51
f 119//12 91//12 121//12
f 120//13 94//13 122//13
f 95//14 123//14 97//14
f 91//15 95//15 93//15
f 94//16 98//16 92//16
f 100//56 104//56 99//56
f 85//4 83//4 101//4
f 86//10 102//10 84//10
f 85//57 101//57 86//57
f 105//58 109//58 106//58
f 101//59 105//59 102//59
f 101//4 99//4 105//4
f 102//10 106//10 100//10
f 109//4 107//4 113//4
f 105//4 103//4 109//4
f 106//10 110//10 104//10
f 104//60 108//60 103//60
f 112//61 116//61 111//61
f 110//10 114//10 108//10
f 108//62 112//62 107//62
f 109//63 113//63 110//63
f 118//1 117//1 116//1
f 113//64 117//64 114//64
f 111//4 115//4 113//4
f 112//10 114//10 116//10
f 90//26 120//26 88//26
f 87//27 119//27 89//27
f 90//51 89//51 120//51
f 125//28 123//28 126//28
f 98//29 126//29 96//29
f 98//51 97//51 126//51
f 136//95 157//95 129//95
f 138//96 164//96 127//96
f 168//4 160//4 147//4
f 143//10 166//10 131//10
f 153//32 145//32 140//32
f 133//32 150//32 139//32
f 151//32 153//32 139//32
f 159//97 163//97 128//97
f 163//68 164//68 137//68
f 144//98 155//98 130//98
f 155//70 157//70 135//70
f 141//71 142//71 156//71
f 156//72 158//72 155//72
f 131//75 141//75 143//75
f 143//99 156//99 144//99
f 137//32 138//32 152//32
f 152//32 154//32 151//32
f 149//32 128//32 152//32
f 150//32 149//32 151//32
f 138//32 127//32 154//32
f 154//32 146//32 153//32
f 130//10 159//10 144//10
f 144//10 165//10 143//10
f 162//4 167//4 132//4
f 167//4 168//4 148//4
f 158//100 142//100 148//100
f 157//101 158//101 147//101
f 145//92 146//92 167//92
f 134//93 145//93 162//93
f 165//102 149//102 166//102
f 159//103 128//103 165//103
f 135//51 136//51 163//51
f 130//81 135//81 159//81
f 166//104 150//104 161//104
f 146//94 127//94 168//94
f 136//84 129//84 164//84
s 1
f 192//105 197//106 172//107
f 169//108 172//107 174//109
f 172//107 176//110 179//111
f 177//112 173//113 174//109
f 198//114 193//115 170//116
f 173//113 170//116 171//117
f 183//118 177//112 179//111
f 177//112 183//118 185//119
f 197//106 203//120 176//110
f 216//121 211//122 181//123
f 211//122 209//124 180//125
f 181//123 180//125 173//113
f 180//125 209//124 198//114
f 175//126 183//118 184//127
f 190//128 227//129 218//130
f 175//126 187//131 189//132
f 176//110 182//133 184//127
f 176//110 203//120 201//134
f 186//135 218//130 222//136
f 187//131 188//137 222//136
f 219//138 224//139 189//132
f 178//140 226//141 216//121
f 191//142 190//128 186//135
f 187//131 175//126 191//142
f 182//133 201//134 227//129
f 183//118 175//126 178//140
f 189//132 224//139 226//141
f 184//127 182//133 190//128
f 199//143 197//106 192//105
f 202//144 199//143 194//145
f 208//146 205//147 199//143
f 202//144 200//148 206//149
f 195//150 193//115 198//114
f 196//151 195//150 200//148
f 208//146 206//149 214//152
f 217//153 214//152 206//149
f 205//147 203//120 197//106
f 212//154 211//122 216//121
f 210//155 209//124 211//122
f 212//154 206//149 200//148
f 210//155 200//148 198//114
f 215//156 214//152 204//157
f 228//158 220//159 218//130
f 225//160 221//161 204//157
f 215//156 213//162 205//147
f 205//147 213//162 201//134
f 222//136 218//130 220//159
f 221//161 219//138 222//136
f 225//160 224//139 219//138
f 207//163 217//153 216//121
f 229//164 223//165 220//159
f 229//164 204//157 221//161
f 213//162 228//158 227//129
f 207//163 204//157 214//152
f 225//160 207//163 226//141
f 215//156 229//164 228//158
f 169//108 192//105 172//107
f 171//117 169//108 174//109
f 174//109 172//107 179//111
f 179//111 177//112 174//109
f 173//113 198//114 170//116
f 174//109 173//113 171//117
f 184//127 183//118 179//111
f 181//123 177//112 185//119
f 172//107 197//106 176//110
f 185//119 216//121 181//123
f 181//123 211//122 180//125
f 177//112 181//123 173//113
f 173//113 180//125 198//114
f 191//142 175//126 184//127
f 186//135 190//128 218//130
f 178//140 175//126 189//132
f 179//111 176//110 184//127
f 182//133 176//110 201//134
f 188//137 186//135 222//136
f 219//138 187//131 222//136
f 187//131 219//138 189//132
f 185//119 178//140 216//121
f 188//137 191//142 186//135
f 188//137 187//131 191//142
f 190//128 182//133 227//129
f 185//119 183//118 178//140
f 178//140 189//132 226//141
f 191//142 184//127 190//128
f 194//145 199//143 192//105
f 196//151 202//144 194//145
f 202//144 208//146 199//143
f 208//146 202//144 206//149
f 200//148 195//150 198//114
f 202//144 196//151 200//148
f 215//156 208//146 214//152
f 212//154 217//153 206//149
f 199//143 205//147 197//106
f 217//153 212//154 216//121
f 212//154 210//155 211//122
f 210//155 212//154 200//148
f 209//124 210//155 198//114
f 229//164 215//156 204//157
f 227//129 228//158 218//130
f 207//163 225//160 204//157
f 208//146 215//156 205//147
f 203//120 205//147 201//134
f 223//165 222//136 220//159
f 223//165 221//161 222//136
f 221//161 225//160 219//138
f 226//141 207//163 216//121
f 228//158 229//164 220//159
f 223//165 229//164 221//161
f 201//134 213//162 227//129
f 217//153 207//163 214//152
f 224//139 225//160 226//141
f 213//162 215//156 228//158
