# Blender v2.78 (sub 4) OBJ File: 'ROT.blend'
# www.blender.org
v 0.000000 -0.575823 3.265672
v -0.000000 -1.201860 3.090586
v -0.000000 -0.960264 2.469482
v 0.000000 -0.460045 2.609381
v 0.000000 0.717728 3.237445
v 0.000000 0.003876 3.315260
v 0.000000 0.003493 2.649003
v 0.000000 0.573533 2.586828
v 0.000001 1.335532 3.035216
v 0.000001 1.067174 2.425241
v 0.000002 1.902012 2.716346
v 0.000001 1.519804 2.170456
v 0.000002 2.395398 2.293089
v 0.000001 1.914032 1.832263
v 0.000002 2.796730 1.781708
v 0.000001 2.234706 1.423658
v -0.000002 -3.315261 0.072341
v -0.000002 -3.265672 -0.575826
v -0.000001 -2.609299 -0.460069
v -0.000001 -2.648922 0.057832
v 0.000002 3.090587 1.201858
v 0.000001 2.469504 0.960343
v -0.000002 -3.237446 0.717726
v -0.000001 -2.586746 0.573510
v 0.000001 3.265672 0.575826
v 0.000001 2.609402 0.460128
v -0.000002 -3.035218 1.335530
v -0.000001 -2.425161 1.067150
v -0.000001 -2.716348 1.902010
v -0.000001 -2.170377 1.519781
v -0.000001 -2.293090 2.395396
v -0.000001 -1.832183 1.914010
v -0.000000 -1.781710 2.796730
v -0.000000 -1.423578 2.234684
v 0.000000 0.003876 3.703866
v 0.000000 0.003493 2.262794
v -0.000000 0.575823 -3.265672
v 0.000000 1.201860 -3.090586
v 0.000000 0.960366 -2.469423
v -0.000000 0.460148 -2.609322
v -0.000000 0.003876 -3.308319
v -0.000000 0.003493 -2.641020
v -0.000000 -0.717728 -3.237445
v -0.000000 -0.573431 -2.586768
v -0.000000 -1.335532 -3.035216
v -0.000000 -1.067071 -2.425182
v -0.000001 -1.902012 -2.716346
v -0.000000 -1.519702 -2.170398
v -0.000001 -2.395398 -2.293088
v -0.000001 -1.913930 -1.832204
v -0.000001 -2.796730 -1.781708
v -0.000001 -2.234604 -1.423599
v 0.000001 3.315261 -0.072341
v 0.000001 2.649024 -0.057773
v -0.000001 -3.090587 -1.201858
v -0.000001 -2.469402 -0.960284
v 0.000001 3.237446 -0.717726
v 0.000000 2.586849 -0.573451
v 0.000001 3.035218 -1.335530
v 0.000000 2.425263 -1.067091
v 0.000000 2.716348 -1.902010
v 0.000000 2.170479 -1.519723
v 0.000000 2.293090 -2.395396
v 0.000000 1.832286 -1.913951
v 0.000000 1.781710 -2.796730
v 0.000000 1.423680 -2.234625
v -0.000000 0.003876 -3.703866
v -0.000000 0.003493 -2.262735
v -0.001000 -0.575823 3.265672
v -0.001000 -1.201860 3.090586
v -0.001000 -0.960264 2.469482
v -0.001000 -0.460045 2.609381
v -0.001000 0.717728 3.237445
v -0.001000 0.003876 3.315260
v -0.001000 0.003493 2.649003
v -0.001000 0.573533 2.586828
v -0.000999 1.335532 3.035216
v -0.000999 1.067174 2.425241
v -0.000998 1.902012 2.716346
v -0.000999 1.519804 2.170456
v -0.000998 2.395398 2.293089
v -0.000999 1.914032 1.832263
v -0.000998 2.796730 1.781708
v -0.000999 2.234706 1.423658
v -0.001002 -3.315261 0.072341
v -0.001002 -3.265672 -0.575826
v -0.001001 -2.609299 -0.460069
v -0.001001 -2.648922 0.057832
v -0.000998 3.090587 1.201858
v -0.000999 2.469504 0.960343
v -0.001002 -3.237446 0.717726
v -0.001001 -2.586746 0.573510
v -0.000999 3.265672 0.575826
v -0.000999 2.609402 0.460128
v -0.001002 -3.035218 1.335530
v -0.001001 -2.425161 1.067150
v -0.001001 -2.716348 1.902010
v -0.001001 -2.170377 1.519781
v -0.001001 -2.293090 2.395396
v -0.001001 -1.832183 1.914010
v -0.001000 -1.781710 2.796730
v -0.001000 -1.423578 2.234684
v -0.001000 0.003876 3.703866
v -0.001000 0.003493 2.262794
v -0.001000 0.575823 -3.265672
v -0.001000 1.201860 -3.090586
v -0.001000 0.960366 -2.469423
v -0.001000 0.460148 -2.609322
v -0.001000 0.003876 -3.308319
v -0.001000 0.003493 -2.641020
v -0.001000 -0.717728 -3.237445
v -0.001000 -0.573431 -2.586768
v -0.001000 -1.335532 -3.035216
v -0.001000 -1.067071 -2.425182
v -0.001001 -1.902012 -2.716346
v -0.001000 -1.519702 -2.170398
v -0.001001 -2.395398 -2.293088
v -0.001001 -1.913930 -1.832204
v -0.001001 -2.796730 -1.781708
v -0.001001 -2.234604 -1.423599
v -0.000999 3.315261 -0.072341
v -0.000999 2.649024 -0.057773
v -0.001001 -3.090587 -1.201858
v -0.001001 -2.469402 -0.960284
v -0.000999 3.237446 -0.717726
v -0.001000 2.586849 -0.573451
v -0.000999 3.035218 -1.335530
v -0.001000 2.425263 -1.067091
v -0.001000 2.716348 -1.902010
v -0.001000 2.170479 -1.519723
v -0.001000 2.293090 -2.395396
v -0.001000 1.832286 -1.913951
v -0.001000 1.781710 -2.796730
v -0.001000 1.423680 -2.234625
v -0.001000 0.003876 -3.703866
v -0.001000 0.003493 -2.262735
vn 0.6866 -0.1295 0.7154
vn 0.6857 -0.2638 0.6784
vn 0.7298 0.2478 -0.6371
vn 0.7288 0.1219 -0.6738
vn 0.7378 0.2921 0.6086
vn 0.8944 -0.3295 0.3025
vn 0.9143 -0.2739 -0.2983
vn 0.8105 0.0586 -0.5828
vn 0.6857 0.2932 0.6662
vn 0.7298 -0.2753 -0.6257
vn 0.6857 0.4175 0.5963
vn 0.7298 -0.3921 -0.5600
vn 0.6857 0.5258 0.5033
vn 0.7298 -0.4938 -0.4727
vn 0.6857 0.6139 0.3911
vn 0.7298 -0.5766 -0.3673
vn 0.6857 -0.7277 0.0159
vn 0.6857 -0.7168 -0.1264
vn 0.7298 0.6732 0.1187
vn 0.7298 0.6834 -0.0149
vn 0.6857 0.6784 0.2638
vn 0.7298 -0.6371 -0.2478
vn 0.6857 -0.7106 0.1575
vn 0.7298 0.6674 -0.1480
vn 0.6857 0.7168 0.1264
vn 0.7298 -0.6732 -0.1187
vn 0.6857 -0.6662 0.2932
vn 0.7298 0.6257 -0.2753
vn 0.6857 -0.5963 0.4175
vn 0.7298 0.5600 -0.3921
vn 0.6857 -0.5033 0.5258
vn 0.7298 0.4727 -0.4938
vn 0.6857 -0.3911 0.6139
vn 0.7298 0.3673 -0.5766
vn 0.5529 -0.3966 0.7328
vn 0.5549 -0.4184 -0.7190
vn 0.6855 0.1257 -0.7171
vn 0.6857 0.2638 -0.6784
vn 0.7298 -0.2478 0.6371
vn 0.7307 -0.1162 0.6728
vn 0.8957 0.3259 -0.3025
vn 0.9125 0.2790 0.2991
vn 0.6857 -0.2932 -0.6662
vn 0.7372 -0.2909 -0.6099
vn 0.8098 -0.0572 0.5839
vn 0.7298 0.2753 0.6257
vn 0.6857 -0.4175 -0.5963
vn 0.7298 0.3921 0.5600
vn 0.6857 -0.5258 -0.5033
vn 0.7298 0.4938 0.4727
vn 0.6857 -0.6139 -0.3911
vn 0.7298 0.5766 0.3673
vn 0.6857 0.7277 -0.0159
vn 0.7298 -0.6834 0.0149
vn 0.6857 -0.6784 -0.2638
vn 0.7298 0.6371 0.2478
vn 0.6857 0.7106 -0.1575
vn 0.7298 -0.6674 0.1480
vn 0.6857 0.6662 -0.2932
vn 0.7298 -0.6257 0.2753
vn 0.6857 0.5963 -0.4175
vn 0.7298 -0.5600 0.3921
vn 0.6857 0.5033 -0.5258
vn 0.7298 -0.4727 0.4938
vn 0.6857 0.3911 -0.6139
vn 0.7298 -0.3673 0.5766
vn 0.5530 0.3983 -0.7318
vn 0.5551 0.4201 0.7179
vn -0.6866 -0.1295 0.7154
vn -0.7288 0.1219 -0.6738
vn -0.7298 0.2478 -0.6371
vn -0.6857 -0.2638 0.6784
vn -0.7378 0.2921 0.6086
vn -0.8105 0.0586 -0.5828
vn -0.9143 -0.2739 -0.2983
vn -0.8944 -0.3295 0.3025
vn -0.6857 0.2932 0.6662
vn -0.7298 -0.2753 -0.6257
vn -0.6857 0.4175 0.5963
vn -0.7298 -0.3921 -0.5600
vn -0.6857 0.5258 0.5033
vn -0.7298 -0.4938 -0.4727
vn -0.6857 0.6139 0.3911
vn -0.7298 -0.5766 -0.3673
vn -0.6857 -0.7277 0.0159
vn -0.7298 0.6834 -0.0149
vn -0.7298 0.6732 0.1187
vn -0.6857 -0.7168 -0.1264
vn -0.6857 0.6784 0.2638
vn -0.7298 -0.6371 -0.2478
vn -0.6857 -0.7106 0.1575
vn -0.7298 0.6674 -0.1480
vn -0.6857 0.7168 0.1264
vn -0.7298 -0.6732 -0.1187
vn -0.6857 -0.6662 0.2932
vn -0.7298 0.6257 -0.2753
vn -0.6857 -0.5963 0.4175
vn -0.7298 0.5600 -0.3921
vn -0.6857 -0.5033 0.5258
vn -0.7298 0.4727 -0.4938
vn -0.6857 -0.3911 0.6139
vn -0.7298 0.3673 -0.5766
vn -0.5529 -0.3966 0.7328
vn -0.5549 -0.4184 -0.7190
vn -0.6855 0.1257 -0.7171
vn -0.7307 -0.1162 0.6728
vn -0.7298 -0.2478 0.6371
vn -0.6857 0.2638 -0.6784
vn -0.8957 0.3259 -0.3025
vn -0.9125 0.2790 0.2991
vn -0.6857 -0.2932 -0.6662
vn -0.7298 0.2753 0.6257
vn -0.8098 -0.0572 0.5839
vn -0.7372 -0.2909 -0.6099
vn -0.6857 -0.4175 -0.5963
vn -0.7298 0.3921 0.5600
vn -0.6857 -0.5258 -0.5033
vn -0.7298 0.4938 0.4727
vn -0.6857 -0.6139 -0.3911
vn -0.7298 0.5766 0.3673
vn -0.6857 0.7277 -0.0159
vn -0.7298 -0.6834 0.0149
vn -0.6857 -0.6784 -0.2638
vn -0.7298 0.6371 0.2478
vn -0.6857 0.7106 -0.1575
vn -0.7298 -0.6674 0.1480
vn -0.6857 0.6662 -0.2932
vn -0.7298 -0.6257 0.2753
vn -0.6857 0.5963 -0.4175
vn -0.7298 -0.5600 0.3921
vn -0.6857 0.5033 -0.5258
vn -0.7298 -0.4727 0.4938
vn -0.6857 0.3911 -0.6139
vn -0.7298 -0.3673 0.5766
vn -0.5530 0.3983 -0.7318
vn -0.5551 0.4202 0.7179
s 1
f 1//1 2//2 3//3 4//4
f 5//5 6//6 7//7 8//8
f 9//9 5//5 8//8 10//10
f 11//11 9//9 10//10 12//12
f 13//13 11//11 12//12 14//14
f 15//15 13//13 14//14 16//16
f 17//17 18//18 19//19 20//20
f 21//21 15//15 16//16 22//22
f 23//23 17//17 20//20 24//24
f 25//25 21//21 22//22 26//26
f 27//27 23//23 24//24 28//28
f 29//29 27//27 28//28 30//30
f 31//31 29//29 30//30 32//32
f 33//33 31//31 32//32 34//34
f 2//2 33//33 34//34 3//3
f 4//4 7//7 6//6 1//1
f 6//6 5//5 35//35
f 7//7 36//36 8//8
f 37//37 38//38 39//39 40//40
f 41//41 37//37 40//40 42//42
f 45//43 43//44 44//45 46//46
f 47//47 45//43 46//46 48//48
f 49//49 47//47 48//48 50//50
f 51//51 49//49 50//50 52//52
f 53//53 25//25 26//26 54//54
f 55//55 51//51 52//52 56//56
f 57//57 53//53 54//54 58//58
f 18//18 55//55 56//56 19//19
f 59//59 57//57 58//58 60//60
f 61//61 59//59 60//60 62//62
f 63//63 61//61 62//62 64//64
f 65//65 63//63 64//64 66//66
f 38//38 65//65 66//66 39//39
f 41//41 43//44 67//67
f 42//42 68//68 44//45
f 43//44 41//41 42//42 44//45
f 69//69 72//70 71//71 70//72
f 73//73 76//74 75//75 74//76
f 77//77 78//78 76//74 73//73
f 79//79 80//80 78//78 77//77
f 81//81 82//82 80//80 79//79
f 83//83 84//84 82//82 81//81
f 85//85 88//86 87//87 86//88
f 89//89 90//90 84//84 83//83
f 91//91 92//92 88//86 85//85
f 93//93 94//94 90//90 89//89
f 95//95 96//96 92//92 91//91
f 97//97 98//98 96//96 95//95
f 99//99 100//100 98//98 97//97
f 101//101 102//102 100//100 99//99
f 70//72 71//71 102//102 101//101
f 72//70 69//69 74//76 75//75
f 74//76 103//103 73//73
f 75//75 76//74 104//104
f 105//105 108//106 107//107 106//108
f 109//109 110//110 108//106 105//105
f 113//111 114//112 112//113 111//114
f 115//115 116//116 114//112 113//111
f 117//117 118//118 116//116 115//115
f 119//119 120//120 118//118 117//117
f 121//121 122//122 94//94 93//93
f 123//123 124//124 120//120 119//119
f 125//125 126//126 122//122 121//121
f 86//88 87//87 124//124 123//123
f 127//127 128//128 126//126 125//125
f 129//129 130//130 128//128 127//127
f 131//131 132//132 130//130 129//129
f 133//133 134//134 132//132 131//131
f 106//108 107//107 134//134 133//133
f 109//109 135//135 111//114
f 110//110 112//113 136//136
f 111//114 112//113 110//110 109//109
f 3//3 34//34 102//102 71//71
f 60//60 58//58 126//126 128//128
f 45//43 47//47 115//115 113//111
f 24//24 20//20 88//86 92//92
f 43//44 45//43 113//111 111//114
f 18//18 17//17 85//85 86//88
f 34//34 32//32 100//100 102//102
f 37//37 41//41 109//109 105//105
f 27//27 29//29 97//97 95//95
f 20//20 19//19 87//87 88//86
f 51//51 55//55 123//123 119//119
f 32//32 30//30 98//98 100//100
f 50//50 48//48 116//116 118//118
f 9//9 11//11 79//79 77//77
f 49//49 51//51 119//119 117//117
f 25//25 53//53 121//121 93//93
f 48//48 46//46 114//112 116//116
f 53//53 57//57 125//125 121//121
f 4//4 3//3 71//71 72//70
f 16//16 14//14 82//82 84//84
f 26//26 22//22 90//90 94//94
f 63//63 65//65 133//133 131//131
f 41//41 67//67 135//135 109//109
f 61//61 63//63 131//131 129//129
f 66//66 64//64 132//132 134//134
f 2//2 1//1 69//69 70//72
f 19//19 56//56 124//124 87//87
f 59//59 61//61 129//129 127//127
f 28//28 24//24 92//92 96//96
f 6//6 35//35 103//103 74//76
f 39//39 66//66 134//134 107//107
f 8//8 36//36 104//104 76//74
f 35//35 5//5 73//73 103//103
f 11//11 13//13 81//81 79//79
f 36//36 7//7 75//75 104//104
f 42//42 40//40 108//106 110//110
f 5//5 9//9 77//77 73//73
f 44//45 68//68 136//136 112//113
f 31//31 33//33 101//101 99//99
f 7//7 4//4 72//70 75//75
f 17//17 23//23 91//91 85//85
f 14//14 12//12 80//80 82//82
f 40//40 39//39 107//107 108//106
f 33//33 2//2 70//72 101//101
f 57//57 59//59 127//127 125//125
f 56//56 52//52 120//120 124//124
f 15//15 21//21 89//89 83//83
f 52//52 50//50 118//118 120//120
f 30//30 28//28 96//96 98//98
f 65//65 38//38 106//108 133//133
f 67//67 43//44 111//114 135//135
f 29//29 31//31 99//99 97//97
f 10//10 8//8 76//74 78//78
f 38//38 37//37 105//105 106//108
f 62//62 60//60 128//128 130//130
f 55//55 18//18 86//88 123//123
f 1//1 6//6 74//76 69//69
f 13//13 15//15 83//83 81//81
f 47//47 49//49 117//117 115//115
f 22//22 16//16 84//84 90//90
f 54//54 26//26 94//94 122//122
f 64//64 62//62 130//130 132//132
f 23//23 27//27 95//95 91//91
f 21//21 25//25 93//93 89//89
f 68//68 42//42 110//110 136//136
f 12//12 10//10 78//78 80//80
f 58//58 54//54 122//122 126//126
f 46//46 44//45 112//113 114//112
