# Blender v2.78 (sub 4) OBJ File: ''
# www.blender.org
v 0.000000 0.000000 -0.024000
v 1.200000 0.000000 -0.024000
v 1.200000 -0.004682 -0.023539
v 0.000000 -0.004682 -0.023539
v 1.200000 -0.009184 -0.022173
v 0.000000 -0.009184 -0.022173
v 1.200000 -0.013333 -0.019956
v 0.000000 -0.013334 -0.019955
v 1.200000 -0.016970 -0.016971
v 0.000000 -0.016971 -0.016971
v 1.200000 -0.019955 -0.013334
v 0.000000 -0.019955 -0.013334
v 1.200000 -0.022173 -0.009185
v 0.000000 -0.022173 -0.009184
v 1.200000 -0.023539 -0.004682
v 0.000000 -0.023539 -0.004682
v 1.200000 -0.024000 -0.000000
v 0.000000 -0.024000 -0.000000
v 1.200000 -0.023539 0.004682
v 0.000000 -0.023539 0.004682
v 1.200000 -0.022173 0.009184
v 0.000000 -0.022173 0.009184
v 1.200000 -0.019955 0.013333
v 0.000000 -0.019955 0.013334
v 1.200000 -0.016970 0.016970
v 0.000000 -0.016971 0.016971
v 1.200000 -0.013333 0.019955
v 0.000000 -0.013334 0.019955
v 1.200000 -0.009184 0.022173
v 0.000000 -0.009184 0.022173
v 1.200000 -0.004682 0.023539
v 0.000000 -0.004682 0.023539
v 1.200000 -0.000000 0.024000
v 0.000000 -0.000000 0.024000
v 1.200000 0.004683 0.023539
v 0.000000 0.004682 0.023539
v 1.200000 0.009185 0.022173
v 0.000000 0.009184 0.022173
v 1.200000 0.013334 0.019955
v 0.000000 0.013334 0.019955
v 1.200000 0.016971 0.016970
v 0.000000 0.016971 0.016971
v 1.200000 0.019956 0.013333
v 0.000000 0.019955 0.013334
v 1.200000 0.022173 0.009184
v 0.000000 0.022173 0.009184
v 1.200000 0.023539 0.004682
v 0.000000 0.023539 0.004682
v 1.200000 0.024000 0.000000
v 0.000000 0.024000 0.000000
v 1.200000 0.023539 -0.004682
v 0.000000 0.023539 -0.004682
v 1.200000 0.022173 -0.009185
v 0.000000 0.022173 -0.009184
v 1.200000 0.019956 -0.013334
v 0.000000 0.019955 -0.013334
v 1.200000 0.016971 -0.016971
v 0.000000 0.016971 -0.016971
v 1.200000 0.013334 -0.019956
v 0.000000 0.013334 -0.019955
v 1.200000 0.009185 -0.022173
v 0.000000 0.009184 -0.022173
v 1.200000 0.004682 -0.023539
v 0.000000 0.004682 -0.023539
v 1.200000 -0.130000 0.130000
v 1.200000 0.130000 0.130000
v 1.200000 -0.130000 -0.130000
v 1.200000 0.130000 -0.130000
v 1.460000 -0.130000 0.130000
v 1.460000 0.130000 0.130000
v 1.460000 -0.130000 -0.130000
v 1.460000 0.130000 -0.130000
vn -1.0000 0.0000 0.0000
vn 0.0000 0.0000 -1.0000
vn 1.0000 0.0000 0.0000
vn 0.0000 0.0000 1.0000
vn 0.0000 -1.0000 0.0000
vn 0.0000 1.0000 0.0000
vn 0.0000 -0.1951 -0.9808
vn -0.0000 -0.3827 -0.9239
vn 0.0000 -0.5555 -0.8315
vn 0.0000 -0.7071 -0.7071
vn 0.0000 -0.8315 -0.5556
vn -0.0000 -0.9239 -0.3827
vn -0.0000 -0.9808 -0.1951
vn 0.0000 -0.9808 0.1951
vn 0.0000 -0.9239 0.3827
vn 0.0000 -0.8315 0.5556
vn 0.0000 -0.7071 0.7071
vn 0.0000 -0.5556 0.8315
vn 0.0000 -0.3827 0.9239
vn 0.0000 -0.1951 0.9808
vn -0.0000 0.1951 0.9808
vn -0.0000 0.3827 0.9239
vn 0.0000 0.5556 0.8315
vn 0.0000 0.7071 0.7071
vn 0.0000 0.8315 0.5555
vn -0.0000 0.9239 0.3827
vn 0.0000 0.9808 0.1951
vn -0.0000 0.9808 -0.1951
vn -0.0000 0.9239 -0.3827
vn -0.0000 0.8315 -0.5555
vn -0.0000 0.7071 -0.7071
vn -0.0000 0.5555 -0.8315
vn -0.0000 0.3827 -0.9239
vn -0.0000 0.1951 -0.9808
s off
f 65//1 66//1 68//1 67//1
f 67//2 68//2 72//2 71//2
f 71//3 72//3 70//3 69//3
f 69//4 70//4 66//4 65//4
f 67//5 71//5 69//5 65//5
f 72//6 68//6 66//6 70//6
s 1
f 1//2 2//2 3//7 4//7
f 4//7 3//7 5//8 6//8
f 6//8 5//8 7//9 8//9
f 8//9 7//9 9//10 10//10
f 10//10 9//10 11//11 12//11
f 12//11 11//11 13//12 14//12
f 14//12 13//12 15//13 16//13
f 16//13 15//13 17//5 18//5
f 18//5 17//5 19//14 20//14
f 20//14 19//14 21//15 22//15
f 22//15 21//15 23//16 24//16
f 24//16 23//16 25//17 26//17
f 26//17 25//17 27//18 28//18
f 28//18 27//18 29//19 30//19
f 30//19 29//19 31//20 32//20
f 32//20 31//20 33//4 34//4
f 34//4 33//4 35//21 36//21
f 36//21 35//21 37//22 38//22
f 38//22 37//22 39//23 40//23
f 40//23 39//23 41//24 42//24
f 42//24 41//24 43//25 44//25
f 44//25 43//25 45//26 46//26
f 46//26 45//26 47//27 48//27
f 48//27 47//27 49//6 50//6
f 50//6 49//6 51//28 52//28
f 52//28 51//28 53//29 54//29
f 54//29 53//29 55//30 56//30
f 56//30 55//30 57//31 58//31
f 58//31 57//31 59//32 60//32
f 60//32 59//32 61//33 62//33
f 62//33 61//33 63//34 64//34
f 64//34 63//34 2//2 1//2
