# Blender v2.78 (sub 4) OBJ File: ''
# www.blender.org
v 1.200000 -0.130000 0.130000
v 1.200000 0.130000 0.130000
v 1.200000 0.130000 -0.130000
v 1.200000 -0.130000 -0.130000
v 1.460000 0.130000 -0.130000
v 1.460000 -0.130000 -0.130000
v 1.460000 0.130000 0.130000
v 1.460000 -0.130000 0.130000
v 0.000000 -0.000000 -0.040800
v 1.200000 -0.000000 -0.040800
v 1.200000 -0.007959 -0.040016
v 0.000000 -0.007959 -0.040016
v 1.200000 -0.015613 -0.037694
v 0.000000 -0.015613 -0.037694
v 1.200000 -0.022666 -0.033925
v 0.000000 -0.022668 -0.033923
v 1.200000 -0.028849 -0.028850
v 0.000000 -0.028851 -0.028851
v 1.200000 -0.033924 -0.022667
v 0.000000 -0.033924 -0.022668
v 1.200000 -0.037694 -0.015614
v 0.000000 -0.037694 -0.015613
v 1.200000 -0.040016 -0.007959
v 0.000000 -0.040016 -0.007959
v 1.200000 -0.040800 0.000000
v 0.000000 -0.040800 0.000000
v 1.200000 -0.040016 0.007960
v 0.000000 -0.040016 0.007959
v 1.200000 -0.037694 0.015613
v 0.000000 -0.037694 0.015613
v 1.200000 -0.033924 0.022666
v -0.000000 -0.033924 0.022668
v 1.200000 -0.028849 0.028849
v -0.000000 -0.028851 0.028851
v 1.200000 -0.022666 0.033924
v -0.000000 -0.022668 0.033924
v 1.200000 -0.015613 0.037694
v -0.000000 -0.015613 0.037694
v 1.200000 -0.007959 0.040017
v -0.000000 -0.007959 0.040016
v 1.200000 -0.000000 0.040800
v -0.000000 -0.000000 0.040800
v 1.200000 0.007961 0.040017
v -0.000000 0.007959 0.040016
v 1.200000 0.015614 0.037694
v -0.000000 0.015613 0.037694
v 1.200000 0.022668 0.033924
v -0.000000 0.022668 0.033924
v 1.200000 0.028851 0.028849
v -0.000000 0.028851 0.028851
v 1.200000 0.033925 0.022666
v -0.000000 0.033923 0.022668
v 1.200000 0.037694 0.015613
v -0.000000 0.037694 0.015613
v 1.200000 0.040016 0.007960
v -0.000000 0.040016 0.007959
v 1.200000 0.040800 0.000000
v -0.000000 0.040800 0.000000
v 1.200000 0.040016 -0.007959
v -0.000000 0.040016 -0.007959
v 1.200000 0.037694 -0.015614
v -0.000000 0.037694 -0.015613
v 1.200000 0.033925 -0.022667
v 0.000000 0.033923 -0.022668
v 1.200000 0.028851 -0.028850
v 0.000000 0.028851 -0.028851
v 1.200000 0.022668 -0.033925
v 0.000000 0.022668 -0.033923
v 1.200000 0.015614 -0.037694
v 0.000000 0.015613 -0.037694
v 1.200000 0.007959 -0.040016
v 0.000000 0.007959 -0.040016
vn -1.0000 0.0000 0.0000
vn 0.0000 0.0000 -1.0000
vn 1.0000 0.0000 0.0000
vn -0.0000 0.0000 1.0000
vn 0.0000 -1.0000 0.0000
vn -0.0000 1.0000 0.0000
vn 0.0000 -0.1951 -0.9808
vn 0.0000 -0.3827 -0.9239
vn 0.0000 -0.5555 -0.8315
vn 0.0000 -0.7071 -0.7071
vn 0.0000 -0.8315 -0.5556
vn -0.0000 -0.9239 -0.3827
vn 0.0000 -0.9808 -0.1951
vn 0.0000 -0.9808 0.1951
vn 0.0000 -0.9239 0.3827
vn 0.0000 -0.8315 0.5556
vn 0.0000 -0.7071 0.7071
vn 0.0000 -0.5556 0.8315
vn -0.0000 -0.3827 0.9239
vn -0.0000 -0.1951 0.9808
vn -0.0000 0.1951 0.9808
vn -0.0000 0.3827 0.9239
vn -0.0000 0.5556 0.8315
vn 0.0000 0.7071 0.7071
vn -0.0000 0.8315 0.5555
vn -0.0000 0.9239 0.3827
vn -0.0000 0.9808 0.1951
vn -0.0000 0.9808 -0.1951
vn -0.0000 0.9239 -0.3827
vn -0.0000 0.8315 -0.5555
vn -0.0000 0.7071 -0.7071
vn -0.0000 0.5555 -0.8315
vn -0.0000 0.3827 -0.9239
vn 0.0000 0.1951 -0.9808
s off
f 1//1 2//1 3//1 4//1
f 4//2 3//2 5//2 6//2
f 6//3 5//3 7//3 8//3
f 8//4 7//4 2//4 1//4
f 4//5 6//5 8//5 1//5
f 5//6 3//6 2//6 7//6
s 1
f 9//2 10//2 11//7 12//7
f 12//7 11//7 13//8 14//8
f 14//8 13//8 15//9 16//9
f 16//9 15//9 17//10 18//10
f 18//10 17//10 19//11 20//11
f 20//11 19//11 21//12 22//12
f 22//12 21//12 23//13 24//13
f 24//13 23//13 25//5 26//5
f 26//5 25//5 27//14 28//14
f 28//14 27//14 29//15 30//15
f 30//15 29//15 31//16 32//16
f 32//16 31//16 33//17 34//17
f 34//17 33//17 35//18 36//18
f 36//18 35//18 37//19 38//19
f 38//19 37//19 39//20 40//20
f 40//20 39//20 41//4 42//4
f 42//4 41//4 43//21 44//21
f 44//21 43//21 45//22 46//22
f 46//22 45//22 47//23 48//23
f 48//23 47//23 49//24 50//24
f 50//24 49//24 51//25 52//25
f 52//25 51//25 53//26 54//26
f 54//26 53//26 55//27 56//27
f 56//27 55//27 57//6 58//6
f 58//6 57//6 59//28 60//28
f 60//28 59//28 61//29 62//29
f 62//29 61//29 63//30 64//30
f 64//30 63//30 65//31 66//31
f 66//31 65//31 67//32 68//32
f 68//32 67//32 69//33 70//33
f 70//33 69//33 71//34 72//34
f 72//34 71//34 10//2 9//2
