# Jahshaka primitive: Hemisphere
# Generated by scripts/primitives/genprimitives.py - modelled centred in the +/-1 box.
o Hemisphere
v 0.991445 -0.369474 0.000000
v 0.972395 -0.369474 0.193421
v 0.980785 -0.500000 0.195090
v 1.000000 -0.500000 0.000000
v 0.915976 -0.369474 0.379410
v 0.923880 -0.500000 0.382683
v 0.824356 -0.369474 0.550817
v 0.831470 -0.500000 0.555570
v 0.701057 -0.369474 0.701057
v 0.707107 -0.500000 0.707107
v 0.550817 -0.369474 0.824356
v 0.555570 -0.500000 0.831470
v 0.379410 -0.369474 0.915976
v 0.382683 -0.500000 0.923880
v 0.193421 -0.369474 0.972395
v 0.195090 -0.500000 0.980785
v 0.000000 -0.369474 0.991445
v 0.000000 -0.500000 1.000000
v -0.193421 -0.369474 0.972395
v -0.195090 -0.500000 0.980785
v -0.379410 -0.369474 0.915976
v -0.382683 -0.500000 0.923880
v -0.550817 -0.369474 0.824356
v -0.555570 -0.500000 0.831470
v -0.701057 -0.369474 0.701057
v -0.707107 -0.500000 0.707107
v -0.824356 -0.369474 0.550817
v -0.831470 -0.500000 0.555570
v -0.915976 -0.369474 0.379410
v -0.923880 -0.500000 0.382683
v -0.972395 -0.369474 0.193421
v -0.980785 -0.500000 0.195090
v -0.991445 -0.369474 0.000000
v -1.000000 -0.500000 0.000000
v -0.972395 -0.369474 -0.193421
v -0.980785 -0.500000 -0.195090
v -0.915976 -0.369474 -0.379410
v -0.923880 -0.500000 -0.382683
v -0.824356 -0.369474 -0.550817
v -0.831470 -0.500000 -0.555570
v -0.701057 -0.369474 -0.701057
v -0.707107 -0.500000 -0.707107
v -0.550817 -0.369474 -0.824356
v -0.555570 -0.500000 -0.831470
v -0.379410 -0.369474 -0.915976
v -0.382683 -0.500000 -0.923880
v -0.193421 -0.369474 -0.972395
v -0.195090 -0.500000 -0.980785
v 0.000000 -0.369474 -0.991445
v 0.000000 -0.500000 -1.000000
v 0.193421 -0.369474 -0.972395
v 0.195090 -0.500000 -0.980785
v 0.379410 -0.369474 -0.915976
v 0.382683 -0.500000 -0.923880
v 0.550817 -0.369474 -0.824356
v 0.555570 -0.500000 -0.831470
v 0.701057 -0.369474 -0.701057
v 0.707107 -0.500000 -0.707107
v 0.824356 -0.369474 -0.550817
v 0.831470 -0.500000 -0.555570
v 0.915976 -0.369474 -0.379410
v 0.923880 -0.500000 -0.382683
v 0.972395 -0.369474 -0.193421
v 0.980785 -0.500000 -0.195090
v 0.965926 -0.241181 0.000000
v 0.947366 -0.241181 0.188443
v 0.892399 -0.241181 0.369644
v 0.803138 -0.241181 0.536640
v 0.683013 -0.241181 0.683013
v 0.536640 -0.241181 0.803138
v 0.369644 -0.241181 0.892399
v 0.188443 -0.241181 0.947366
v 0.000000 -0.241181 0.965926
v -0.188443 -0.241181 0.947366
v -0.369644 -0.241181 0.892399
v -0.536640 -0.241181 0.803138
v -0.683013 -0.241181 0.683013
v -0.803138 -0.241181 0.536640
v -0.892399 -0.241181 0.369644
v -0.947366 -0.241181 0.188443
v -0.965926 -0.241181 0.000000
v -0.947366 -0.241181 -0.188443
v -0.892399 -0.241181 -0.369644
v -0.803138 -0.241181 -0.536640
v -0.683013 -0.241181 -0.683013
v -0.536640 -0.241181 -0.803138
v -0.369644 -0.241181 -0.892399
v -0.188443 -0.241181 -0.947366
v 0.000000 -0.241181 -0.965926
v 0.188443 -0.241181 -0.947366
v 0.369644 -0.241181 -0.892399
v 0.536640 -0.241181 -0.803138
v 0.683013 -0.241181 -0.683013
v 0.803138 -0.241181 -0.536640
v 0.892399 -0.241181 -0.369644
v 0.947366 -0.241181 -0.188443
v 0.923880 -0.117317 0.000000
v 0.906127 -0.117317 0.180240
v 0.853553 -0.117317 0.353553
v 0.768178 -0.117317 0.513280
v 0.653281 -0.117317 0.653281
v 0.513280 -0.117317 0.768178
v 0.353553 -0.117317 0.853553
v 0.180240 -0.117317 0.906127
v 0.000000 -0.117317 0.923880
v -0.180240 -0.117317 0.906127
v -0.353553 -0.117317 0.853553
v -0.513280 -0.117317 0.768178
v -0.653281 -0.117317 0.653281
v -0.768178 -0.117317 0.513280
v -0.853553 -0.117317 0.353553
v -0.906127 -0.117317 0.180240
v -0.923880 -0.117317 0.000000
v -0.906127 -0.117317 -0.180240
v -0.853553 -0.117317 -0.353553
v -0.768178 -0.117317 -0.513280
v -0.653281 -0.117317 -0.653281
v -0.513280 -0.117317 -0.768178
v -0.353553 -0.117317 -0.853553
v -0.180240 -0.117317 -0.906127
v 0.000000 -0.117317 -0.923880
v 0.180240 -0.117317 -0.906127
v 0.353553 -0.117317 -0.853553
v 0.513280 -0.117317 -0.768178
v 0.653281 -0.117317 -0.653281
v 0.768178 -0.117317 -0.513280
v 0.853553 -0.117317 -0.353553
v 0.906127 -0.117317 -0.180240
v 0.866025 0.000000 0.000000
v 0.849385 0.000000 0.168953
v 0.800103 0.000000 0.331414
v 0.720074 0.000000 0.481138
v 0.612372 0.000000 0.612372
v 0.481138 0.000000 0.720074
v 0.331414 0.000000 0.800103
v 0.168953 0.000000 0.849385
v 0.000000 0.000000 0.866025
v -0.168953 0.000000 0.849385
v -0.331414 0.000000 0.800103
v -0.481138 0.000000 0.720074
v -0.612372 0.000000 0.612372
v -0.720074 0.000000 0.481138
v -0.800103 0.000000 0.331414
v -0.849385 0.000000 0.168953
v -0.866025 0.000000 0.000000
v -0.849385 0.000000 -0.168953
v -0.800103 0.000000 -0.331414
v -0.720074 0.000000 -0.481138
v -0.612372 0.000000 -0.612372
v -0.481138 0.000000 -0.720074
v -0.331414 0.000000 -0.800103
v -0.168953 0.000000 -0.849385
v 0.000000 0.000000 -0.866025
v 0.168953 0.000000 -0.849385
v 0.331414 0.000000 -0.800103
v 0.481138 0.000000 -0.720074
v 0.612372 0.000000 -0.612372
v 0.720074 0.000000 -0.481138
v 0.800103 0.000000 -0.331414
v 0.849385 0.000000 -0.168953
v 0.793353 0.108761 0.000000
v 0.778109 0.108761 0.154776
v 0.732963 0.108761 0.303603
v 0.659649 0.108761 0.440764
v 0.560986 0.108761 0.560986
v 0.440764 0.108761 0.659649
v 0.303603 0.108761 0.732963
v 0.154776 0.108761 0.778109
v 0.000000 0.108761 0.793353
v -0.154776 0.108761 0.778109
v -0.303603 0.108761 0.732963
v -0.440764 0.108761 0.659649
v -0.560986 0.108761 0.560986
v -0.659649 0.108761 0.440764
v -0.732963 0.108761 0.303603
v -0.778109 0.108761 0.154776
v -0.793353 0.108761 0.000000
v -0.778109 0.108761 -0.154776
v -0.732963 0.108761 -0.303603
v -0.659649 0.108761 -0.440764
v -0.560986 0.108761 -0.560986
v -0.440764 0.108761 -0.659649
v -0.303603 0.108761 -0.732963
v -0.154776 0.108761 -0.778109
v 0.000000 0.108761 -0.793353
v 0.154776 0.108761 -0.778109
v 0.303603 0.108761 -0.732963
v 0.440764 0.108761 -0.659649
v 0.560986 0.108761 -0.560986
v 0.659649 0.108761 -0.440764
v 0.732963 0.108761 -0.303603
v 0.778109 0.108761 -0.154776
v 0.707107 0.207107 0.000000
v 0.693520 0.207107 0.137950
v 0.653281 0.207107 0.270598
v 0.587938 0.207107 0.392847
v 0.500000 0.207107 0.500000
v 0.392847 0.207107 0.587938
v 0.270598 0.207107 0.653281
v 0.137950 0.207107 0.693520
v 0.000000 0.207107 0.707107
v -0.137950 0.207107 0.693520
v -0.270598 0.207107 0.653281
v -0.392847 0.207107 0.587938
v -0.500000 0.207107 0.500000
v -0.587938 0.207107 0.392847
v -0.653281 0.207107 0.270598
v -0.693520 0.207107 0.137950
v -0.707107 0.207107 0.000000
v -0.693520 0.207107 -0.137950
v -0.653281 0.207107 -0.270598
v -0.587938 0.207107 -0.392847
v -0.500000 0.207107 -0.500000
v -0.392847 0.207107 -0.587938
v -0.270598 0.207107 -0.653281
v -0.137950 0.207107 -0.693520
v 0.000000 0.207107 -0.707107
v 0.137950 0.207107 -0.693520
v 0.270598 0.207107 -0.653281
v 0.392847 0.207107 -0.587938
v 0.500000 0.207107 -0.500000
v 0.587938 0.207107 -0.392847
v 0.653281 0.207107 -0.270598
v 0.693520 0.207107 -0.137950
v 0.608761 0.293353 0.000000
v 0.597064 0.293353 0.118763
v 0.562422 0.293353 0.232963
v 0.506167 0.293353 0.338210
v 0.430459 0.293353 0.430459
v 0.338210 0.293353 0.506167
v 0.232963 0.293353 0.562422
v 0.118763 0.293353 0.597064
v 0.000000 0.293353 0.608761
v -0.118763 0.293353 0.597064
v -0.232963 0.293353 0.562422
v -0.338210 0.293353 0.506167
v -0.430459 0.293353 0.430459
v -0.506167 0.293353 0.338210
v -0.562422 0.293353 0.232963
v -0.597064 0.293353 0.118763
v -0.608761 0.293353 0.000000
v -0.597064 0.293353 -0.118763
v -0.562422 0.293353 -0.232963
v -0.506167 0.293353 -0.338210
v -0.430459 0.293353 -0.430459
v -0.338210 0.293353 -0.506167
v -0.232963 0.293353 -0.562422
v -0.118763 0.293353 -0.597064
v 0.000000 0.293353 -0.608761
v 0.118763 0.293353 -0.597064
v 0.232963 0.293353 -0.562422
v 0.338210 0.293353 -0.506167
v 0.430459 0.293353 -0.430459
v 0.506167 0.293353 -0.338210
v 0.562422 0.293353 -0.232963
v 0.597064 0.293353 -0.118763
v 0.500000 0.366025 0.000000
v 0.490393 0.366025 0.097545
v 0.461940 0.366025 0.191342
v 0.415735 0.366025 0.277785
v 0.353553 0.366025 0.353553
v 0.277785 0.366025 0.415735
v 0.191342 0.366025 0.461940
v 0.097545 0.366025 0.490393
v 0.000000 0.366025 0.500000
v -0.097545 0.366025 0.490393
v -0.191342 0.366025 0.461940
v -0.277785 0.366025 0.415735
v -0.353553 0.366025 0.353553
v -0.415735 0.366025 0.277785
v -0.461940 0.366025 0.191342
v -0.490393 0.366025 0.097545
v -0.500000 0.366025 0.000000
v -0.490393 0.366025 -0.097545
v -0.461940 0.366025 -0.191342
v -0.415735 0.366025 -0.277785
v -0.353553 0.366025 -0.353553
v -0.277785 0.366025 -0.415735
v -0.191342 0.366025 -0.461940
v -0.097545 0.366025 -0.490393
v 0.000000 0.366025 -0.500000
v 0.097545 0.366025 -0.490393
v 0.191342 0.366025 -0.461940
v 0.277785 0.366025 -0.415735
v 0.353553 0.366025 -0.353553
v 0.415735 0.366025 -0.277785
v 0.461940 0.366025 -0.191342
v 0.490393 0.366025 -0.097545
v 0.382683 0.423880 0.000000
v 0.375330 0.423880 0.074658
v 0.353553 0.423880 0.146447
v 0.318190 0.423880 0.212608
v 0.270598 0.423880 0.270598
v 0.212608 0.423880 0.318190
v 0.146447 0.423880 0.353553
v 0.074658 0.423880 0.375330
v 0.000000 0.423880 0.382683
v -0.074658 0.423880 0.375330
v -0.146447 0.423880 0.353553
v -0.212608 0.423880 0.318190
v -0.270598 0.423880 0.270598
v -0.318190 0.423880 0.212608
v -0.353553 0.423880 0.146447
v -0.375330 0.423880 0.074658
v -0.382683 0.423880 0.000000
v -0.375330 0.423880 -0.074658
v -0.353553 0.423880 -0.146447
v -0.318190 0.423880 -0.212608
v -0.270598 0.423880 -0.270598
v -0.212608 0.423880 -0.318190
v -0.146447 0.423880 -0.353553
v -0.074658 0.423880 -0.375330
v 0.000000 0.423880 -0.382683
v 0.074658 0.423880 -0.375330
v 0.146447 0.423880 -0.353553
v 0.212608 0.423880 -0.318190
v 0.270598 0.423880 -0.270598
v 0.318190 0.423880 -0.212608
v 0.353553 0.423880 -0.146447
v 0.375330 0.423880 -0.074658
v 0.258819 0.465926 0.000000
v 0.253846 0.465926 0.050493
v 0.239118 0.465926 0.099046
v 0.215200 0.465926 0.143792
v 0.183013 0.465926 0.183013
v 0.143792 0.465926 0.215200
v 0.099046 0.465926 0.239118
v 0.050493 0.465926 0.253846
v 0.000000 0.465926 0.258819
v -0.050493 0.465926 0.253846
v -0.099046 0.465926 0.239118
v -0.143792 0.465926 0.215200
v -0.183013 0.465926 0.183013
v -0.215200 0.465926 0.143792
v -0.239118 0.465926 0.099046
v -0.253846 0.465926 0.050493
v -0.258819 0.465926 0.000000
v -0.253846 0.465926 -0.050493
v -0.239118 0.465926 -0.099046
v -0.215200 0.465926 -0.143792
v -0.183013 0.465926 -0.183013
v -0.143792 0.465926 -0.215200
v -0.099046 0.465926 -0.239118
v -0.050493 0.465926 -0.253846
v 0.000000 0.465926 -0.258819
v 0.050493 0.465926 -0.253846
v 0.099046 0.465926 -0.239118
v 0.143792 0.465926 -0.215200
v 0.183013 0.465926 -0.183013
v 0.215200 0.465926 -0.143792
v 0.239118 0.465926 -0.099046
v 0.253846 0.465926 -0.050493
v 0.130526 0.491445 0.000000
v 0.128018 0.491445 0.025464
v 0.120590 0.491445 0.049950
v 0.108529 0.491445 0.072516
v 0.092296 0.491445 0.092296
v 0.072516 0.491445 0.108529
v 0.049950 0.491445 0.120590
v 0.025464 0.491445 0.128018
v 0.000000 0.491445 0.130526
v -0.025464 0.491445 0.128018
v -0.049950 0.491445 0.120590
v -0.072516 0.491445 0.108529
v -0.092296 0.491445 0.092296
v -0.108529 0.491445 0.072516
v -0.120590 0.491445 0.049950
v -0.128018 0.491445 0.025464
v -0.130526 0.491445 0.000000
v -0.128018 0.491445 -0.025464
v -0.120590 0.491445 -0.049950
v -0.108529 0.491445 -0.072516
v -0.092296 0.491445 -0.092296
v -0.072516 0.491445 -0.108529
v -0.049950 0.491445 -0.120590
v -0.025464 0.491445 -0.128018
v 0.000000 0.491445 -0.130526
v 0.025464 0.491445 -0.128018
v 0.049950 0.491445 -0.120590
v 0.072516 0.491445 -0.108529
v 0.092296 0.491445 -0.092296
v 0.108529 0.491445 -0.072516
v 0.120590 0.491445 -0.049950
v 0.128018 0.491445 -0.025464
v 0.000000 0.500000 0.000000
v 0.000000 -0.500000 0.000000
vt 0.000000 0.083333
vt 0.031250 0.083333
vt 0.031250 0.000000
vt 0.000000 0.000000
vt 0.062500 0.083333
vt 0.062500 0.000000
vt 0.093750 0.083333
vt 0.093750 0.000000
vt 0.125000 0.083333
vt 0.125000 0.000000
vt 0.156250 0.083333
vt 0.156250 0.000000
vt 0.187500 0.083333
vt 0.187500 0.000000
vt 0.218750 0.083333
vt 0.218750 0.000000
vt 0.250000 0.083333
vt 0.250000 0.000000
vt 0.281250 0.083333
vt 0.281250 0.000000
vt 0.312500 0.083333
vt 0.312500 0.000000
vt 0.343750 0.083333
vt 0.343750 0.000000
vt 0.375000 0.083333
vt 0.375000 0.000000
vt 0.406250 0.083333
vt 0.406250 0.000000
vt 0.437500 0.083333
vt 0.437500 0.000000
vt 0.468750 0.083333
vt 0.468750 0.000000
vt 0.500000 0.083333
vt 0.500000 0.000000
vt 0.531250 0.083333
vt 0.531250 0.000000
vt 0.562500 0.083333
vt 0.562500 0.000000
vt 0.593750 0.083333
vt 0.593750 0.000000
vt 0.625000 0.083333
vt 0.625000 0.000000
vt 0.656250 0.083333
vt 0.656250 0.000000
vt 0.687500 0.083333
vt 0.687500 0.000000
vt 0.718750 0.083333
vt 0.718750 0.000000
vt 0.750000 0.083333
vt 0.750000 0.000000
vt 0.781250 0.083333
vt 0.781250 0.000000
vt 0.812500 0.083333
vt 0.812500 0.000000
vt 0.843750 0.083333
vt 0.843750 0.000000
vt 0.875000 0.083333
vt 0.875000 0.000000
vt 0.906250 0.083333
vt 0.906250 0.000000
vt 0.937500 0.083333
vt 0.937500 0.000000
vt 0.968750 0.083333
vt 0.968750 0.000000
vt 1.000000 0.083333
vt 1.000000 0.000000
vt 0.000000 0.166667
vt 0.031250 0.166667
vt 0.062500 0.166667
vt 0.093750 0.166667
vt 0.125000 0.166667
vt 0.156250 0.166667
vt 0.187500 0.166667
vt 0.218750 0.166667
vt 0.250000 0.166667
vt 0.281250 0.166667
vt 0.312500 0.166667
vt 0.343750 0.166667
vt 0.375000 0.166667
vt 0.406250 0.166667
vt 0.437500 0.166667
vt 0.468750 0.166667
vt 0.500000 0.166667
vt 0.531250 0.166667
vt 0.562500 0.166667
vt 0.593750 0.166667
vt 0.625000 0.166667
vt 0.656250 0.166667
vt 0.687500 0.166667
vt 0.718750 0.166667
vt 0.750000 0.166667
vt 0.781250 0.166667
vt 0.812500 0.166667
vt 0.843750 0.166667
vt 0.875000 0.166667
vt 0.906250 0.166667
vt 0.937500 0.166667
vt 0.968750 0.166667
vt 1.000000 0.166667
vt 0.000000 0.250000
vt 0.031250 0.250000
vt 0.062500 0.250000
vt 0.093750 0.250000
vt 0.125000 0.250000
vt 0.156250 0.250000
vt 0.187500 0.250000
vt 0.218750 0.250000
vt 0.250000 0.250000
vt 0.281250 0.250000
vt 0.312500 0.250000
vt 0.343750 0.250000
vt 0.375000 0.250000
vt 0.406250 0.250000
vt 0.437500 0.250000
vt 0.468750 0.250000
vt 0.500000 0.250000
vt 0.531250 0.250000
vt 0.562500 0.250000
vt 0.593750 0.250000
vt 0.625000 0.250000
vt 0.656250 0.250000
vt 0.687500 0.250000
vt 0.718750 0.250000
vt 0.750000 0.250000
vt 0.781250 0.250000
vt 0.812500 0.250000
vt 0.843750 0.250000
vt 0.875000 0.250000
vt 0.906250 0.250000
vt 0.937500 0.250000
vt 0.968750 0.250000
vt 1.000000 0.250000
vt 0.000000 0.333333
vt 0.031250 0.333333
vt 0.062500 0.333333
vt 0.093750 0.333333
vt 0.125000 0.333333
vt 0.156250 0.333333
vt 0.187500 0.333333
vt 0.218750 0.333333
vt 0.250000 0.333333
vt 0.281250 0.333333
vt 0.312500 0.333333
vt 0.343750 0.333333
vt 0.375000 0.333333
vt 0.406250 0.333333
vt 0.437500 0.333333
vt 0.468750 0.333333
vt 0.500000 0.333333
vt 0.531250 0.333333
vt 0.562500 0.333333
vt 0.593750 0.333333
vt 0.625000 0.333333
vt 0.656250 0.333333
vt 0.687500 0.333333
vt 0.718750 0.333333
vt 0.750000 0.333333
vt 0.781250 0.333333
vt 0.812500 0.333333
vt 0.843750 0.333333
vt 0.875000 0.333333
vt 0.906250 0.333333
vt 0.937500 0.333333
vt 0.968750 0.333333
vt 1.000000 0.333333
vt 0.000000 0.416667
vt 0.031250 0.416667
vt 0.062500 0.416667
vt 0.093750 0.416667
vt 0.125000 0.416667
vt 0.156250 0.416667
vt 0.187500 0.416667
vt 0.218750 0.416667
vt 0.250000 0.416667
vt 0.281250 0.416667
vt 0.312500 0.416667
vt 0.343750 0.416667
vt 0.375000 0.416667
vt 0.406250 0.416667
vt 0.437500 0.416667
vt 0.468750 0.416667
vt 0.500000 0.416667
vt 0.531250 0.416667
vt 0.562500 0.416667
vt 0.593750 0.416667
vt 0.625000 0.416667
vt 0.656250 0.416667
vt 0.687500 0.416667
vt 0.718750 0.416667
vt 0.750000 0.416667
vt 0.781250 0.416667
vt 0.812500 0.416667
vt 0.843750 0.416667
vt 0.875000 0.416667
vt 0.906250 0.416667
vt 0.937500 0.416667
vt 0.968750 0.416667
vt 1.000000 0.416667
vt 0.000000 0.500000
vt 0.031250 0.500000
vt 0.062500 0.500000
vt 0.093750 0.500000
vt 0.125000 0.500000
vt 0.156250 0.500000
vt 0.187500 0.500000
vt 0.218750 0.500000
vt 0.250000 0.500000
vt 0.281250 0.500000
vt 0.312500 0.500000
vt 0.343750 0.500000
vt 0.375000 0.500000
vt 0.406250 0.500000
vt 0.437500 0.500000
vt 0.468750 0.500000
vt 0.500000 0.500000
vt 0.531250 0.500000
vt 0.562500 0.500000
vt 0.593750 0.500000
vt 0.625000 0.500000
vt 0.656250 0.500000
vt 0.687500 0.500000
vt 0.718750 0.500000
vt 0.750000 0.500000
vt 0.781250 0.500000
vt 0.812500 0.500000
vt 0.843750 0.500000
vt 0.875000 0.500000
vt 0.906250 0.500000
vt 0.937500 0.500000
vt 0.968750 0.500000
vt 1.000000 0.500000
vt 0.000000 0.583333
vt 0.031250 0.583333
vt 0.062500 0.583333
vt 0.093750 0.583333
vt 0.125000 0.583333
vt 0.156250 0.583333
vt 0.187500 0.583333
vt 0.218750 0.583333
vt 0.250000 0.583333
vt 0.281250 0.583333
vt 0.312500 0.583333
vt 0.343750 0.583333
vt 0.375000 0.583333
vt 0.406250 0.583333
vt 0.437500 0.583333
vt 0.468750 0.583333
vt 0.500000 0.583333
vt 0.531250 0.583333
vt 0.562500 0.583333
vt 0.593750 0.583333
vt 0.625000 0.583333
vt 0.656250 0.583333
vt 0.687500 0.583333
vt 0.718750 0.583333
vt 0.750000 0.583333
vt 0.781250 0.583333
vt 0.812500 0.583333
vt 0.843750 0.583333
vt 0.875000 0.583333
vt 0.906250 0.583333
vt 0.937500 0.583333
vt 0.968750 0.583333
vt 1.000000 0.583333
vt 0.000000 0.666667
vt 0.031250 0.666667
vt 0.062500 0.666667
vt 0.093750 0.666667
vt 0.125000 0.666667
vt 0.156250 0.666667
vt 0.187500 0.666667
vt 0.218750 0.666667
vt 0.250000 0.666667
vt 0.281250 0.666667
vt 0.312500 0.666667
vt 0.343750 0.666667
vt 0.375000 0.666667
vt 0.406250 0.666667
vt 0.437500 0.666667
vt 0.468750 0.666667
vt 0.500000 0.666667
vt 0.531250 0.666667
vt 0.562500 0.666667
vt 0.593750 0.666667
vt 0.625000 0.666667
vt 0.656250 0.666667
vt 0.687500 0.666667
vt 0.718750 0.666667
vt 0.750000 0.666667
vt 0.781250 0.666667
vt 0.812500 0.666667
vt 0.843750 0.666667
vt 0.875000 0.666667
vt 0.906250 0.666667
vt 0.937500 0.666667
vt 0.968750 0.666667
vt 1.000000 0.666667
vt 0.000000 0.750000
vt 0.031250 0.750000
vt 0.062500 0.750000
vt 0.093750 0.750000
vt 0.125000 0.750000
vt 0.156250 0.750000
vt 0.187500 0.750000
vt 0.218750 0.750000
vt 0.250000 0.750000
vt 0.281250 0.750000
vt 0.312500 0.750000
vt 0.343750 0.750000
vt 0.375000 0.750000
vt 0.406250 0.750000
vt 0.437500 0.750000
vt 0.468750 0.750000
vt 0.500000 0.750000
vt 0.531250 0.750000
vt 0.562500 0.750000
vt 0.593750 0.750000
vt 0.625000 0.750000
vt 0.656250 0.750000
vt 0.687500 0.750000
vt 0.718750 0.750000
vt 0.750000 0.750000
vt 0.781250 0.750000
vt 0.812500 0.750000
vt 0.843750 0.750000
vt 0.875000 0.750000
vt 0.906250 0.750000
vt 0.937500 0.750000
vt 0.968750 0.750000
vt 1.000000 0.750000
vt 0.000000 0.833333
vt 0.031250 0.833333
vt 0.062500 0.833333
vt 0.093750 0.833333
vt 0.125000 0.833333
vt 0.156250 0.833333
vt 0.187500 0.833333
vt 0.218750 0.833333
vt 0.250000 0.833333
vt 0.281250 0.833333
vt 0.312500 0.833333
vt 0.343750 0.833333
vt 0.375000 0.833333
vt 0.406250 0.833333
vt 0.437500 0.833333
vt 0.468750 0.833333
vt 0.500000 0.833333
vt 0.531250 0.833333
vt 0.562500 0.833333
vt 0.593750 0.833333
vt 0.625000 0.833333
vt 0.656250 0.833333
vt 0.687500 0.833333
vt 0.718750 0.833333
vt 0.750000 0.833333
vt 0.781250 0.833333
vt 0.812500 0.833333
vt 0.843750 0.833333
vt 0.875000 0.833333
vt 0.906250 0.833333
vt 0.937500 0.833333
vt 0.968750 0.833333
vt 1.000000 0.833333
vt 0.000000 0.916667
vt 0.031250 0.916667
vt 0.062500 0.916667
vt 0.093750 0.916667
vt 0.125000 0.916667
vt 0.156250 0.916667
vt 0.187500 0.916667
vt 0.218750 0.916667
vt 0.250000 0.916667
vt 0.281250 0.916667
vt 0.312500 0.916667
vt 0.343750 0.916667
vt 0.375000 0.916667
vt 0.406250 0.916667
vt 0.437500 0.916667
vt 0.468750 0.916667
vt 0.500000 0.916667
vt 0.531250 0.916667
vt 0.562500 0.916667
vt 0.593750 0.916667
vt 0.625000 0.916667
vt 0.656250 0.916667
vt 0.687500 0.916667
vt 0.718750 0.916667
vt 0.750000 0.916667
vt 0.781250 0.916667
vt 0.812500 0.916667
vt 0.843750 0.916667
vt 0.875000 0.916667
vt 0.906250 0.916667
vt 0.937500 0.916667
vt 0.968750 0.916667
vt 1.000000 0.916667
vt 0.000000 1.000000
vt 0.031250 1.000000
vt 0.062500 1.000000
vt 0.093750 1.000000
vt 0.125000 1.000000
vt 0.156250 1.000000
vt 0.187500 1.000000
vt 0.218750 1.000000
vt 0.250000 1.000000
vt 0.281250 1.000000
vt 0.312500 1.000000
vt 0.343750 1.000000
vt 0.375000 1.000000
vt 0.406250 1.000000
vt 0.437500 1.000000
vt 0.468750 1.000000
vt 0.500000 1.000000
vt 0.531250 1.000000
vt 0.562500 1.000000
vt 0.593750 1.000000
vt 0.625000 1.000000
vt 0.656250 1.000000
vt 0.687500 1.000000
vt 0.718750 1.000000
vt 0.750000 1.000000
vt 0.781250 1.000000
vt 0.812500 1.000000
vt 0.843750 1.000000
vt 0.875000 1.000000
vt 0.906250 1.000000
vt 0.937500 1.000000
vt 0.968750 1.000000
vt 0.990393 0.597545
vt 0.961940 0.691342
vt 0.915735 0.777785
vt 0.853553 0.853553
vt 0.777785 0.915735
vt 0.691342 0.961940
vt 0.597545 0.990393
vt 0.402455 0.990393
vt 0.308658 0.961940
vt 0.222215 0.915735
vt 0.146447 0.853553
vt 0.084265 0.777785
vt 0.038060 0.691342
vt 0.009607 0.597545
vt 0.009607 0.402455
vt 0.038060 0.308658
vt 0.084265 0.222215
vt 0.146447 0.146447
vt 0.222215 0.084265
vt 0.308658 0.038060
vt 0.402455 0.009607
vt 0.597545 0.009607
vt 0.691342 0.038060
vt 0.777785 0.084265
vt 0.853553 0.146447
vt 0.915735 0.222215
vt 0.961940 0.308658
vt 0.990393 0.402455
vn 0.991445 0.130526 0.000000
vn 0.972395 0.130526 0.193421
vn 0.980785 0.000000 0.195090
vn 1.000000 0.000000 0.000000
vn 0.915976 0.130526 0.379410
vn 0.923880 0.000000 0.382683
vn 0.824356 0.130526 0.550817
vn 0.831470 0.000000 0.555570
vn 0.701057 0.130526 0.701057
vn 0.707107 0.000000 0.707107
vn 0.550817 0.130526 0.824356
vn 0.555570 0.000000 0.831470
vn 0.379410 0.130526 0.915976
vn 0.382683 0.000000 0.923880
vn 0.193421 0.130526 0.972395
vn 0.195090 0.000000 0.980785
vn 0.000000 0.130526 0.991445
vn 0.000000 0.000000 1.000000
vn -0.193421 0.130526 0.972395
vn -0.195090 0.000000 0.980785
vn -0.379410 0.130526 0.915976
vn -0.382683 0.000000 0.923880
vn -0.550817 0.130526 0.824356
vn -0.555570 0.000000 0.831470
vn -0.701057 0.130526 0.701057
vn -0.707107 0.000000 0.707107
vn -0.824356 0.130526 0.550817
vn -0.831470 0.000000 0.555570
vn -0.915976 0.130526 0.379410
vn -0.923880 0.000000 0.382683
vn -0.972395 0.130526 0.193421
vn -0.980785 0.000000 0.195090
vn -0.991445 0.130526 0.000000
vn -1.000000 0.000000 0.000000
vn -0.972395 0.130526 -0.193421
vn -0.980785 0.000000 -0.195090
vn -0.915976 0.130526 -0.379410
vn -0.923880 0.000000 -0.382683
vn -0.824356 0.130526 -0.550817
vn -0.831470 0.000000 -0.555570
vn -0.701057 0.130526 -0.701057
vn -0.707107 0.000000 -0.707107
vn -0.550817 0.130526 -0.824356
vn -0.555570 0.000000 -0.831470
vn -0.379410 0.130526 -0.915976
vn -0.382683 0.000000 -0.923880
vn -0.193421 0.130526 -0.972395
vn -0.195090 0.000000 -0.980785
vn 0.000000 0.130526 -0.991445
vn 0.000000 0.000000 -1.000000
vn 0.193421 0.130526 -0.972395
vn 0.195090 0.000000 -0.980785
vn 0.379410 0.130526 -0.915976
vn 0.382683 0.000000 -0.923880
vn 0.550817 0.130526 -0.824356
vn 0.555570 0.000000 -0.831470
vn 0.701057 0.130526 -0.701057
vn 0.707107 0.000000 -0.707107
vn 0.824356 0.130526 -0.550817
vn 0.831470 0.000000 -0.555570
vn 0.915976 0.130526 -0.379410
vn 0.923880 0.000000 -0.382683
vn 0.972395 0.130526 -0.193421
vn 0.980785 0.000000 -0.195090
vn 0.965926 0.258819 0.000000
vn 0.947366 0.258819 0.188443
vn 0.892399 0.258819 0.369644
vn 0.803138 0.258819 0.536640
vn 0.683013 0.258819 0.683013
vn 0.536640 0.258819 0.803138
vn 0.369644 0.258819 0.892399
vn 0.188443 0.258819 0.947366
vn 0.000000 0.258819 0.965926
vn -0.188443 0.258819 0.947366
vn -0.369644 0.258819 0.892399
vn -0.536640 0.258819 0.803138
vn -0.683013 0.258819 0.683013
vn -0.803138 0.258819 0.536640
vn -0.892399 0.258819 0.369644
vn -0.947366 0.258819 0.188443
vn -0.965926 0.258819 0.000000
vn -0.947366 0.258819 -0.188443
vn -0.892399 0.258819 -0.369644
vn -0.803138 0.258819 -0.536640
vn -0.683013 0.258819 -0.683013
vn -0.536640 0.258819 -0.803138
vn -0.369644 0.258819 -0.892399
vn -0.188443 0.258819 -0.947366
vn 0.000000 0.258819 -0.965926
vn 0.188443 0.258819 -0.947366
vn 0.369644 0.258819 -0.892399
vn 0.536640 0.258819 -0.803138
vn 0.683013 0.258819 -0.683013
vn 0.803138 0.258819 -0.536640
vn 0.892399 0.258819 -0.369644
vn 0.947366 0.258819 -0.188443
vn 0.923880 0.382683 0.000000
vn 0.906127 0.382683 0.180240
vn 0.853553 0.382683 0.353553
vn 0.768178 0.382683 0.513280
vn 0.653281 0.382683 0.653281
vn 0.513280 0.382683 0.768178
vn 0.353553 0.382683 0.853553
vn 0.180240 0.382683 0.906127
vn 0.000000 0.382683 0.923880
vn -0.180240 0.382683 0.906127
vn -0.353553 0.382683 0.853553
vn -0.513280 0.382683 0.768178
vn -0.653281 0.382683 0.653281
vn -0.768178 0.382683 0.513280
vn -0.853553 0.382683 0.353553
vn -0.906127 0.382683 0.180240
vn -0.923880 0.382683 0.000000
vn -0.906127 0.382683 -0.180240
vn -0.853553 0.382683 -0.353553
vn -0.768178 0.382683 -0.513280
vn -0.653281 0.382683 -0.653281
vn -0.513280 0.382683 -0.768178
vn -0.353553 0.382683 -0.853553
vn -0.180240 0.382683 -0.906127
vn 0.000000 0.382683 -0.923880
vn 0.180240 0.382683 -0.906127
vn 0.353553 0.382683 -0.853553
vn 0.513280 0.382683 -0.768178
vn 0.653281 0.382683 -0.653281
vn 0.768178 0.382683 -0.513280
vn 0.853553 0.382683 -0.353553
vn 0.906127 0.382683 -0.180240
vn 0.866025 0.500000 0.000000
vn 0.849385 0.500000 0.168953
vn 0.800103 0.500000 0.331414
vn 0.720074 0.500000 0.481138
vn 0.612372 0.500000 0.612372
vn 0.481138 0.500000 0.720074
vn 0.331414 0.500000 0.800103
vn 0.168953 0.500000 0.849385
vn 0.000000 0.500000 0.866025
vn -0.168953 0.500000 0.849385
vn -0.331414 0.500000 0.800103
vn -0.481138 0.500000 0.720074
vn -0.612372 0.500000 0.612372
vn -0.720074 0.500000 0.481138
vn -0.800103 0.500000 0.331414
vn -0.849385 0.500000 0.168953
vn -0.866025 0.500000 0.000000
vn -0.849385 0.500000 -0.168953
vn -0.800103 0.500000 -0.331414
vn -0.720074 0.500000 -0.481138
vn -0.612372 0.500000 -0.612372
vn -0.481138 0.500000 -0.720074
vn -0.331414 0.500000 -0.800103
vn -0.168953 0.500000 -0.849385
vn 0.000000 0.500000 -0.866025
vn 0.168953 0.500000 -0.849385
vn 0.331414 0.500000 -0.800103
vn 0.481138 0.500000 -0.720074
vn 0.612372 0.500000 -0.612372
vn 0.720074 0.500000 -0.481138
vn 0.800103 0.500000 -0.331414
vn 0.849385 0.500000 -0.168953
vn 0.793353 0.608761 0.000000
vn 0.778109 0.608761 0.154776
vn 0.732963 0.608761 0.303603
vn 0.659649 0.608761 0.440764
vn 0.560986 0.608761 0.560986
vn 0.440764 0.608761 0.659649
vn 0.303603 0.608761 0.732963
vn 0.154776 0.608761 0.778109
vn 0.000000 0.608761 0.793353
vn -0.154776 0.608761 0.778109
vn -0.303603 0.608761 0.732963
vn -0.440764 0.608761 0.659649
vn -0.560986 0.608761 0.560986
vn -0.659649 0.608761 0.440764
vn -0.732963 0.608761 0.303603
vn -0.778109 0.608761 0.154776
vn -0.793353 0.608761 0.000000
vn -0.778109 0.608761 -0.154776
vn -0.732963 0.608761 -0.303603
vn -0.659649 0.608761 -0.440764
vn -0.560986 0.608761 -0.560986
vn -0.440764 0.608761 -0.659649
vn -0.303603 0.608761 -0.732963
vn -0.154776 0.608761 -0.778109
vn 0.000000 0.608761 -0.793353
vn 0.154776 0.608761 -0.778109
vn 0.303603 0.608761 -0.732963
vn 0.440764 0.608761 -0.659649
vn 0.560986 0.608761 -0.560986
vn 0.659649 0.608761 -0.440764
vn 0.732963 0.608761 -0.303603
vn 0.778109 0.608761 -0.154776
vn 0.707107 0.707107 0.000000
vn 0.693520 0.707107 0.137950
vn 0.653281 0.707107 0.270598
vn 0.587938 0.707107 0.392847
vn 0.500000 0.707107 0.500000
vn 0.392847 0.707107 0.587938
vn 0.270598 0.707107 0.653281
vn 0.137950 0.707107 0.693520
vn 0.000000 0.707107 0.707107
vn -0.137950 0.707107 0.693520
vn -0.270598 0.707107 0.653281
vn -0.392847 0.707107 0.587938
vn -0.500000 0.707107 0.500000
vn -0.587938 0.707107 0.392847
vn -0.653281 0.707107 0.270598
vn -0.693520 0.707107 0.137950
vn -0.707107 0.707107 0.000000
vn -0.693520 0.707107 -0.137950
vn -0.653281 0.707107 -0.270598
vn -0.587938 0.707107 -0.392847
vn -0.500000 0.707107 -0.500000
vn -0.392847 0.707107 -0.587938
vn -0.270598 0.707107 -0.653281
vn -0.137950 0.707107 -0.693520
vn 0.000000 0.707107 -0.707107
vn 0.137950 0.707107 -0.693520
vn 0.270598 0.707107 -0.653281
vn 0.392847 0.707107 -0.587938
vn 0.500000 0.707107 -0.500000
vn 0.587938 0.707107 -0.392847
vn 0.653281 0.707107 -0.270598
vn 0.693520 0.707107 -0.137950
vn 0.608761 0.793353 0.000000
vn 0.597064 0.793353 0.118763
vn 0.562422 0.793353 0.232963
vn 0.506167 0.793353 0.338210
vn 0.430459 0.793353 0.430459
vn 0.338210 0.793353 0.506167
vn 0.232963 0.793353 0.562422
vn 0.118763 0.793353 0.597064
vn 0.000000 0.793353 0.608761
vn -0.118763 0.793353 0.597064
vn -0.232963 0.793353 0.562422
vn -0.338210 0.793353 0.506167
vn -0.430459 0.793353 0.430459
vn -0.506167 0.793353 0.338210
vn -0.562422 0.793353 0.232963
vn -0.597064 0.793353 0.118763
vn -0.608761 0.793353 0.000000
vn -0.597064 0.793353 -0.118763
vn -0.562422 0.793353 -0.232963
vn -0.506167 0.793353 -0.338210
vn -0.430459 0.793353 -0.430459
vn -0.338210 0.793353 -0.506167
vn -0.232963 0.793353 -0.562422
vn -0.118763 0.793353 -0.597064
vn 0.000000 0.793353 -0.608761
vn 0.118763 0.793353 -0.597064
vn 0.232963 0.793353 -0.562422
vn 0.338210 0.793353 -0.506167
vn 0.430459 0.793353 -0.430459
vn 0.506167 0.793353 -0.338210
vn 0.562422 0.793353 -0.232963
vn 0.597064 0.793353 -0.118763
vn 0.500000 0.866025 0.000000
vn 0.490393 0.866025 0.097545
vn 0.461940 0.866025 0.191342
vn 0.415735 0.866025 0.277785
vn 0.353553 0.866025 0.353553
vn 0.277785 0.866025 0.415735
vn 0.191342 0.866025 0.461940
vn 0.097545 0.866025 0.490393
vn 0.000000 0.866025 0.500000
vn -0.097545 0.866025 0.490393
vn -0.191342 0.866025 0.461940
vn -0.277785 0.866025 0.415735
vn -0.353553 0.866025 0.353553
vn -0.415735 0.866025 0.277785
vn -0.461940 0.866025 0.191342
vn -0.490393 0.866025 0.097545
vn -0.500000 0.866025 0.000000
vn -0.490393 0.866025 -0.097545
vn -0.461940 0.866025 -0.191342
vn -0.415735 0.866025 -0.277785
vn -0.353553 0.866025 -0.353553
vn -0.277785 0.866025 -0.415735
vn -0.191342 0.866025 -0.461940
vn -0.097545 0.866025 -0.490393
vn 0.000000 0.866025 -0.500000
vn 0.097545 0.866025 -0.490393
vn 0.191342 0.866025 -0.461940
vn 0.277785 0.866025 -0.415735
vn 0.353553 0.866025 -0.353553
vn 0.415735 0.866025 -0.277785
vn 0.461940 0.866025 -0.191342
vn 0.490393 0.866025 -0.097545
vn 0.382683 0.923880 0.000000
vn 0.375330 0.923880 0.074658
vn 0.353553 0.923880 0.146447
vn 0.318190 0.923880 0.212608
vn 0.270598 0.923880 0.270598
vn 0.212608 0.923880 0.318190
vn 0.146447 0.923880 0.353553
vn 0.074658 0.923880 0.375330
vn 0.000000 0.923880 0.382683
vn -0.074658 0.923880 0.375330
vn -0.146447 0.923880 0.353553
vn -0.212608 0.923880 0.318190
vn -0.270598 0.923880 0.270598
vn -0.318190 0.923880 0.212608
vn -0.353553 0.923880 0.146447
vn -0.375330 0.923880 0.074658
vn -0.382683 0.923880 0.000000
vn -0.375330 0.923880 -0.074658
vn -0.353553 0.923880 -0.146447
vn -0.318190 0.923880 -0.212608
vn -0.270598 0.923880 -0.270598
vn -0.212608 0.923880 -0.318190
vn -0.146447 0.923880 -0.353553
vn -0.074658 0.923880 -0.375330
vn 0.000000 0.923880 -0.382683
vn 0.074658 0.923880 -0.375330
vn 0.146447 0.923880 -0.353553
vn 0.212608 0.923880 -0.318190
vn 0.270598 0.923880 -0.270598
vn 0.318190 0.923880 -0.212608
vn 0.353553 0.923880 -0.146447
vn 0.375330 0.923880 -0.074658
vn 0.258819 0.965926 0.000000
vn 0.253846 0.965926 0.050493
vn 0.239118 0.965926 0.099046
vn 0.215200 0.965926 0.143792
vn 0.183013 0.965926 0.183013
vn 0.143792 0.965926 0.215200
vn 0.099046 0.965926 0.239118
vn 0.050493 0.965926 0.253846
vn 0.000000 0.965926 0.258819
vn -0.050493 0.965926 0.253846
vn -0.099046 0.965926 0.239118
vn -0.143792 0.965926 0.215200
vn -0.183013 0.965926 0.183013
vn -0.215200 0.965926 0.143792
vn -0.239118 0.965926 0.099046
vn -0.253846 0.965926 0.050493
vn -0.258819 0.965926 0.000000
vn -0.253846 0.965926 -0.050493
vn -0.239118 0.965926 -0.099046
vn -0.215200 0.965926 -0.143792
vn -0.183013 0.965926 -0.183013
vn -0.143792 0.965926 -0.215200
vn -0.099046 0.965926 -0.239118
vn -0.050493 0.965926 -0.253846
vn 0.000000 0.965926 -0.258819
vn 0.050493 0.965926 -0.253846
vn 0.099046 0.965926 -0.239118
vn 0.143792 0.965926 -0.215200
vn 0.183013 0.965926 -0.183013
vn 0.215200 0.965926 -0.143792
vn 0.239118 0.965926 -0.099046
vn 0.253846 0.965926 -0.050493
vn 0.130526 0.991445 0.000000
vn 0.128018 0.991445 0.025464
vn 0.120590 0.991445 0.049950
vn 0.108529 0.991445 0.072516
vn 0.092296 0.991445 0.092296
vn 0.072516 0.991445 0.108529
vn 0.049950 0.991445 0.120590
vn 0.025464 0.991445 0.128018
vn 0.000000 0.991445 0.130526
vn -0.025464 0.991445 0.128018
vn -0.049950 0.991445 0.120590
vn -0.072516 0.991445 0.108529
vn -0.092296 0.991445 0.092296
vn -0.108529 0.991445 0.072516
vn -0.120590 0.991445 0.049950
vn -0.128018 0.991445 0.025464
vn -0.130526 0.991445 0.000000
vn -0.128018 0.991445 -0.025464
vn -0.120590 0.991445 -0.049950
vn -0.108529 0.991445 -0.072516
vn -0.092296 0.991445 -0.092296
vn -0.072516 0.991445 -0.108529
vn -0.049950 0.991445 -0.120590
vn -0.025464 0.991445 -0.128018
vn 0.000000 0.991445 -0.130526
vn 0.025464 0.991445 -0.128018
vn 0.049950 0.991445 -0.120590
vn 0.072516 0.991445 -0.108529
vn 0.092296 0.991445 -0.092296
vn 0.108529 0.991445 -0.072516
vn 0.120590 0.991445 -0.049950
vn 0.128018 0.991445 -0.025464
vn 0.000000 1.000000 0.000000
vn 0.000000 -1.000000 0.000000
f 1/1/1 2/2/2 3/3/3
f 1/1/1 3/3/3 4/4/4
f 2/2/2 5/5/5 6/6/6
f 2/2/2 6/6/6 3/3/3
f 5/5/5 7/7/7 8/8/8
f 5/5/5 8/8/8 6/6/6
f 7/7/7 9/9/9 10/10/10
f 7/7/7 10/10/10 8/8/8
f 9/9/9 11/11/11 12/12/12
f 9/9/9 12/12/12 10/10/10
f 11/11/11 13/13/13 14/14/14
f 11/11/11 14/14/14 12/12/12
f 13/13/13 15/15/15 16/16/16
f 13/13/13 16/16/16 14/14/14
f 15/15/15 17/17/17 18/18/18
f 15/15/15 18/18/18 16/16/16
f 17/17/17 19/19/19 20/20/20
f 17/17/17 20/20/20 18/18/18
f 19/19/19 21/21/21 22/22/22
f 19/19/19 22/22/22 20/20/20
f 21/21/21 23/23/23 24/24/24
f 21/21/21 24/24/24 22/22/22
f 23/23/23 25/25/25 26/26/26
f 23/23/23 26/26/26 24/24/24
f 25/25/25 27/27/27 28/28/28
f 25/25/25 28/28/28 26/26/26
f 27/27/27 29/29/29 30/30/30
f 27/27/27 30/30/30 28/28/28
f 29/29/29 31/31/31 32/32/32
f 29/29/29 32/32/32 30/30/30
f 31/31/31 33/33/33 34/34/34
f 31/31/31 34/34/34 32/32/32
f 33/33/33 35/35/35 36/36/36
f 33/33/33 36/36/36 34/34/34
f 35/35/35 37/37/37 38/38/38
f 35/35/35 38/38/38 36/36/36
f 37/37/37 39/39/39 40/40/40
f 37/37/37 40/40/40 38/38/38
f 39/39/39 41/41/41 42/42/42
f 39/39/39 42/42/42 40/40/40
f 41/41/41 43/43/43 44/44/44
f 41/41/41 44/44/44 42/42/42
f 43/43/43 45/45/45 46/46/46
f 43/43/43 46/46/46 44/44/44
f 45/45/45 47/47/47 48/48/48
f 45/45/45 48/48/48 46/46/46
f 47/47/47 49/49/49 50/50/50
f 47/47/47 50/50/50 48/48/48
f 49/49/49 51/51/51 52/52/52
f 49/49/49 52/52/52 50/50/50
f 51/51/51 53/53/53 54/54/54
f 51/51/51 54/54/54 52/52/52
f 53/53/53 55/55/55 56/56/56
f 53/53/53 56/56/56 54/54/54
f 55/55/55 57/57/57 58/58/58
f 55/55/55 58/58/58 56/56/56
f 57/57/57 59/59/59 60/60/60
f 57/57/57 60/60/60 58/58/58
f 59/59/59 61/61/61 62/62/62
f 59/59/59 62/62/62 60/60/60
f 61/61/61 63/63/63 64/64/64
f 61/61/61 64/64/64 62/62/62
f 63/63/63 1/65/1 4/66/4
f 63/63/63 4/66/4 64/64/64
f 65/67/65 66/68/66 2/2/2
f 65/67/65 2/2/2 1/1/1
f 66/68/66 67/69/67 5/5/5
f 66/68/66 5/5/5 2/2/2
f 67/69/67 68/70/68 7/7/7
f 67/69/67 7/7/7 5/5/5
f 68/70/68 69/71/69 9/9/9
f 68/70/68 9/9/9 7/7/7
f 69/71/69 70/72/70 11/11/11
f 69/71/69 11/11/11 9/9/9
f 70/72/70 71/73/71 13/13/13
f 70/72/70 13/13/13 11/11/11
f 71/73/71 72/74/72 15/15/15
f 71/73/71 15/15/15 13/13/13
f 72/74/72 73/75/73 17/17/17
f 72/74/72 17/17/17 15/15/15
f 73/75/73 74/76/74 19/19/19
f 73/75/73 19/19/19 17/17/17
f 74/76/74 75/77/75 21/21/21
f 74/76/74 21/21/21 19/19/19
f 75/77/75 76/78/76 23/23/23
f 75/77/75 23/23/23 21/21/21
f 76/78/76 77/79/77 25/25/25
f 76/78/76 25/25/25 23/23/23
f 77/79/77 78/80/78 27/27/27
f 77/79/77 27/27/27 25/25/25
f 78/80/78 79/81/79 29/29/29
f 78/80/78 29/29/29 27/27/27
f 79/81/79 80/82/80 31/31/31
f 79/81/79 31/31/31 29/29/29
f 80/82/80 81/83/81 33/33/33
f 80/82/80 33/33/33 31/31/31
f 81/83/81 82/84/82 35/35/35
f 81/83/81 35/35/35 33/33/33
f 82/84/82 83/85/83 37/37/37
f 82/84/82 37/37/37 35/35/35
f 83/85/83 84/86/84 39/39/39
f 83/85/83 39/39/39 37/37/37
f 84/86/84 85/87/85 41/41/41
f 84/86/84 41/41/41 39/39/39
f 85/87/85 86/88/86 43/43/43
f 85/87/85 43/43/43 41/41/41
f 86/88/86 87/89/87 45/45/45
f 86/88/86 45/45/45 43/43/43
f 87/89/87 88/90/88 47/47/47
f 87/89/87 47/47/47 45/45/45
f 88/90/88 89/91/89 49/49/49
f 88/90/88 49/49/49 47/47/47
f 89/91/89 90/92/90 51/51/51
f 89/91/89 51/51/51 49/49/49
f 90/92/90 91/93/91 53/53/53
f 90/92/90 53/53/53 51/51/51
f 91/93/91 92/94/92 55/55/55
f 91/93/91 55/55/55 53/53/53
f 92/94/92 93/95/93 57/57/57
f 92/94/92 57/57/57 55/55/55
f 93/95/93 94/96/94 59/59/59
f 93/95/93 59/59/59 57/57/57
f 94/96/94 95/97/95 61/61/61
f 94/96/94 61/61/61 59/59/59
f 95/97/95 96/98/96 63/63/63
f 95/97/95 63/63/63 61/61/61
f 96/98/96 65/99/65 1/65/1
f 96/98/96 1/65/1 63/63/63
f 97/100/97 98/101/98 66/68/66
f 97/100/97 66/68/66 65/67/65
f 98/101/98 99/102/99 67/69/67
f 98/101/98 67/69/67 66/68/66
f 99/102/99 100/103/100 68/70/68
f 99/102/99 68/70/68 67/69/67
f 100/103/100 101/104/101 69/71/69
f 100/103/100 69/71/69 68/70/68
f 101/104/101 102/105/102 70/72/70
f 101/104/101 70/72/70 69/71/69
f 102/105/102 103/106/103 71/73/71
f 102/105/102 71/73/71 70/72/70
f 103/106/103 104/107/104 72/74/72
f 103/106/103 72/74/72 71/73/71
f 104/107/104 105/108/105 73/75/73
f 104/107/104 73/75/73 72/74/72
f 105/108/105 106/109/106 74/76/74
f 105/108/105 74/76/74 73/75/73
f 106/109/106 107/110/107 75/77/75
f 106/109/106 75/77/75 74/76/74
f 107/110/107 108/111/108 76/78/76
f 107/110/107 76/78/76 75/77/75
f 108/111/108 109/112/109 77/79/77
f 108/111/108 77/79/77 76/78/76
f 109/112/109 110/113/110 78/80/78
f 109/112/109 78/80/78 77/79/77
f 110/113/110 111/114/111 79/81/79
f 110/113/110 79/81/79 78/80/78
f 111/114/111 112/115/112 80/82/80
f 111/114/111 80/82/80 79/81/79
f 112/115/112 113/116/113 81/83/81
f 112/115/112 81/83/81 80/82/80
f 113/116/113 114/117/114 82/84/82
f 113/116/113 82/84/82 81/83/81
f 114/117/114 115/118/115 83/85/83
f 114/117/114 83/85/83 82/84/82
f 115/118/115 116/119/116 84/86/84
f 115/118/115 84/86/84 83/85/83
f 116/119/116 117/120/117 85/87/85
f 116/119/116 85/87/85 84/86/84
f 117/120/117 118/121/118 86/88/86
f 117/120/117 86/88/86 85/87/85
f 118/121/118 119/122/119 87/89/87
f 118/121/118 87/89/87 86/88/86
f 119/122/119 120/123/120 88/90/88
f 119/122/119 88/90/88 87/89/87
f 120/123/120 121/124/121 89/91/89
f 120/123/120 89/91/89 88/90/88
f 121/124/121 122/125/122 90/92/90
f 121/124/121 90/92/90 89/91/89
f 122/125/122 123/126/123 91/93/91
f 122/125/122 91/93/91 90/92/90
f 123/126/123 124/127/124 92/94/92
f 123/126/123 92/94/92 91/93/91
f 124/127/124 125/128/125 93/95/93
f 124/127/124 93/95/93 92/94/92
f 125/128/125 126/129/126 94/96/94
f 125/128/125 94/96/94 93/95/93
f 126/129/126 127/130/127 95/97/95
f 126/129/126 95/97/95 94/96/94
f 127/130/127 128/131/128 96/98/96
f 127/130/127 96/98/96 95/97/95
f 128/131/128 97/132/97 65/99/65
f 128/131/128 65/99/65 96/98/96
f 129/133/129 130/134/130 98/101/98
f 129/133/129 98/101/98 97/100/97
f 130/134/130 131/135/131 99/102/99
f 130/134/130 99/102/99 98/101/98
f 131/135/131 132/136/132 100/103/100
f 131/135/131 100/103/100 99/102/99
f 132/136/132 133/137/133 101/104/101
f 132/136/132 101/104/101 100/103/100
f 133/137/133 134/138/134 102/105/102
f 133/137/133 102/105/102 101/104/101
f 134/138/134 135/139/135 103/106/103
f 134/138/134 103/106/103 102/105/102
f 135/139/135 136/140/136 104/107/104
f 135/139/135 104/107/104 103/106/103
f 136/140/136 137/141/137 105/108/105
f 136/140/136 105/108/105 104/107/104
f 137/141/137 138/142/138 106/109/106
f 137/141/137 106/109/106 105/108/105
f 138/142/138 139/143/139 107/110/107
f 138/142/138 107/110/107 106/109/106
f 139/143/139 140/144/140 108/111/108
f 139/143/139 108/111/108 107/110/107
f 140/144/140 141/145/141 109/112/109
f 140/144/140 109/112/109 108/111/108
f 141/145/141 142/146/142 110/113/110
f 141/145/141 110/113/110 109/112/109
f 142/146/142 143/147/143 111/114/111
f 142/146/142 111/114/111 110/113/110
f 143/147/143 144/148/144 112/115/112
f 143/147/143 112/115/112 111/114/111
f 144/148/144 145/149/145 113/116/113
f 144/148/144 113/116/113 112/115/112
f 145/149/145 146/150/146 114/117/114
f 145/149/145 114/117/114 113/116/113
f 146/150/146 147/151/147 115/118/115
f 146/150/146 115/118/115 114/117/114
f 147/151/147 148/152/148 116/119/116
f 147/151/147 116/119/116 115/118/115
f 148/152/148 149/153/149 117/120/117
f 148/152/148 117/120/117 116/119/116
f 149/153/149 150/154/150 118/121/118
f 149/153/149 118/121/118 117/120/117
f 150/154/150 151/155/151 119/122/119
f 150/154/150 119/122/119 118/121/118
f 151/155/151 152/156/152 120/123/120
f 151/155/151 120/123/120 119/122/119
f 152/156/152 153/157/153 121/124/121
f 152/156/152 121/124/121 120/123/120
f 153/157/153 154/158/154 122/125/122
f 153/157/153 122/125/122 121/124/121
f 154/158/154 155/159/155 123/126/123
f 154/158/154 123/126/123 122/125/122
f 155/159/155 156/160/156 124/127/124
f 155/159/155 124/127/124 123/126/123
f 156/160/156 157/161/157 125/128/125
f 156/160/156 125/128/125 124/127/124
f 157/161/157 158/162/158 126/129/126
f 157/161/157 126/129/126 125/128/125
f 158/162/158 159/163/159 127/130/127
f 158/162/158 127/130/127 126/129/126
f 159/163/159 160/164/160 128/131/128
f 159/163/159 128/131/128 127/130/127
f 160/164/160 129/165/129 97/132/97
f 160/164/160 97/132/97 128/131/128
f 161/166/161 162/167/162 130/134/130
f 161/166/161 130/134/130 129/133/129
f 162/167/162 163/168/163 131/135/131
f 162/167/162 131/135/131 130/134/130
f 163/168/163 164/169/164 132/136/132
f 163/168/163 132/136/132 131/135/131
f 164/169/164 165/170/165 133/137/133
f 164/169/164 133/137/133 132/136/132
f 165/170/165 166/171/166 134/138/134
f 165/170/165 134/138/134 133/137/133
f 166/171/166 167/172/167 135/139/135
f 166/171/166 135/139/135 134/138/134
f 167/172/167 168/173/168 136/140/136
f 167/172/167 136/140/136 135/139/135
f 168/173/168 169/174/169 137/141/137
f 168/173/168 137/141/137 136/140/136
f 169/174/169 170/175/170 138/142/138
f 169/174/169 138/142/138 137/141/137
f 170/175/170 171/176/171 139/143/139
f 170/175/170 139/143/139 138/142/138
f 171/176/171 172/177/172 140/144/140
f 171/176/171 140/144/140 139/143/139
f 172/177/172 173/178/173 141/145/141
f 172/177/172 141/145/141 140/144/140
f 173/178/173 174/179/174 142/146/142
f 173/178/173 142/146/142 141/145/141
f 174/179/174 175/180/175 143/147/143
f 174/179/174 143/147/143 142/146/142
f 175/180/175 176/181/176 144/148/144
f 175/180/175 144/148/144 143/147/143
f 176/181/176 177/182/177 145/149/145
f 176/181/176 145/149/145 144/148/144
f 177/182/177 178/183/178 146/150/146
f 177/182/177 146/150/146 145/149/145
f 178/183/178 179/184/179 147/151/147
f 178/183/178 147/151/147 146/150/146
f 179/184/179 180/185/180 148/152/148
f 179/184/179 148/152/148 147/151/147
f 180/185/180 181/186/181 149/153/149
f 180/185/180 149/153/149 148/152/148
f 181/186/181 182/187/182 150/154/150
f 181/186/181 150/154/150 149/153/149
f 182/187/182 183/188/183 151/155/151
f 182/187/182 151/155/151 150/154/150
f 183/188/183 184/189/184 152/156/152
f 183/188/183 152/156/152 151/155/151
f 184/189/184 185/190/185 153/157/153
f 184/189/184 153/157/153 152/156/152
f 185/190/185 186/191/186 154/158/154
f 185/190/185 154/158/154 153/157/153
f 186/191/186 187/192/187 155/159/155
f 186/191/186 155/159/155 154/158/154
f 187/192/187 188/193/188 156/160/156
f 187/192/187 156/160/156 155/159/155
f 188/193/188 189/194/189 157/161/157
f 188/193/188 157/161/157 156/160/156
f 189/194/189 190/195/190 158/162/158
f 189/194/189 158/162/158 157/161/157
f 190/195/190 191/196/191 159/163/159
f 190/195/190 159/163/159 158/162/158
f 191/196/191 192/197/192 160/164/160
f 191/196/191 160/164/160 159/163/159
f 192/197/192 161/198/161 129/165/129
f 192/197/192 129/165/129 160/164/160
f 193/199/193 194/200/194 162/167/162
f 193/199/193 162/167/162 161/166/161
f 194/200/194 195/201/195 163/168/163
f 194/200/194 163/168/163 162/167/162
f 195/201/195 196/202/196 164/169/164
f 195/201/195 164/169/164 163/168/163
f 196/202/196 197/203/197 165/170/165
f 196/202/196 165/170/165 164/169/164
f 197/203/197 198/204/198 166/171/166
f 197/203/197 166/171/166 165/170/165
f 198/204/198 199/205/199 167/172/167
f 198/204/198 167/172/167 166/171/166
f 199/205/199 200/206/200 168/173/168
f 199/205/199 168/173/168 167/172/167
f 200/206/200 201/207/201 169/174/169
f 200/206/200 169/174/169 168/173/168
f 201/207/201 202/208/202 170/175/170
f 201/207/201 170/175/170 169/174/169
f 202/208/202 203/209/203 171/176/171
f 202/208/202 171/176/171 170/175/170
f 203/209/203 204/210/204 172/177/172
f 203/209/203 172/177/172 171/176/171
f 204/210/204 205/211/205 173/178/173
f 204/210/204 173/178/173 172/177/172
f 205/211/205 206/212/206 174/179/174
f 205/211/205 174/179/174 173/178/173
f 206/212/206 207/213/207 175/180/175
f 206/212/206 175/180/175 174/179/174
f 207/213/207 208/214/208 176/181/176
f 207/213/207 176/181/176 175/180/175
f 208/214/208 209/215/209 177/182/177
f 208/214/208 177/182/177 176/181/176
f 209/215/209 210/216/210 178/183/178
f 209/215/209 178/183/178 177/182/177
f 210/216/210 211/217/211 179/184/179
f 210/216/210 179/184/179 178/183/178
f 211/217/211 212/218/212 180/185/180
f 211/217/211 180/185/180 179/184/179
f 212/218/212 213/219/213 181/186/181
f 212/218/212 181/186/181 180/185/180
f 213/219/213 214/220/214 182/187/182
f 213/219/213 182/187/182 181/186/181
f 214/220/214 215/221/215 183/188/183
f 214/220/214 183/188/183 182/187/182
f 215/221/215 216/222/216 184/189/184
f 215/221/215 184/189/184 183/188/183
f 216/222/216 217/223/217 185/190/185
f 216/222/216 185/190/185 184/189/184
f 217/223/217 218/224/218 186/191/186
f 217/223/217 186/191/186 185/190/185
f 218/224/218 219/225/219 187/192/187
f 218/224/218 187/192/187 186/191/186
f 219/225/219 220/226/220 188/193/188
f 219/225/219 188/193/188 187/192/187
f 220/226/220 221/227/221 189/194/189
f 220/226/220 189/194/189 188/193/188
f 221/227/221 222/228/222 190/195/190
f 221/227/221 190/195/190 189/194/189
f 222/228/222 223/229/223 191/196/191
f 222/228/222 191/196/191 190/195/190
f 223/229/223 224/230/224 192/197/192
f 223/229/223 192/197/192 191/196/191
f 224/230/224 193/231/193 161/198/161
f 224/230/224 161/198/161 192/197/192
f 225/232/225 226/233/226 194/200/194
f 225/232/225 194/200/194 193/199/193
f 226/233/226 227/234/227 195/201/195
f 226/233/226 195/201/195 194/200/194
f 227/234/227 228/235/228 196/202/196
f 227/234/227 196/202/196 195/201/195
f 228/235/228 229/236/229 197/203/197
f 228/235/228 197/203/197 196/202/196
f 229/236/229 230/237/230 198/204/198
f 229/236/229 198/204/198 197/203/197
f 230/237/230 231/238/231 199/205/199
f 230/237/230 199/205/199 198/204/198
f 231/238/231 232/239/232 200/206/200
f 231/238/231 200/206/200 199/205/199
f 232/239/232 233/240/233 201/207/201
f 232/239/232 201/207/201 200/206/200
f 233/240/233 234/241/234 202/208/202
f 233/240/233 202/208/202 201/207/201
f 234/241/234 235/242/235 203/209/203
f 234/241/234 203/209/203 202/208/202
f 235/242/235 236/243/236 204/210/204
f 235/242/235 204/210/204 203/209/203
f 236/243/236 237/244/237 205/211/205
f 236/243/236 205/211/205 204/210/204
f 237/244/237 238/245/238 206/212/206
f 237/244/237 206/212/206 205/211/205
f 238/245/238 239/246/239 207/213/207
f 238/245/238 207/213/207 206/212/206
f 239/246/239 240/247/240 208/214/208
f 239/246/239 208/214/208 207/213/207
f 240/247/240 241/248/241 209/215/209
f 240/247/240 209/215/209 208/214/208
f 241/248/241 242/249/242 210/216/210
f 241/248/241 210/216/210 209/215/209
f 242/249/242 243/250/243 211/217/211
f 242/249/242 211/217/211 210/216/210
f 243/250/243 244/251/244 212/218/212
f 243/250/243 212/218/212 211/217/211
f 244/251/244 245/252/245 213/219/213
f 244/251/244 213/219/213 212/218/212
f 245/252/245 246/253/246 214/220/214
f 245/252/245 214/220/214 213/219/213
f 246/253/246 247/254/247 215/221/215
f 246/253/246 215/221/215 214/220/214
f 247/254/247 248/255/248 216/222/216
f 247/254/247 216/222/216 215/221/215
f 248/255/248 249/256/249 217/223/217
f 248/255/248 217/223/217 216/222/216
f 249/256/249 250/257/250 218/224/218
f 249/256/249 218/224/218 217/223/217
f 250/257/250 251/258/251 219/225/219
f 250/257/250 219/225/219 218/224/218
f 251/258/251 252/259/252 220/226/220
f 251/258/251 220/226/220 219/225/219
f 252/259/252 253/260/253 221/227/221
f 252/259/252 221/227/221 220/226/220
f 253/260/253 254/261/254 222/228/222
f 253/260/253 222/228/222 221/227/221
f 254/261/254 255/262/255 223/229/223
f 254/261/254 223/229/223 222/228/222
f 255/262/255 256/263/256 224/230/224
f 255/262/255 224/230/224 223/229/223
f 256/263/256 225/264/225 193/231/193
f 256/263/256 193/231/193 224/230/224
f 257/265/257 258/266/258 226/233/226
f 257/265/257 226/233/226 225/232/225
f 258/266/258 259/267/259 227/234/227
f 258/266/258 227/234/227 226/233/226
f 259/267/259 260/268/260 228/235/228
f 259/267/259 228/235/228 227/234/227
f 260/268/260 261/269/261 229/236/229
f 260/268/260 229/236/229 228/235/228
f 261/269/261 262/270/262 230/237/230
f 261/269/261 230/237/230 229/236/229
f 262/270/262 263/271/263 231/238/231
f 262/270/262 231/238/231 230/237/230
f 263/271/263 264/272/264 232/239/232
f 263/271/263 232/239/232 231/238/231
f 264/272/264 265/273/265 233/240/233
f 264/272/264 233/240/233 232/239/232
f 265/273/265 266/274/266 234/241/234
f 265/273/265 234/241/234 233/240/233
f 266/274/266 267/275/267 235/242/235
f 266/274/266 235/242/235 234/241/234
f 267/275/267 268/276/268 236/243/236
f 267/275/267 236/243/236 235/242/235
f 268/276/268 269/277/269 237/244/237
f 268/276/268 237/244/237 236/243/236
f 269/277/269 270/278/270 238/245/238
f 269/277/269 238/245/238 237/244/237
f 270/278/270 271/279/271 239/246/239
f 270/278/270 239/246/239 238/245/238
f 271/279/271 272/280/272 240/247/240
f 271/279/271 240/247/240 239/246/239
f 272/280/272 273/281/273 241/248/241
f 272/280/272 241/248/241 240/247/240
f 273/281/273 274/282/274 242/249/242
f 273/281/273 242/249/242 241/248/241
f 274/282/274 275/283/275 243/250/243
f 274/282/274 243/250/243 242/249/242
f 275/283/275 276/284/276 244/251/244
f 275/283/275 244/251/244 243/250/243
f 276/284/276 277/285/277 245/252/245
f 276/284/276 245/252/245 244/251/244
f 277/285/277 278/286/278 246/253/246
f 277/285/277 246/253/246 245/252/245
f 278/286/278 279/287/279 247/254/247
f 278/286/278 247/254/247 246/253/246
f 279/287/279 280/288/280 248/255/248
f 279/287/279 248/255/248 247/254/247
f 280/288/280 281/289/281 249/256/249
f 280/288/280 249/256/249 248/255/248
f 281/289/281 282/290/282 250/257/250
f 281/289/281 250/257/250 249/256/249
f 282/290/282 283/291/283 251/258/251
f 282/290/282 251/258/251 250/257/250
f 283/291/283 284/292/284 252/259/252
f 283/291/283 252/259/252 251/258/251
f 284/292/284 285/293/285 253/260/253
f 284/292/284 253/260/253 252/259/252
f 285/293/285 286/294/286 254/261/254
f 285/293/285 254/261/254 253/260/253
f 286/294/286 287/295/287 255/262/255
f 286/294/286 255/262/255 254/261/254
f 287/295/287 288/296/288 256/263/256
f 287/295/287 256/263/256 255/262/255
f 288/296/288 257/297/257 225/264/225
f 288/296/288 225/264/225 256/263/256
f 289/298/289 290/299/290 258/266/258
f 289/298/289 258/266/258 257/265/257
f 290/299/290 291/300/291 259/267/259
f 290/299/290 259/267/259 258/266/258
f 291/300/291 292/301/292 260/268/260
f 291/300/291 260/268/260 259/267/259
f 292/301/292 293/302/293 261/269/261
f 292/301/292 261/269/261 260/268/260
f 293/302/293 294/303/294 262/270/262
f 293/302/293 262/270/262 261/269/261
f 294/303/294 295/304/295 263/271/263
f 294/303/294 263/271/263 262/270/262
f 295/304/295 296/305/296 264/272/264
f 295/304/295 264/272/264 263/271/263
f 296/305/296 297/306/297 265/273/265
f 296/305/296 265/273/265 264/272/264
f 297/306/297 298/307/298 266/274/266
f 297/306/297 266/274/266 265/273/265
f 298/307/298 299/308/299 267/275/267
f 298/307/298 267/275/267 266/274/266
f 299/308/299 300/309/300 268/276/268
f 299/308/299 268/276/268 267/275/267
f 300/309/300 301/310/301 269/277/269
f 300/309/300 269/277/269 268/276/268
f 301/310/301 302/311/302 270/278/270
f 301/310/301 270/278/270 269/277/269
f 302/311/302 303/312/303 271/279/271
f 302/311/302 271/279/271 270/278/270
f 303/312/303 304/313/304 272/280/272
f 303/312/303 272/280/272 271/279/271
f 304/313/304 305/314/305 273/281/273
f 304/313/304 273/281/273 272/280/272
f 305/314/305 306/315/306 274/282/274
f 305/314/305 274/282/274 273/281/273
f 306/315/306 307/316/307 275/283/275
f 306/315/306 275/283/275 274/282/274
f 307/316/307 308/317/308 276/284/276
f 307/316/307 276/284/276 275/283/275
f 308/317/308 309/318/309 277/285/277
f 308/317/308 277/285/277 276/284/276
f 309/318/309 310/319/310 278/286/278
f 309/318/309 278/286/278 277/285/277
f 310/319/310 311/320/311 279/287/279
f 310/319/310 279/287/279 278/286/278
f 311/320/311 312/321/312 280/288/280
f 311/320/311 280/288/280 279/287/279
f 312/321/312 313/322/313 281/289/281
f 312/321/312 281/289/281 280/288/280
f 313/322/313 314/323/314 282/290/282
f 313/322/313 282/290/282 281/289/281
f 314/323/314 315/324/315 283/291/283
f 314/323/314 283/291/283 282/290/282
f 315/324/315 316/325/316 284/292/284
f 315/324/315 284/292/284 283/291/283
f 316/325/316 317/326/317 285/293/285
f 316/325/316 285/293/285 284/292/284
f 317/326/317 318/327/318 286/294/286
f 317/326/317 286/294/286 285/293/285
f 318/327/318 319/328/319 287/295/287
f 318/327/318 287/295/287 286/294/286
f 319/328/319 320/329/320 288/296/288
f 319/328/319 288/296/288 287/295/287
f 320/329/320 289/330/289 257/297/257
f 320/329/320 257/297/257 288/296/288
f 321/331/321 322/332/322 290/299/290
f 321/331/321 290/299/290 289/298/289
f 322/332/322 323/333/323 291/300/291
f 322/332/322 291/300/291 290/299/290
f 323/333/323 324/334/324 292/301/292
f 323/333/323 292/301/292 291/300/291
f 324/334/324 325/335/325 293/302/293
f 324/334/324 293/302/293 292/301/292
f 325/335/325 326/336/326 294/303/294
f 325/335/325 294/303/294 293/302/293
f 326/336/326 327/337/327 295/304/295
f 326/336/326 295/304/295 294/303/294
f 327/337/327 328/338/328 296/305/296
f 327/337/327 296/305/296 295/304/295
f 328/338/328 329/339/329 297/306/297
f 328/338/328 297/306/297 296/305/296
f 329/339/329 330/340/330 298/307/298
f 329/339/329 298/307/298 297/306/297
f 330/340/330 331/341/331 299/308/299
f 330/340/330 299/308/299 298/307/298
f 331/341/331 332/342/332 300/309/300
f 331/341/331 300/309/300 299/308/299
f 332/342/332 333/343/333 301/310/301
f 332/342/332 301/310/301 300/309/300
f 333/343/333 334/344/334 302/311/302
f 333/343/333 302/311/302 301/310/301
f 334/344/334 335/345/335 303/312/303
f 334/344/334 303/312/303 302/311/302
f 335/345/335 336/346/336 304/313/304
f 335/345/335 304/313/304 303/312/303
f 336/346/336 337/347/337 305/314/305
f 336/346/336 305/314/305 304/313/304
f 337/347/337 338/348/338 306/315/306
f 337/347/337 306/315/306 305/314/305
f 338/348/338 339/349/339 307/316/307
f 338/348/338 307/316/307 306/315/306
f 339/349/339 340/350/340 308/317/308
f 339/349/339 308/317/308 307/316/307
f 340/350/340 341/351/341 309/318/309
f 340/350/340 309/318/309 308/317/308
f 341/351/341 342/352/342 310/319/310
f 341/351/341 310/319/310 309/318/309
f 342/352/342 343/353/343 311/320/311
f 342/352/342 311/320/311 310/319/310
f 343/353/343 344/354/344 312/321/312
f 343/353/343 312/321/312 311/320/311
f 344/354/344 345/355/345 313/322/313
f 344/354/344 313/322/313 312/321/312
f 345/355/345 346/356/346 314/323/314
f 345/355/345 314/323/314 313/322/313
f 346/356/346 347/357/347 315/324/315
f 346/356/346 315/324/315 314/323/314
f 347/357/347 348/358/348 316/325/316
f 347/357/347 316/325/316 315/324/315
f 348/358/348 349/359/349 317/326/317
f 348/358/348 317/326/317 316/325/316
f 349/359/349 350/360/350 318/327/318
f 349/359/349 318/327/318 317/326/317
f 350/360/350 351/361/351 319/328/319
f 350/360/350 319/328/319 318/327/318
f 351/361/351 352/362/352 320/329/320
f 351/361/351 320/329/320 319/328/319
f 352/362/352 321/363/321 289/330/289
f 352/362/352 289/330/289 320/329/320
f 353/364/353 354/365/354 322/332/322
f 353/364/353 322/332/322 321/331/321
f 354/365/354 355/366/355 323/333/323
f 354/365/354 323/333/323 322/332/322
f 355/366/355 356/367/356 324/334/324
f 355/366/355 324/334/324 323/333/323
f 356/367/356 357/368/357 325/335/325
f 356/367/356 325/335/325 324/334/324
f 357/368/357 358/369/358 326/336/326
f 357/368/357 326/336/326 325/335/325
f 358/369/358 359/370/359 327/337/327
f 358/369/358 327/337/327 326/336/326
f 359/370/359 360/371/360 328/338/328
f 359/370/359 328/338/328 327/337/327
f 360/371/360 361/372/361 329/339/329
f 360/371/360 329/339/329 328/338/328
f 361/372/361 362/373/362 330/340/330
f 361/372/361 330/340/330 329/339/329
f 362/373/362 363/374/363 331/341/331
f 362/373/362 331/341/331 330/340/330
f 363/374/363 364/375/364 332/342/332
f 363/374/363 332/342/332 331/341/331
f 364/375/364 365/376/365 333/343/333
f 364/375/364 333/343/333 332/342/332
f 365/376/365 366/377/366 334/344/334
f 365/376/365 334/344/334 333/343/333
f 366/377/366 367/378/367 335/345/335
f 366/377/366 335/345/335 334/344/334
f 367/378/367 368/379/368 336/346/336
f 367/378/367 336/346/336 335/345/335
f 368/379/368 369/380/369 337/347/337
f 368/379/368 337/347/337 336/346/336
f 369/380/369 370/381/370 338/348/338
f 369/380/369 338/348/338 337/347/337
f 370/381/370 371/382/371 339/349/339
f 370/381/370 339/349/339 338/348/338
f 371/382/371 372/383/372 340/350/340
f 371/382/371 340/350/340 339/349/339
f 372/383/372 373/384/373 341/351/341
f 372/383/372 341/351/341 340/350/340
f 373/384/373 374/385/374 342/352/342
f 373/384/373 342/352/342 341/351/341
f 374/385/374 375/386/375 343/353/343
f 374/385/374 343/353/343 342/352/342
f 375/386/375 376/387/376 344/354/344
f 375/386/375 344/354/344 343/353/343
f 376/387/376 377/388/377 345/355/345
f 376/387/376 345/355/345 344/354/344
f 377/388/377 378/389/378 346/356/346
f 377/388/377 346/356/346 345/355/345
f 378/389/378 379/390/379 347/357/347
f 378/389/378 347/357/347 346/356/346
f 379/390/379 380/391/380 348/358/348
f 379/390/379 348/358/348 347/357/347
f 380/391/380 381/392/381 349/359/349
f 380/391/380 349/359/349 348/358/348
f 381/392/381 382/393/382 350/360/350
f 381/392/381 350/360/350 349/359/349
f 382/393/382 383/394/383 351/361/351
f 382/393/382 351/361/351 350/360/350
f 383/394/383 384/395/384 352/362/352
f 383/394/383 352/362/352 351/361/351
f 384/395/384 353/396/353 321/363/321
f 384/395/384 321/363/321 352/362/352
f 385/397/385 354/365/354 353/364/353
f 385/398/385 355/366/355 354/365/354
f 385/399/385 356/367/356 355/366/355
f 385/400/385 357/368/357 356/367/356
f 385/401/385 358/369/358 357/368/357
f 385/402/385 359/370/359 358/369/358
f 385/403/385 360/371/360 359/370/359
f 385/404/385 361/372/361 360/371/360
f 385/405/385 362/373/362 361/372/361
f 385/406/385 363/374/363 362/373/362
f 385/407/385 364/375/364 363/374/363
f 385/408/385 365/376/365 364/375/364
f 385/409/385 366/377/366 365/376/365
f 385/410/385 367/378/367 366/377/366
f 385/411/385 368/379/368 367/378/367
f 385/412/385 369/380/369 368/379/368
f 385/413/385 370/381/370 369/380/369
f 385/414/385 371/382/371 370/381/370
f 385/415/385 372/383/372 371/382/371
f 385/416/385 373/384/373 372/383/372
f 385/417/385 374/385/374 373/384/373
f 385/418/385 375/386/375 374/385/374
f 385/419/385 376/387/376 375/386/375
f 385/420/385 377/388/377 376/387/376
f 385/421/385 378/389/378 377/388/377
f 385/422/385 379/390/379 378/389/378
f 385/423/385 380/391/380 379/390/379
f 385/424/385 381/392/381 380/391/380
f 385/425/385 382/393/382 381/392/381
f 385/426/385 383/394/383 382/393/382
f 385/427/385 384/395/384 383/394/383
f 385/428/385 353/396/353 384/395/384
f 386/215/386 3/429/386 4/231/386
f 386/215/386 6/430/386 3/429/386
f 386/215/386 8/431/386 6/430/386
f 386/215/386 10/432/386 8/431/386
f 386/215/386 12/433/386 10/432/386
f 386/215/386 14/434/386 12/433/386
f 386/215/386 16/435/386 14/434/386
f 386/215/386 18/413/386 16/435/386
f 386/215/386 20/436/386 18/413/386
f 386/215/386 22/437/386 20/436/386
f 386/215/386 24/438/386 22/437/386
f 386/215/386 26/439/386 24/438/386
f 386/215/386 28/440/386 26/439/386
f 386/215/386 30/441/386 28/440/386
f 386/215/386 32/442/386 30/441/386
f 386/215/386 34/199/386 32/442/386
f 386/215/386 36/443/386 34/199/386
f 386/215/386 38/444/386 36/443/386
f 386/215/386 40/445/386 38/444/386
f 386/215/386 42/446/386 40/445/386
f 386/215/386 44/447/386 42/446/386
f 386/215/386 46/448/386 44/447/386
f 386/215/386 48/449/386 46/448/386
f 386/215/386 50/34/386 48/449/386
f 386/215/386 52/450/386 50/34/386
f 386/215/386 54/451/386 52/450/386
f 386/215/386 56/452/386 54/451/386
f 386/215/386 58/453/386 56/452/386
f 386/215/386 60/454/386 58/453/386
f 386/215/386 62/455/386 60/454/386
f 386/215/386 64/456/386 62/455/386
f 386/215/386 4/231/386 64/456/386
