# Jahshaka primitive: Star
# Generated by scripts/primitives/genprimitives.py - modelled centred in the +/-1 box.
o Star
v 0.000000 0.000000 0.200000
v 0.000000 1.000000 0.200000
v -0.235114 0.323607 0.200000
v -0.951057 0.309017 0.200000
v -0.380423 -0.123607 0.200000
v -0.587785 -0.809017 0.200000
v 0.000000 -0.400000 0.200000
v 0.587785 -0.809017 0.200000
v 0.380423 -0.123607 0.200000
v 0.951057 0.309017 0.200000
v 0.235114 0.323607 0.200000
v 0.000000 0.000000 -0.200000
v -0.235114 0.323607 -0.200000
v 0.000000 1.000000 -0.200000
v -0.951057 0.309017 -0.200000
v -0.380423 -0.123607 -0.200000
v -0.587785 -0.809017 -0.200000
v 0.000000 -0.400000 -0.200000
v 0.587785 -0.809017 -0.200000
v 0.380423 -0.123607 -0.200000
v 0.951057 0.309017 -0.200000
v 0.235114 0.323607 -0.200000
vt 0.500000 0.500000
vt 0.500000 1.000000
vt 0.382443 0.661803
vt 0.024472 0.654508
vt 0.309789 0.438197
vt 0.206107 0.095492
vt 0.500000 0.300000
vt 0.793893 0.095492
vt 0.690211 0.438197
vt 0.975528 0.654508
vt 0.617557 0.661803
vt 0.000000 1.000000
vt 0.100000 1.000000
vt 0.100000 0.000000
vt 0.000000 0.000000
vt 0.200000 1.000000
vt 0.200000 0.000000
vt 0.300000 1.000000
vt 0.300000 0.000000
vt 0.400000 1.000000
vt 0.400000 0.000000
vt 0.500000 0.000000
vt 0.600000 1.000000
vt 0.600000 0.000000
vt 0.700000 1.000000
vt 0.700000 0.000000
vt 0.800000 1.000000
vt 0.800000 0.000000
vt 0.900000 1.000000
vt 0.900000 0.000000
vt 1.000000 1.000000
vt 1.000000 0.000000
vn 0.000000 0.000000 1.000000
vn 0.000000 0.000000 -1.000000
vn 0.944563 -0.328330 0.000000
vn 0.020374 -0.999792 0.000000
vn 0.604146 0.796873 0.000000
vn 0.957155 -0.289576 0.000000
vn -0.571180 0.820825 0.000000
vn 0.571180 0.820825 0.000000
vn -0.957155 -0.289576 0.000000
vn -0.604146 0.796873 0.000000
vn -0.020374 -0.999792 0.000000
vn -0.944563 -0.328330 0.000000
f 1/1/1 2/2/1 3/3/1
f 1/1/1 3/3/1 4/4/1
f 1/1/1 4/4/1 5/5/1
f 1/1/1 5/5/1 6/6/1
f 1/1/1 6/6/1 7/7/1
f 1/1/1 7/7/1 8/8/1
f 1/1/1 8/8/1 9/9/1
f 1/1/1 9/9/1 10/10/1
f 1/1/1 10/10/1 11/11/1
f 1/1/1 11/11/1 2/2/1
f 12/1/2 13/3/2 14/2/2
f 12/1/2 15/4/2 13/3/2
f 12/1/2 16/5/2 15/4/2
f 12/1/2 17/6/2 16/5/2
f 12/1/2 18/7/2 17/6/2
f 12/1/2 19/8/2 18/7/2
f 12/1/2 20/9/2 19/8/2
f 12/1/2 21/10/2 20/9/2
f 12/1/2 22/11/2 21/10/2
f 12/1/2 14/2/2 22/11/2
f 2/12/3 3/13/3 13/14/3
f 2/12/3 13/14/3 14/15/3
f 3/13/4 4/16/4 15/17/4
f 3/13/4 15/17/4 13/14/4
f 4/16/5 5/18/5 16/19/5
f 4/16/5 16/19/5 15/17/5
f 5/18/6 6/20/6 17/21/6
f 5/18/6 17/21/6 16/19/6
f 6/20/7 7/2/7 18/22/7
f 6/20/7 18/22/7 17/21/7
f 7/2/8 8/23/8 19/24/8
f 7/2/8 19/24/8 18/22/8
f 8/23/9 9/25/9 20/26/9
f 8/23/9 20/26/9 19/24/9
f 9/25/10 10/27/10 21/28/10
f 9/25/10 21/28/10 20/26/10
f 10/27/11 11/29/11 22/30/11
f 10/27/11 22/30/11 21/28/11
f 11/29/12 2/31/12 14/32/12
f 11/29/12 14/32/12 22/30/12
