# Blender v2.79 (sub 0) OBJ File: 'ModelPresets.blend'
# www.blender.org
mtllib steps.mtl
o Cube.001_Cube.002
v -2.000000 -0.000000 0.000000
v -2.000000 -0.000000 -1.200000
v -2.000000 0.400000 -1.200000
v 2.000000 -0.000000 0.000000
v 2.000000 0.400000 0.000000
v 2.000000 -0.000000 -1.200000
v 2.000000 0.400000 -1.200000
v -2.000000 0.400000 0.000000
v -2.000000 0.800000 0.000000
v -2.310583 0.400000 -1.159111
v -2.310583 0.800000 -1.159111
v 1.863703 0.400000 -1.035276
v 1.863703 0.800000 -1.035276
v 1.553120 0.400000 -2.194387
v 1.553120 0.800000 -2.194387
v -2.600000 0.800000 -1.039230
v -2.600000 1.200000 -1.039230
v 1.464102 0.800000 -2.000000
v 1.464102 1.200000 -2.000000
v 0.864101 0.800000 -3.039230
v 0.864101 1.200000 -3.039230
v -2.000000 1.200000 0.000000
v -2.848528 1.200000 -0.848528
v -2.848528 1.600000 -0.848528
v 0.828427 1.200000 -2.828427
v 0.828427 1.600000 -2.828427
v -0.020101 1.200000 -3.676955
v -0.020101 1.600000 -3.676955
v -2.000000 1.600000 0.000000
v -3.039230 1.600000 -0.600000
v -3.039230 2.000000 -0.600000
v -0.000000 1.600000 -3.464101
v -0.000000 2.000000 -3.464101
v -1.039231 1.600000 -4.064101
v -1.039231 2.000000 -4.064101
v -2.000000 2.000000 0.000000
v -2.000000 2.400000 0.000000
v -3.159111 2.000000 -0.310583
v -3.159111 2.400000 -0.310583
v -0.964724 2.000000 -3.863703
v -0.964724 2.400000 -3.863703
v -2.123835 2.000000 -4.174285
v -2.123835 2.400000 -4.174285
v -3.200000 2.400000 0.000000
v -3.200000 2.800000 0.000000
v -2.000000 2.400000 -3.999999
v -2.000000 2.800000 -3.999999
v -3.200000 2.400000 -3.999999
v -3.200000 2.800000 -3.999999
v -2.000000 2.800000 0.000000
v -2.000000 3.200000 0.000000
v -3.218951 2.800000 0.004730
v -3.218951 3.200000 0.004730
v -3.035276 2.800000 -3.863703
v -3.035276 3.200000 -3.863703
v -4.194387 2.800000 -3.553120
v -4.194387 3.200000 -3.553120
vt 0.500000 0.500000
vt 0.500000 0.600000
vt 0.699922 0.600000
vt 0.699922 0.500000
vt 0.166797 0.500000
vt 0.166797 0.600000
vt 0.833203 0.600000
vt 0.833203 0.500000
vt 0.699922 0.500000
vt 0.699922 0.600000
vt 0.500000 0.600000
vt 0.500000 0.500000
vt 0.166797 0.500000
vt 0.166797 0.600000
vt -0.499609 0.600000
vt -0.499609 0.500000
vt 0.166797 0.800000
vt 0.833203 0.800000
vt 0.833203 0.500000
vt 0.166797 0.500000
vt 0.166797 0.800000
vt -0.499609 0.800000
vt -0.499609 0.500000
vt 0.166797 0.500000
vt 0.500000 0.700000
vt 0.693110 0.700000
vt 0.693110 0.600000
vt 0.781460 0.600000
vt 0.781460 0.700000
vt 1.425159 0.700000
vt 1.425159 0.600000
vt 0.199182 0.600000
vt 0.199182 0.700000
vt 0.006072 0.700000
vt 0.006072 0.600000
vt 0.810496 0.600000
vt 0.810496 0.700000
vt 0.166797 0.700000
vt 0.166797 0.600000
vt 0.781460 0.789778
vt 1.425159 1.048597
vt 1.476902 0.758819
vt 0.833203 0.500000
vt 0.758752 0.048597
vt 0.115053 -0.210222
vt 0.166797 -0.500000
vt 0.810496 -0.241181
vt 0.500000 0.800000
vt 0.673137 0.800000
vt 0.673137 0.700000
vt 0.733242 0.700000
vt 0.733242 0.800000
vt 1.310367 0.800000
vt 1.310367 0.700000
vt 0.339934 0.700000
vt 0.339934 0.800000
vt 0.166797 0.800000
vt 0.166797 0.700000
vt 0.743922 0.700000
vt 0.743922 0.800000
vt 0.166797 0.800000
vt 0.733242 0.759808
vt 1.310367 1.259808
vt 1.410328 1.000000
vt 0.833203 0.500000
vt 0.643961 0.259808
vt 0.066836 -0.240192
vt 0.166797 -0.500000
vt 0.743922 0.000000
vt 0.166797 0.900000
vt 0.025431 0.900000
vt 0.025431 0.800000
vt 0.641366 0.800000
vt 0.641366 0.900000
vt 1.112586 0.900000
vt 1.112586 0.800000
vt 0.496651 0.800000
vt 0.496651 0.900000
vt 0.638017 0.900000
vt 0.638017 0.800000
vt 0.304814 0.800000
vt 0.304814 0.900000
vt -0.166406 0.900000
vt -0.166406 0.800000
vt 0.691837 0.712132
vt 1.163057 1.419239
vt 1.304424 1.207107
vt 0.833203 0.500000
vt 0.496651 0.419239
vt 0.025431 -0.287868
vt 0.166797 -0.500000
vt 0.638017 0.207107
vt 0.166797 1.000000
vt -0.006341 1.000000
vt -0.006341 0.900000
vt 0.599961 0.900000
vt 0.599961 1.000000
vt 1.177086 1.000000
vt 1.177086 0.900000
vt 0.326863 0.900000
vt 0.326863 1.000000
vt 0.500000 1.000000
vt 0.500000 0.900000
vt 0.410718 0.900000
vt 0.410718 1.000000
vt -0.166406 1.000000
vt 0.660066 0.650000
vt 0.993269 1.516025
vt 1.166406 1.366025
vt 0.833203 0.500000
vt 0.326863 0.516025
vt -0.006341 -0.350000
vt 0.166797 -0.500000
vt 0.500000 0.366025
vt 0.166797 0.000000
vt 0.166797 0.100000
vt -0.026313 0.100000
vt -0.026313 0.000000
vt 0.551744 0.000000
vt 0.551744 0.100000
vt 1.195442 0.100000
vt 1.195442 0.000000
vt 0.812572 0.000000
vt 0.812572 0.100000
vt 1.005682 0.100000
vt 1.005682 0.000000
vt 0.477293 0.000000
vt 0.477293 0.100000
vt -0.166406 0.100000
vt -0.166406 0.000000
vt 0.640093 0.577646
vt 0.812572 1.543571
vt 1.005682 1.465926
vt 0.833203 0.500000
vt 0.812572 0.543571
vt 0.640093 -0.422354
vt 0.833203 -0.500000
vt 1.005682 0.465926
vt 0.166797 0.200000
vt -0.033125 0.200000
vt -0.033125 0.100000
vt 0.500000 0.100000
vt 0.500000 0.200000
vt 1.166406 0.200000
vt 1.166406 0.100000
vt 0.633281 0.100000
vt 0.633281 0.200000
vt 0.833203 0.200000
vt 0.833203 0.100000
vt 0.500000 0.100000
vt 0.500000 0.200000
vt -0.166406 0.200000
vt 0.633281 0.500000
vt 0.633281 1.500000
vt 0.833203 1.500000
vt 0.833203 0.500000
vt 0.633281 0.500000
vt 0.633281 -0.500000
vt 0.833203 -0.500000
vt 0.833203 0.500000
vt 0.166797 0.300000
vt -0.036282 0.300000
vt -0.036282 0.200000
vt 0.499212 0.200000
vt 0.499212 0.300000
vt 1.091955 0.300000
vt 1.091955 0.200000
vt 0.467615 0.200000
vt 0.467615 0.300000
vt 0.660725 0.300000
vt 0.660725 0.200000
vt 0.477293 0.200000
vt 0.477293 0.300000
vt -0.166406 0.300000
vt 0.630124 0.498817
vt 0.467615 1.388280
vt 0.660725 1.465926
vt 0.833203 0.500000
vt 0.467615 0.388280
vt 0.630124 -0.501183
vt 0.833203 -0.500000
vt 0.660725 0.465926
vn -1.0000 0.0000 0.0000
vn 0.0000 0.0000 -1.0000
vn 1.0000 0.0000 0.0000
vn 0.0000 0.0000 1.0000
vn 0.0000 -1.0000 0.0000
vn -0.0000 1.0000 0.0000
vn -0.9659 0.0000 0.2588
vn -0.2588 0.0000 -0.9659
vn 0.9659 0.0000 -0.2588
vn 0.2588 0.0000 0.9659
vn -0.8660 0.0000 0.5000
vn -0.5000 0.0000 -0.8660
vn 0.8660 0.0000 -0.5000
vn 0.5000 0.0000 0.8660
vn -0.7071 0.0000 0.7071
vn -0.7071 0.0000 -0.7071
vn 0.7071 0.0000 -0.7071
vn 0.7071 0.0000 0.7071
vn -0.5000 0.0000 0.8660
vn -0.8660 0.0000 -0.5000
vn 0.5000 0.0000 -0.8660
vn 0.8660 0.0000 0.5000
vn -0.2588 0.0000 0.9659
vn -0.9659 0.0000 -0.2588
vn 0.2588 0.0000 -0.9659
vn 0.9659 0.0000 0.2588
vn 0.0039 0.0000 1.0000
vn -0.9644 0.0000 0.2644
usemtl None
s off
f 1/1/1 8/2/1 3/3/1 2/4/1
f 2/5/2 3/6/2 7/7/2 6/8/2
f 6/9/3 7/10/3 5/11/3 4/12/3
f 4/13/4 5/14/4 8/15/4 1/16/4
f 2/17/5 6/18/5 4/19/5 1/20/5
f 7/21/6 3/22/6 8/23/6 5/24/6
f 8/2/7 9/25/7 11/26/7 10/27/7
f 10/28/8 11/29/8 15/30/8 14/31/8
f 14/32/9 15/33/9 13/34/9 12/35/9
f 12/36/10 13/37/10 9/38/10 8/39/10
f 10/40/5 14/41/5 12/42/5 8/43/5
f 15/44/6 11/45/6 9/46/6 13/47/6
f 9/25/11 22/48/11 17/49/11 16/50/11
f 16/51/12 17/52/12 21/53/12 20/54/12
f 20/55/13 21/56/13 19/57/13 18/58/13
f 18/59/14 19/60/14 22/61/14 9/38/14
f 16/62/5 20/63/5 18/64/5 9/65/5
f 21/66/6 17/67/6 22/68/6 19/69/6
f 22/61/15 29/70/15 24/71/15 23/72/15
f 23/73/16 24/74/16 28/75/16 27/76/16
f 27/77/17 28/78/17 26/79/17 25/80/17
f 25/81/18 26/82/18 29/83/18 22/84/18
f 23/85/5 27/86/5 25/87/5 22/88/5
f 28/89/6 24/90/6 29/91/6 26/92/6
f 29/70/19 36/93/19 31/94/19 30/95/19
f 30/96/20 31/97/20 35/98/20 34/99/20
f 34/100/21 35/101/21 33/102/21 32/103/21
f 32/104/22 33/105/22 36/106/22 29/83/22
f 30/107/5 34/108/5 32/109/5 29/110/5
f 35/111/6 31/112/6 36/113/6 33/114/6
f 36/115/23 37/116/23 39/117/23 38/118/23
f 38/119/24 39/120/24 43/121/24 42/122/24
f 42/123/25 43/124/25 41/125/25 40/126/25
f 40/127/26 41/128/26 37/129/26 36/130/26
f 38/131/5 42/132/5 40/133/5 36/134/5
f 43/135/6 39/136/6 37/137/6 41/138/6
f 37/116/4 50/139/4 45/140/4 44/141/4
f 44/142/1 45/143/1 49/144/1 48/145/1
f 48/146/2 49/147/2 47/148/2 46/149/2
f 46/150/3 47/151/3 50/152/3 37/129/3
f 44/153/5 48/154/5 46/155/5 37/156/5
f 49/157/6 45/158/6 50/159/6 47/160/6
f 50/139/27 51/161/27 53/162/27 52/163/27
f 52/164/28 53/165/28 57/166/28 56/167/28
f 56/168/8 57/169/8 55/170/8 54/171/8
f 54/172/9 55/173/9 51/174/9 50/152/9
f 52/175/5 56/176/5 54/177/5 50/178/5
f 57/179/6 53/180/6 51/181/6 55/182/6
