# Jahshaka primitive: Tube
# Generated by scripts/genprimitives.py - modelled centred in the +/-1 box.
o Tube
v 1.000000 1.000000 0.000000
v 0.980785 1.000000 0.195090
v 0.980785 -1.000000 0.195090
v 1.000000 -1.000000 0.000000
v 0.588471 1.000000 0.117054
v 0.600000 1.000000 0.000000
v 0.600000 -1.000000 0.000000
v 0.588471 -1.000000 0.117054
v 0.923880 1.000000 0.382683
v 0.923880 -1.000000 0.382683
v 0.554328 1.000000 0.229610
v 0.554328 -1.000000 0.229610
v 0.831470 1.000000 0.555570
v 0.831470 -1.000000 0.555570
v 0.498882 1.000000 0.333342
v 0.498882 -1.000000 0.333342
v 0.707107 1.000000 0.707107
v 0.707107 -1.000000 0.707107
v 0.424264 1.000000 0.424264
v 0.424264 -1.000000 0.424264
v 0.555570 1.000000 0.831470
v 0.555570 -1.000000 0.831470
v 0.333342 1.000000 0.498882
v 0.333342 -1.000000 0.498882
v 0.382683 1.000000 0.923880
v 0.382683 -1.000000 0.923880
v 0.229610 1.000000 0.554328
v 0.229610 -1.000000 0.554328
v 0.195090 1.000000 0.980785
v 0.195090 -1.000000 0.980785
v 0.117054 1.000000 0.588471
v 0.117054 -1.000000 0.588471
v 0.000000 1.000000 1.000000
v 0.000000 -1.000000 1.000000
v 0.000000 1.000000 0.600000
v 0.000000 -1.000000 0.600000
v -0.195090 1.000000 0.980785
v -0.195090 -1.000000 0.980785
v -0.117054 1.000000 0.588471
v -0.117054 -1.000000 0.588471
v -0.382683 1.000000 0.923880
v -0.382683 -1.000000 0.923880
v -0.229610 1.000000 0.554328
v -0.229610 -1.000000 0.554328
v -0.555570 1.000000 0.831470
v -0.555570 -1.000000 0.831470
v -0.333342 1.000000 0.498882
v -0.333342 -1.000000 0.498882
v -0.707107 1.000000 0.707107
v -0.707107 -1.000000 0.707107
v -0.424264 1.000000 0.424264
v -0.424264 -1.000000 0.424264
v -0.831470 1.000000 0.555570
v -0.831470 -1.000000 0.555570
v -0.498882 1.000000 0.333342
v -0.498882 -1.000000 0.333342
v -0.923880 1.000000 0.382683
v -0.923880 -1.000000 0.382683
v -0.554328 1.000000 0.229610
v -0.554328 -1.000000 0.229610
v -0.980785 1.000000 0.195090
v -0.980785 -1.000000 0.195090
v -0.588471 1.000000 0.117054
v -0.588471 -1.000000 0.117054
v -1.000000 1.000000 0.000000
v -1.000000 -1.000000 0.000000
v -0.600000 1.000000 0.000000
v -0.600000 -1.000000 0.000000
v -0.980785 1.000000 -0.195090
v -0.980785 -1.000000 -0.195090
v -0.588471 1.000000 -0.117054
v -0.588471 -1.000000 -0.117054
v -0.923880 1.000000 -0.382683
v -0.923880 -1.000000 -0.382683
v -0.554328 1.000000 -0.229610
v -0.554328 -1.000000 -0.229610
v -0.831470 1.000000 -0.555570
v -0.831470 -1.000000 -0.555570
v -0.498882 1.000000 -0.333342
v -0.498882 -1.000000 -0.333342
v -0.707107 1.000000 -0.707107
v -0.707107 -1.000000 -0.707107
v -0.424264 1.000000 -0.424264
v -0.424264 -1.000000 -0.424264
v -0.555570 1.000000 -0.831470
v -0.555570 -1.000000 -0.831470
v -0.333342 1.000000 -0.498882
v -0.333342 -1.000000 -0.498882
v -0.382683 1.000000 -0.923880
v -0.382683 -1.000000 -0.923880
v -0.229610 1.000000 -0.554328
v -0.229610 -1.000000 -0.554328
v -0.195090 1.000000 -0.980785
v -0.195090 -1.000000 -0.980785
v -0.117054 1.000000 -0.588471
v -0.117054 -1.000000 -0.588471
v 0.000000 1.000000 -1.000000
v 0.000000 -1.000000 -1.000000
v 0.000000 1.000000 -0.600000
v 0.000000 -1.000000 -0.600000
v 0.195090 1.000000 -0.980785
v 0.195090 -1.000000 -0.980785
v 0.117054 1.000000 -0.588471
v 0.117054 -1.000000 -0.588471
v 0.382683 1.000000 -0.923880
v 0.382683 -1.000000 -0.923880
v 0.229610 1.000000 -0.554328
v 0.229610 -1.000000 -0.554328
v 0.555570 1.000000 -0.831470
v 0.555570 -1.000000 -0.831470
v 0.333342 1.000000 -0.498882
v 0.333342 -1.000000 -0.498882
v 0.707107 1.000000 -0.707107
v 0.707107 -1.000000 -0.707107
v 0.424264 1.000000 -0.424264
v 0.424264 -1.000000 -0.424264
v 0.831470 1.000000 -0.555570
v 0.831470 -1.000000 -0.555570
v 0.498882 1.000000 -0.333342
v 0.498882 -1.000000 -0.333342
v 0.923880 1.000000 -0.382683
v 0.923880 -1.000000 -0.382683
v 0.554328 1.000000 -0.229610
v 0.554328 -1.000000 -0.229610
v 0.980785 1.000000 -0.195090
v 0.980785 -1.000000 -0.195090
v 0.588471 1.000000 -0.117054
v 0.588471 -1.000000 -0.117054
vt 0.000000 1.000000
vt 0.031250 1.000000
vt 0.031250 0.000000
vt 0.000000 0.000000
vt 0.800000 0.500000
vt 0.794236 0.558527
vt 0.990393 0.597545
vt 1.000000 0.500000
vt 0.062500 1.000000
vt 0.062500 0.000000
vt 0.777164 0.614805
vt 0.961940 0.691342
vt 0.093750 1.000000
vt 0.093750 0.000000
vt 0.749441 0.666671
vt 0.915735 0.777785
vt 0.125000 1.000000
vt 0.125000 0.000000
vt 0.712132 0.712132
vt 0.853553 0.853553
vt 0.156250 1.000000
vt 0.156250 0.000000
vt 0.666671 0.749441
vt 0.777785 0.915735
vt 0.187500 1.000000
vt 0.187500 0.000000
vt 0.614805 0.777164
vt 0.691342 0.961940
vt 0.218750 1.000000
vt 0.218750 0.000000
vt 0.558527 0.794236
vt 0.597545 0.990393
vt 0.250000 1.000000
vt 0.250000 0.000000
vt 0.500000 0.800000
vt 0.500000 1.000000
vt 0.281250 1.000000
vt 0.281250 0.000000
vt 0.441473 0.794236
vt 0.402455 0.990393
vt 0.312500 1.000000
vt 0.312500 0.000000
vt 0.385195 0.777164
vt 0.308658 0.961940
vt 0.343750 1.000000
vt 0.343750 0.000000
vt 0.333329 0.749441
vt 0.222215 0.915735
vt 0.375000 1.000000
vt 0.375000 0.000000
vt 0.287868 0.712132
vt 0.146447 0.853553
vt 0.406250 1.000000
vt 0.406250 0.000000
vt 0.250559 0.666671
vt 0.084265 0.777785
vt 0.437500 1.000000
vt 0.437500 0.000000
vt 0.222836 0.614805
vt 0.038060 0.691342
vt 0.468750 1.000000
vt 0.468750 0.000000
vt 0.205764 0.558527
vt 0.009607 0.597545
vt 0.500000 0.000000
vt 0.200000 0.500000
vt 0.000000 0.500000
vt 0.531250 1.000000
vt 0.531250 0.000000
vt 0.205764 0.441473
vt 0.009607 0.402455
vt 0.562500 1.000000
vt 0.562500 0.000000
vt 0.222836 0.385195
vt 0.038060 0.308658
vt 0.593750 1.000000
vt 0.593750 0.000000
vt 0.250559 0.333329
vt 0.084265 0.222215
vt 0.625000 1.000000
vt 0.625000 0.000000
vt 0.287868 0.287868
vt 0.146447 0.146447
vt 0.656250 1.000000
vt 0.656250 0.000000
vt 0.333329 0.250559
vt 0.222215 0.084265
vt 0.687500 1.000000
vt 0.687500 0.000000
vt 0.385195 0.222836
vt 0.308658 0.038060
vt 0.718750 1.000000
vt 0.718750 0.000000
vt 0.441473 0.205764
vt 0.402455 0.009607
vt 0.750000 1.000000
vt 0.750000 0.000000
vt 0.500000 0.200000
vt 0.781250 1.000000
vt 0.781250 0.000000
vt 0.558527 0.205764
vt 0.597545 0.009607
vt 0.812500 1.000000
vt 0.812500 0.000000
vt 0.614805 0.222836
vt 0.691342 0.038060
vt 0.843750 1.000000
vt 0.843750 0.000000
vt 0.666671 0.250559
vt 0.777785 0.084265
vt 0.875000 1.000000
vt 0.875000 0.000000
vt 0.712132 0.287868
vt 0.853553 0.146447
vt 0.906250 1.000000
vt 0.906250 0.000000
vt 0.749441 0.333329
vt 0.915735 0.222215
vt 0.937500 1.000000
vt 0.937500 0.000000
vt 0.777164 0.385195
vt 0.961940 0.308658
vt 0.968750 1.000000
vt 0.968750 0.000000
vt 0.794236 0.441473
vt 0.990393 0.402455
vt 1.000000 1.000000
vt 1.000000 0.000000
vn 1.000000 0.000000 0.000000
vn 0.980785 0.000000 0.195090
vn -0.980785 0.000000 -0.195090
vn -1.000000 0.000000 0.000000
vn 0.000000 1.000000 0.000000
vn 0.000000 -1.000000 0.000000
vn 0.923880 0.000000 0.382683
vn -0.923880 0.000000 -0.382683
vn 0.831470 0.000000 0.555570
vn -0.831470 0.000000 -0.555570
vn 0.707107 0.000000 0.707107
vn -0.707107 0.000000 -0.707107
vn 0.555570 0.000000 0.831470
vn -0.555570 0.000000 -0.831470
vn 0.382683 0.000000 0.923880
vn -0.382683 0.000000 -0.923880
vn 0.195090 0.000000 0.980785
vn -0.195090 0.000000 -0.980785
vn 0.000000 0.000000 1.000000
vn 0.000000 0.000000 -1.000000
vn -0.195090 0.000000 0.980785
vn 0.195090 0.000000 -0.980785
vn -0.382683 0.000000 0.923880
vn 0.382683 0.000000 -0.923880
vn -0.555570 0.000000 0.831470
vn 0.555570 0.000000 -0.831470
vn -0.707107 0.000000 0.707107
vn 0.707107 0.000000 -0.707107
vn -0.831470 0.000000 0.555570
vn 0.831470 0.000000 -0.555570
vn -0.923880 0.000000 0.382683
vn 0.923880 0.000000 -0.382683
vn -0.980785 0.000000 0.195090
vn 0.980785 0.000000 -0.195090
f 1/1/1 2/2/2 3/3/2
f 1/1/1 3/3/2 4/4/1
f 5/2/3 6/1/4 7/4/4
f 5/2/3 7/4/4 8/3/3
f 6/5/5 5/6/5 2/7/5
f 6/5/5 2/7/5 1/8/5
f 4/8/6 3/7/6 8/6/6
f 4/8/6 8/6/6 7/5/6
f 2/2/2 9/9/7 10/10/7
f 2/2/2 10/10/7 3/3/2
f 11/9/8 5/2/3 8/3/3
f 11/9/8 8/3/3 12/10/8
f 5/6/5 11/11/5 9/12/5
f 5/6/5 9/12/5 2/7/5
f 3/7/6 10/12/6 12/11/6
f 3/7/6 12/11/6 8/6/6
f 9/9/7 13/13/9 14/14/9
f 9/9/7 14/14/9 10/10/7
f 15/13/10 11/9/8 12/10/8
f 15/13/10 12/10/8 16/14/10
f 11/11/5 15/15/5 13/16/5
f 11/11/5 13/16/5 9/12/5
f 10/12/6 14/16/6 16/15/6
f 10/12/6 16/15/6 12/11/6
f 13/13/9 17/17/11 18/18/11
f 13/13/9 18/18/11 14/14/9
f 19/17/12 15/13/10 16/14/10
f 19/17/12 16/14/10 20/18/12
f 15/15/5 19/19/5 17/20/5
f 15/15/5 17/20/5 13/16/5
f 14/16/6 18/20/6 20/19/6
f 14/16/6 20/19/6 16/15/6
f 17/17/11 21/21/13 22/22/13
f 17/17/11 22/22/13 18/18/11
f 23/21/14 19/17/12 20/18/12
f 23/21/14 20/18/12 24/22/14
f 19/19/5 23/23/5 21/24/5
f 19/19/5 21/24/5 17/20/5
f 18/20/6 22/24/6 24/23/6
f 18/20/6 24/23/6 20/19/6
f 21/21/13 25/25/15 26/26/15
f 21/21/13 26/26/15 22/22/13
f 27/25/16 23/21/14 24/22/14
f 27/25/16 24/22/14 28/26/16
f 23/23/5 27/27/5 25/28/5
f 23/23/5 25/28/5 21/24/5
f 22/24/6 26/28/6 28/27/6
f 22/24/6 28/27/6 24/23/6
f 25/25/15 29/29/17 30/30/17
f 25/25/15 30/30/17 26/26/15
f 31/29/18 27/25/16 28/26/16
f 31/29/18 28/26/16 32/30/18
f 27/27/5 31/31/5 29/32/5
f 27/27/5 29/32/5 25/28/5
f 26/28/6 30/32/6 32/31/6
f 26/28/6 32/31/6 28/27/6
f 29/29/17 33/33/19 34/34/19
f 29/29/17 34/34/19 30/30/17
f 35/33/20 31/29/18 32/30/18
f 35/33/20 32/30/18 36/34/20
f 31/31/5 35/35/5 33/36/5
f 31/31/5 33/36/5 29/32/5
f 30/32/6 34/36/6 36/35/6
f 30/32/6 36/35/6 32/31/6
f 33/33/19 37/37/21 38/38/21
f 33/33/19 38/38/21 34/34/19
f 39/37/22 35/33/20 36/34/20
f 39/37/22 36/34/20 40/38/22
f 35/35/5 39/39/5 37/40/5
f 35/35/5 37/40/5 33/36/5
f 34/36/6 38/40/6 40/39/6
f 34/36/6 40/39/6 36/35/6
f 37/37/21 41/41/23 42/42/23
f 37/37/21 42/42/23 38/38/21
f 43/41/24 39/37/22 40/38/22
f 43/41/24 40/38/22 44/42/24
f 39/39/5 43/43/5 41/44/5
f 39/39/5 41/44/5 37/40/5
f 38/40/6 42/44/6 44/43/6
f 38/40/6 44/43/6 40/39/6
f 41/41/23 45/45/25 46/46/25
f 41/41/23 46/46/25 42/42/23
f 47/45/26 43/41/24 44/42/24
f 47/45/26 44/42/24 48/46/26
f 43/43/5 47/47/5 45/48/5
f 43/43/5 45/48/5 41/44/5
f 42/44/6 46/48/6 48/47/6
f 42/44/6 48/47/6 44/43/6
f 45/45/25 49/49/27 50/50/27
f 45/45/25 50/50/27 46/46/25
f 51/49/28 47/45/26 48/46/26
f 51/49/28 48/46/26 52/50/28
f 47/47/5 51/51/5 49/52/5
f 47/47/5 49/52/5 45/48/5
f 46/48/6 50/52/6 52/51/6
f 46/48/6 52/51/6 48/47/6
f 49/49/27 53/53/29 54/54/29
f 49/49/27 54/54/29 50/50/27
f 55/53/30 51/49/28 52/50/28
f 55/53/30 52/50/28 56/54/30
f 51/51/5 55/55/5 53/56/5
f 51/51/5 53/56/5 49/52/5
f 50/52/6 54/56/6 56/55/6
f 50/52/6 56/55/6 52/51/6
f 53/53/29 57/57/31 58/58/31
f 53/53/29 58/58/31 54/54/29
f 59/57/32 55/53/30 56/54/30
f 59/57/32 56/54/30 60/58/32
f 55/55/5 59/59/5 57/60/5
f 55/55/5 57/60/5 53/56/5
f 54/56/6 58/60/6 60/59/6
f 54/56/6 60/59/6 56/55/6
f 57/57/31 61/61/33 62/62/33
f 57/57/31 62/62/33 58/58/31
f 63/61/34 59/57/32 60/58/32
f 63/61/34 60/58/32 64/62/34
f 59/59/5 63/63/5 61/64/5
f 59/59/5 61/64/5 57/60/5
f 58/60/6 62/64/6 64/63/6
f 58/60/6 64/63/6 60/59/6
f 61/61/33 65/36/4 66/65/4
f 61/61/33 66/65/4 62/62/33
f 67/36/1 63/61/34 64/62/34
f 67/36/1 64/62/34 68/65/1
f 63/63/5 67/66/5 65/67/5
f 63/63/5 65/67/5 61/64/5
f 62/64/6 66/67/6 68/66/6
f 62/64/6 68/66/6 64/63/6
f 65/36/4 69/68/3 70/69/3
f 65/36/4 70/69/3 66/65/4
f 71/68/2 67/36/1 68/65/1
f 71/68/2 68/65/1 72/69/2
f 67/66/5 71/70/5 69/71/5
f 67/66/5 69/71/5 65/67/5
f 66/67/6 70/71/6 72/70/6
f 66/67/6 72/70/6 68/66/6
f 69/68/3 73/72/8 74/73/8
f 69/68/3 74/73/8 70/69/3
f 75/72/7 71/68/2 72/69/2
f 75/72/7 72/69/2 76/73/7
f 71/70/5 75/74/5 73/75/5
f 71/70/5 73/75/5 69/71/5
f 70/71/6 74/75/6 76/74/6
f 70/71/6 76/74/6 72/70/6
f 73/72/8 77/76/10 78/77/10
f 73/72/8 78/77/10 74/73/8
f 79/76/9 75/72/7 76/73/7
f 79/76/9 76/73/7 80/77/9
f 75/74/5 79/78/5 77/79/5
f 75/74/5 77/79/5 73/75/5
f 74/75/6 78/79/6 80/78/6
f 74/75/6 80/78/6 76/74/6
f 77/76/10 81/80/12 82/81/12
f 77/76/10 82/81/12 78/77/10
f 83/80/11 79/76/9 80/77/9
f 83/80/11 80/77/9 84/81/11
f 79/78/5 83/82/5 81/83/5
f 79/78/5 81/83/5 77/79/5
f 78/79/6 82/83/6 84/82/6
f 78/79/6 84/82/6 80/78/6
f 81/80/12 85/84/14 86/85/14
f 81/80/12 86/85/14 82/81/12
f 87/84/13 83/80/11 84/81/11
f 87/84/13 84/81/11 88/85/13
f 83/82/5 87/86/5 85/87/5
f 83/82/5 85/87/5 81/83/5
f 82/83/6 86/87/6 88/86/6
f 82/83/6 88/86/6 84/82/6
f 85/84/14 89/88/16 90/89/16
f 85/84/14 90/89/16 86/85/14
f 91/88/15 87/84/13 88/85/13
f 91/88/15 88/85/13 92/89/15
f 87/86/5 91/90/5 89/91/5
f 87/86/5 89/91/5 85/87/5
f 86/87/6 90/91/6 92/90/6
f 86/87/6 92/90/6 88/86/6
f 89/88/16 93/92/18 94/93/18
f 89/88/16 94/93/18 90/89/16
f 95/92/17 91/88/15 92/89/15
f 95/92/17 92/89/15 96/93/17
f 91/90/5 95/94/5 93/95/5
f 91/90/5 93/95/5 89/91/5
f 90/91/6 94/95/6 96/94/6
f 90/91/6 96/94/6 92/90/6
f 93/92/18 97/96/20 98/97/20
f 93/92/18 98/97/20 94/93/18
f 99/96/19 95/92/17 96/93/17
f 99/96/19 96/93/17 100/97/19
f 95/94/5 99/98/5 97/65/5
f 95/94/5 97/65/5 93/95/5
f 94/95/6 98/65/6 100/98/6
f 94/95/6 100/98/6 96/94/6
f 97/96/20 101/99/22 102/100/22
f 97/96/20 102/100/22 98/97/20
f 103/99/21 99/96/19 100/97/19
f 103/99/21 100/97/19 104/100/21
f 99/98/5 103/101/5 101/102/5
f 99/98/5 101/102/5 97/65/5
f 98/65/6 102/102/6 104/101/6
f 98/65/6 104/101/6 100/98/6
f 101/99/22 105/103/24 106/104/24
f 101/99/22 106/104/24 102/100/22
f 107/103/23 103/99/21 104/100/21
f 107/103/23 104/100/21 108/104/23
f 103/101/5 107/105/5 105/106/5
f 103/101/5 105/106/5 101/102/5
f 102/102/6 106/106/6 108/105/6
f 102/102/6 108/105/6 104/101/6
f 105/103/24 109/107/26 110/108/26
f 105/103/24 110/108/26 106/104/24
f 111/107/25 107/103/23 108/104/23
f 111/107/25 108/104/23 112/108/25
f 107/105/5 111/109/5 109/110/5
f 107/105/5 109/110/5 105/106/5
f 106/106/6 110/110/6 112/109/6
f 106/106/6 112/109/6 108/105/6
f 109/107/26 113/111/28 114/112/28
f 109/107/26 114/112/28 110/108/26
f 115/111/27 111/107/25 112/108/25
f 115/111/27 112/108/25 116/112/27
f 111/109/5 115/113/5 113/114/5
f 111/109/5 113/114/5 109/110/5
f 110/110/6 114/114/6 116/113/6
f 110/110/6 116/113/6 112/109/6
f 113/111/28 117/115/30 118/116/30
f 113/111/28 118/116/30 114/112/28
f 119/115/29 115/111/27 116/112/27
f 119/115/29 116/112/27 120/116/29
f 115/113/5 119/117/5 117/118/5
f 115/113/5 117/118/5 113/114/5
f 114/114/6 118/118/6 120/117/6
f 114/114/6 120/117/6 116/113/6
f 117/115/30 121/119/32 122/120/32
f 117/115/30 122/120/32 118/116/30
f 123/119/31 119/115/29 120/116/29
f 123/119/31 120/116/29 124/120/31
f 119/117/5 123/121/5 121/122/5
f 119/117/5 121/122/5 117/118/5
f 118/118/6 122/122/6 124/121/6
f 118/118/6 124/121/6 120/117/6
f 121/119/32 125/123/34 126/124/34
f 121/119/32 126/124/34 122/120/32
f 127/123/33 123/119/31 124/120/31
f 127/123/33 124/120/31 128/124/33
f 123/121/5 127/125/5 125/126/5
f 123/121/5 125/126/5 121/122/5
f 122/122/6 126/126/6 128/125/6
f 122/122/6 128/125/6 124/121/6
f 125/123/34 1/127/1 4/128/1
f 125/123/34 4/128/1 126/124/34
f 6/127/4 127/123/33 128/124/33
f 6/127/4 128/124/33 7/128/4
f 127/125/5 6/5/5 1/8/5
f 127/125/5 1/8/5 125/126/5
f 126/126/6 4/8/6 7/5/6
f 126/126/6 7/5/6 128/125/6
