# Jahshaka primitive: Wedge
# Generated by scripts/primitives/genprimitives.py - modelled centred in the +/-1 box.
o Wedge
v -1.000000 -1.000000 1.000000
v -1.000000 -1.000000 -1.000000
v 1.000000 -1.000000 -1.000000
v 1.000000 -1.000000 1.000000
v -1.000000 1.000000 -1.000000
v 1.000000 1.000000 -1.000000
vt 0.000000 0.000000
vt 0.000000 1.000000
vt 1.000000 1.000000
vt 1.000000 0.000000
vn 0.000000 -1.000000 0.000000
vn 0.000000 0.000000 -1.000000
vn 0.000000 0.707107 0.707107
vn -1.000000 0.000000 0.000000
vn 1.000000 0.000000 0.000000
f 1/1/1 2/2/1 3/3/1
f 1/1/1 3/3/1 4/4/1
f 2/1/2 5/2/2 6/3/2
f 2/1/2 6/3/2 3/4/2
f 1/1/3 4/4/3 6/3/3
f 1/1/3 6/3/3 5/2/3
f 1/1/4 5/3/4 2/4/4
f 4/1/5 3/4/5 6/3/5
