# Blender v2.76 (sub 0) OBJ File: 'controls.blend'
# www.blender.org
mtllib trans_arrow.mtl
o Cylinder.002
v 0.000000 0.000000 -0.029791
v 0.000000 1.000000 -0.000000
v 0.005812 0.000000 -0.029219
v 0.011401 0.000000 -0.027523
v 0.016551 0.000000 -0.024770
v 0.021065 0.000000 -0.021066
v 0.024770 0.000000 -0.016551
v 0.027523 0.000000 -0.011401
v 0.029219 0.000000 -0.005812
v 0.029791 0.000000 -0.000000
v 0.029219 0.000000 0.005812
v 0.027523 0.000000 0.011400
v 0.024770 0.000000 0.016551
v 0.021065 0.000000 0.021065
v 0.016551 0.000000 0.024770
v 0.011401 0.000000 0.027523
v 0.005812 0.000000 0.029218
v 0.000000 0.000000 0.029791
v -0.005812 0.000000 0.029218
v -0.011400 0.000000 0.027523
v -0.016551 0.000000 0.024770
v -0.021065 0.000000 0.021065
v -0.024770 0.000000 0.016551
v -0.027523 0.000000 0.011400
v -0.029219 0.000000 0.005812
v -0.029791 0.000000 -0.000000
v -0.029219 0.000000 -0.005812
v -0.027523 0.000000 -0.011401
v -0.024770 0.000000 -0.016551
v -0.021065 0.000000 -0.021066
v -0.016551 0.000000 -0.024770
v -0.011400 0.000000 -0.027523
v -0.005812 0.000000 -0.029219
v 0.000000 0.677944 -0.029791
v 0.005812 0.677944 -0.029219
v 0.011401 0.677944 -0.027523
v 0.016551 0.677944 -0.024770
v 0.021065 0.677944 -0.021066
v 0.024770 0.677944 -0.016551
v 0.027523 0.677944 -0.011401
v 0.029219 0.677944 -0.005812
v 0.029791 0.677944 -0.000000
v 0.029219 0.677944 0.005812
v 0.027523 0.677944 0.011400
v 0.024770 0.677944 0.016551
v 0.021065 0.677944 0.021065
v 0.016551 0.677944 0.024770
v 0.011401 0.677944 0.027523
v 0.005812 0.677944 0.029218
v 0.000000 0.677944 0.029791
v -0.005812 0.677944 0.029218
v -0.011400 0.677944 0.027523
v -0.016551 0.677944 0.024770
v -0.021065 0.677944 0.021065
v -0.024770 0.677944 0.016551
v -0.027523 0.677944 0.011400
v -0.029219 0.677944 0.005812
v -0.029791 0.677944 -0.000000
v -0.029219 0.677944 -0.005812
v -0.027523 0.677944 -0.011401
v -0.024770 0.677944 -0.016551
v -0.021065 0.677944 -0.021066
v -0.016551 0.677944 -0.024770
v -0.011400 0.677944 -0.027523
v -0.005812 0.677944 -0.029219
v 0.000000 0.678231 -0.111076
v 0.021670 0.678231 -0.108942
v 0.042507 0.678231 -0.102621
v 0.061711 0.678231 -0.092357
v 0.078543 0.678231 -0.078543
v 0.092356 0.678231 -0.061711
v 0.102621 0.678231 -0.042507
v 0.108942 0.678231 -0.021670
v 0.111076 0.678231 -0.000000
v 0.108942 0.678231 0.021670
v 0.102621 0.678231 0.042507
v 0.092356 0.678231 0.061710
v 0.078543 0.678231 0.078543
v 0.061711 0.678231 0.092356
v 0.042507 0.678231 0.102621
v 0.021670 0.678231 0.108942
v -0.000000 0.678231 0.111076
v -0.021670 0.678231 0.108942
v -0.042507 0.678231 0.102621
v -0.061711 0.678231 0.092356
v -0.078543 0.678231 0.078543
v -0.092356 0.678231 0.061710
v -0.102621 0.678231 0.042507
v -0.108942 0.678231 0.021670
v -0.111076 0.678231 -0.000000
v -0.108942 0.678231 -0.021670
v -0.102621 0.678231 -0.042507
v -0.092356 0.678231 -0.061711
v -0.078543 0.678231 -0.078543
v -0.061710 0.678231 -0.092357
v -0.042507 0.678231 -0.102621
v -0.021670 0.678231 -0.108942
v 0.000000 0.000000 -0.029791
v 0.005812 0.000000 -0.029219
v 0.011401 0.000000 -0.027523
v 0.016551 0.000000 -0.024770
v 0.021065 0.000000 -0.021066
v 0.024770 0.000000 -0.016551
v 0.027523 0.000000 -0.011401
v 0.029219 0.000000 -0.005812
v 0.029791 0.000000 -0.000000
v 0.029219 0.000000 0.005812
v 0.027523 0.000000 0.011400
v 0.024770 0.000000 0.016551
v 0.021065 0.000000 0.021065
v 0.016551 0.000000 0.024770
v 0.011401 0.000000 0.027523
v 0.005812 0.000000 0.029218
v 0.000000 0.000000 0.029791
v -0.005812 0.000000 0.029218
v -0.011400 0.000000 0.027523
v -0.016551 0.000000 0.024770
v -0.021065 0.000000 0.021065
v -0.024770 0.000000 0.016551
v -0.027523 0.000000 0.011400
v -0.029219 0.000000 0.005812
v -0.029791 0.000000 -0.000000
v -0.029219 0.000000 -0.005812
v -0.027523 0.000000 -0.011401
v -0.024770 0.000000 -0.016551
v -0.021065 0.000000 -0.021066
v -0.016551 0.000000 -0.024770
v -0.011400 0.000000 -0.027523
v -0.005812 0.000000 -0.029219
v -0.005812 0.677944 -0.029219
v 0.000000 0.677944 -0.029791
v -0.011400 0.677944 -0.027523
v -0.016551 0.677944 -0.024770
v -0.021065 0.677944 -0.021066
v -0.024770 0.677944 -0.016551
v -0.027523 0.677944 -0.011401
v -0.029219 0.677944 -0.005812
v -0.029791 0.677944 -0.000000
v -0.029219 0.677944 0.005812
v -0.027523 0.677944 0.011400
v -0.024770 0.677944 0.016551
v -0.021065 0.677944 0.021065
v -0.016551 0.677944 0.024770
v -0.011400 0.677944 0.027523
v -0.005812 0.677944 0.029218
v 0.000000 0.677944 0.029791
v 0.005812 0.677944 0.029218
v 0.011401 0.677944 0.027523
v 0.016551 0.677944 0.024770
v 0.021065 0.677944 0.021065
v 0.024770 0.677944 0.016551
v 0.027523 0.677944 0.011400
v 0.029219 0.677944 0.005812
v 0.029791 0.677944 -0.000000
v 0.029219 0.677944 -0.005812
v 0.027523 0.677944 -0.011401
v 0.024770 0.677944 -0.016551
v 0.021065 0.677944 -0.021066
v 0.016551 0.677944 -0.024770
v 0.011401 0.677944 -0.027523
v 0.005812 0.677944 -0.029219
v -0.021670 0.678231 -0.108942
v 0.000000 0.678231 -0.111076
v -0.042507 0.678231 -0.102621
v -0.061710 0.678231 -0.092357
v -0.078543 0.678231 -0.078543
v -0.092356 0.678231 -0.061711
v -0.102621 0.678231 -0.042507
v -0.108942 0.678231 -0.021670
v -0.111076 0.678231 -0.000000
v -0.108942 0.678231 0.021670
v -0.102621 0.678231 0.042507
v -0.092356 0.678231 0.061710
v -0.078543 0.678231 0.078543
v -0.061711 0.678231 0.092356
v -0.042507 0.678231 0.102621
v -0.021670 0.678231 0.108942
v -0.000000 0.678231 0.111076
v 0.021670 0.678231 0.108942
v 0.042507 0.678231 0.102621
v 0.061711 0.678231 0.092356
v 0.078543 0.678231 0.078543
v 0.092356 0.678231 0.061710
v 0.102621 0.678231 0.042507
v 0.108942 0.678231 0.021670
v 0.111076 0.678231 -0.000000
v 0.108942 0.678231 -0.021670
v 0.102621 0.678231 -0.042507
v 0.092356 0.678231 -0.061711
v 0.078543 0.678231 -0.078543
v 0.061711 0.678231 -0.092357
v 0.042507 0.678231 -0.102621
v 0.021670 0.678231 -0.108942
vn 0.000000 0.326300 -0.945200
vn 0.000000 1.000000 0.000000
vn 0.184400 0.326300 -0.927100
vn 0.361700 0.326300 -0.873300
vn 0.525100 0.326300 -0.785900
vn 0.668400 0.326300 -0.668400
vn 0.785900 0.326300 -0.525100
vn 0.873300 0.326300 -0.361700
vn 0.927100 0.326300 -0.184400
vn 0.945200 0.326300 0.000000
vn 0.927100 0.326300 0.184400
vn 0.873300 0.326300 0.361700
vn 0.785900 0.326300 0.525100
vn 0.668400 0.326300 0.668400
vn 0.525100 0.326300 0.785900
vn 0.361700 0.326300 0.873300
vn 0.184400 0.326300 0.927100
vn 0.000000 0.326300 0.945200
vn -0.184400 0.326300 0.927100
vn -0.361700 0.326300 0.873300
vn -0.525100 0.326300 0.785900
vn -0.668400 0.326300 0.668400
vn -0.785900 0.326300 0.525100
vn -0.873300 0.326300 0.361700
vn -0.927100 0.326300 0.184400
vn -0.945200 0.326300 0.000000
vn -0.927100 0.326300 -0.184400
vn -0.873300 0.326300 -0.361700
vn -0.785900 0.326300 -0.525100
vn -0.668400 0.326300 -0.668400
vn -0.525100 0.326300 -0.785900
vn -0.361700 0.326300 -0.873300
vn -0.184400 0.326300 -0.927100
vn 0.000000 -1.000000 0.000000
vn -0.195100 0.000000 -0.980800
vn 0.000000 0.000000 -1.000000
vn -0.382700 0.000000 -0.923900
vn -0.555600 0.000000 -0.831400
vn -0.707100 0.000000 -0.707100
vn -0.831400 0.000000 -0.555600
vn -0.923900 0.000000 -0.382700
vn -0.980800 0.000000 -0.195100
vn -1.000000 0.000000 0.000000
vn -0.980800 0.000000 0.195100
vn -0.923900 0.000000 0.382700
vn -0.831400 0.000000 0.555600
vn -0.707100 0.000000 0.707100
vn -0.555600 0.000000 0.831400
vn -0.382700 0.000000 0.923900
vn -0.195100 0.000000 0.980800
vn 0.000000 0.000000 1.000000
vn 0.195100 0.000000 0.980800
vn 0.382700 0.000000 0.923900
vn 0.555600 0.000000 0.831400
vn 0.707100 0.000000 0.707100
vn 0.831400 0.000000 0.555600
vn 0.923900 0.000000 0.382700
vn 0.980800 0.000000 0.195100
vn 1.000000 0.000000 0.000000
vn 0.980800 0.000000 -0.195100
vn 0.923900 0.000000 -0.382700
vn 0.831400 0.000000 -0.555600
vn 0.707100 0.000000 -0.707100
vn 0.555600 0.000000 -0.831400
vn 0.382700 0.000000 -0.923900
vn 0.195100 0.000000 -0.980800
vn -0.000700 -1.000000 -0.003400
vn 0.000000 -1.000000 -0.003500
vn -0.001300 -1.000000 -0.003200
vn -0.002000 -1.000000 -0.002900
vn -0.002500 -1.000000 -0.002500
vn -0.002900 -1.000000 -0.002000
vn -0.003200 -1.000000 -0.001300
vn -0.003400 -1.000000 -0.000700
vn -0.003500 -1.000000 0.000000
vn -0.003400 -1.000000 0.000700
vn -0.003200 -1.000000 0.001300
vn -0.002900 -1.000000 0.002000
vn -0.002500 -1.000000 0.002500
vn -0.002000 -1.000000 0.002900
vn -0.001300 -1.000000 0.003200
vn -0.000700 -1.000000 0.003400
vn 0.000000 -1.000000 0.003500
vn 0.000700 -1.000000 0.003400
vn 0.001300 -1.000000 0.003200
vn 0.002000 -1.000000 0.002900
vn 0.002500 -1.000000 0.002500
vn 0.002900 -1.000000 0.002000
vn 0.003200 -1.000000 0.001300
vn 0.003400 -1.000000 0.000700
vn 0.003500 -1.000000 0.000000
vn 0.003400 -1.000000 -0.000700
vn 0.003200 -1.000000 -0.001300
vn 0.002900 -1.000000 -0.002000
vn 0.002500 -1.000000 -0.002500
vn 0.002000 -1.000000 -0.002900
vn 0.001300 -1.000000 -0.003200
vn 0.000700 -1.000000 -0.003400
usemtl None
s 1
f 163//1 2//2 67//3
f 67//3 2//2 68//4
f 68//4 2//2 69//5
f 69//5 2//2 70//6
f 70//6 2//2 71//7
f 71//7 2//2 72//8
f 72//8 2//2 73//9
f 73//9 2//2 74//10
f 74//10 2//2 75//11
f 75//11 2//2 76//12
f 76//12 2//2 77//13
f 77//13 2//2 78//14
f 78//14 2//2 79//15
f 79//15 2//2 80//16
f 80//16 2//2 81//17
f 81//17 2//2 82//18
f 82//18 2//2 83//19
f 83//19 2//2 84//20
f 84//20 2//2 85//21
f 85//21 2//2 86//22
f 86//22 2//2 87//23
f 87//23 2//2 88//24
f 88//24 2//2 89//25
f 89//25 2//2 90//26
f 90//26 2//2 91//27
f 91//27 2//2 92//28
f 92//28 2//2 93//29
f 93//29 2//2 94//30
f 94//30 2//2 95//31
f 95//31 2//2 96//32
f 96//32 2//2 97//33
f 97//33 2//2 163//1
f 113//34 125//34 129//34
f 130//35 131//36 1//36
f 132//37 130//35 33//35
f 133//38 132//37 32//37
f 134//39 133//38 31//38
f 135//40 134//39 30//39
f 136//41 135//40 29//40
f 137//42 136//41 28//41
f 138//43 137//42 27//42
f 139//44 138//43 26//43
f 140//45 139//44 25//44
f 141//46 140//45 24//45
f 142//47 141//46 23//46
f 143//48 142//47 22//47
f 144//49 143//48 21//48
f 145//50 144//49 20//49
f 146//51 145//50 19//50
f 147//52 146//51 18//51
f 148//53 147//52 17//52
f 149//54 148//53 16//53
f 150//55 149//54 15//54
f 151//56 150//55 14//55
f 152//57 151//56 13//56
f 153//58 152//57 12//57
f 154//59 153//58 11//58
f 155//60 154//59 10//59
f 156//61 155//60 9//60
f 157//62 156//61 8//61
f 158//63 157//62 7//62
f 159//64 158//63 6//63
f 160//65 159//64 5//64
f 161//66 160//65 4//65
f 131//36 161//66 3//66
f 162//67 66//68 34//68
f 64//69 164//69 162//67
f 165//70 164//69 64//69
f 62//71 166//71 165//70
f 167//72 166//71 62//71
f 168//73 167//72 61//72
f 169//74 168//73 60//73
f 58//75 170//75 169//74
f 57//76 171//76 170//75
f 56//77 172//77 171//76
f 173//78 172//77 56//77
f 174//79 173//78 55//78
f 175//80 174//79 54//79
f 176//81 175//80 53//80
f 177//82 176//81 52//81
f 178//83 177//82 51//82
f 179//84 178//83 50//83
f 48//85 180//85 179//84
f 47//86 181//86 180//85
f 46//87 182//87 181//86
f 45//88 183//88 182//87
f 44//89 184//89 183//88
f 43//90 185//90 184//89
f 186//91 185//90 43//90
f 41//92 187//92 186//91
f 40//93 188//93 187//92
f 189//94 188//93 40//93
f 190//95 189//94 39//94
f 37//96 191//96 190//95
f 36//97 192//97 191//96
f 35//98 193//98 192//97
f 34//68 66//68 193//98
f 129//34 98//34 99//34
f 99//34 100//34 101//34
f 101//34 102//34 105//34
f 103//34 104//34 105//34
f 105//34 106//34 109//34
f 107//34 108//34 109//34
f 109//34 110//34 111//34
f 111//34 112//34 113//34
f 113//34 114//34 115//34
f 115//34 116//34 113//34
f 117//34 118//34 121//34
f 119//34 120//34 121//34
f 121//34 122//34 123//34
f 123//34 124//34 125//34
f 125//34 126//34 127//34
f 127//34 128//34 129//34
f 129//34 99//34 101//34
f 102//34 103//34 105//34
f 106//34 107//34 109//34
f 109//34 111//34 105//34
f 113//34 116//34 117//34
f 118//34 119//34 121//34
f 121//34 123//34 125//34
f 125//34 127//34 129//34
f 129//34 101//34 113//34
f 105//34 111//34 113//34
f 113//34 117//34 121//34
f 121//34 125//34 113//34
f 101//34 105//34 113//34
f 33//35 130//35 1//36
f 32//37 132//37 33//35
f 31//38 133//38 32//37
f 30//39 134//39 31//38
f 29//40 135//40 30//39
f 28//41 136//41 29//40
f 27//42 137//42 28//41
f 26//43 138//43 27//42
f 25//44 139//44 26//43
f 24//45 140//45 25//44
f 23//46 141//46 24//45
f 22//47 142//47 23//46
f 21//48 143//48 22//47
f 20//49 144//49 21//48
f 19//50 145//50 20//49
f 18//51 146//51 19//50
f 17//52 147//52 18//51
f 16//53 148//53 17//52
f 15//54 149//54 16//53
f 14//55 150//55 15//54
f 13//56 151//56 14//55
f 12//57 152//57 13//56
f 11//58 153//58 12//57
f 10//59 154//59 11//58
f 9//60 155//60 10//59
f 8//61 156//61 9//60
f 7//62 157//62 8//61
f 6//63 158//63 7//62
f 5//64 159//64 6//63
f 4//65 160//65 5//64
f 3//66 161//66 4//65
f 1//36 131//36 3//66
f 65//67 162//67 34//68
f 65//67 64//69 162//67
f 63//70 165//70 64//69
f 63//70 62//71 165//70
f 61//72 167//72 62//71
f 60//73 168//73 61//72
f 59//74 169//74 60//73
f 59//74 58//75 169//74
f 58//75 57//76 170//75
f 57//76 56//77 171//76
f 55//78 173//78 56//77
f 54//79 174//79 55//78
f 53//80 175//80 54//79
f 52//81 176//81 53//80
f 51//82 177//82 52//81
f 50//83 178//83 51//82
f 49//84 179//84 50//83
f 49//84 48//85 179//84
f 48//85 47//86 180//85
f 47//86 46//87 181//86
f 46//87 45//88 182//87
f 45//88 44//89 183//88
f 44//89 43//90 184//89
f 42//91 186//91 43//90
f 42//91 41//92 186//91
f 41//92 40//93 187//92
f 39//94 189//94 40//93
f 38//95 190//95 39//94
f 38//95 37//96 190//95
f 37//96 36//97 191//96
f 36//97 35//98 192//97
f 35//98 34//68 193//98
